Marhey-SemiBold.ufo
<glyph name="exclam" format="2">
	<advance width="301"/>
	<unicode hex="0021"/>
	<outline>
		<contour>
			<point x="93" y="205" type="curve"/>
			<point x="201" y="201" type="line"/>
			<point x="228" y="383"/>
			<point x="235" y="591"/>
			<point x="234" y="765" type="curve"/>
			<point x="69" y="741" type="line"/>
			<point x="85" y="583"/>
			<point x="98" y="351"/>
		</contour>
		<contour>
			<point x="75" y="2" type="curve"/>
			<point x="204" y="-7" type="line"/>
			<point x="210" y="35"/>
			<point x="213" y="91"/>
			<point x="208" y="130" type="curve"/>
			<point x="78" y="135" type="line"/>
			<point x="82" y="90"/>
			<point x="80" y="43"/>
		</contour>
	</outline>
</glyph>
<glyph name="numbersign" format="2">
	<advance width="821"/>
	<unicode hex="0023"/>
	<outline>
		<contour>
			<point x="147" y="9" type="curve"/>
			<point x="262" y="20" type="line"/>
			<point x="327" y="260"/>
			<point x="375" y="500"/>
			<point x="404" y="740" type="curve"/>
			<point x="262" y="728" type="line"/>
			<point x="242" y="488"/>
			<point x="203" y="249"/>
		</contour>
		<contour>
			<point x="749" y="189" type="curve"/>
			<point x="728" y="299" type="line"/>
			<point x="498" y="323"/>
			<point x="261" y="334"/>
			<point x="36" y="329" type="curve"/>
			<point x="71" y="205" type="line"/>
			<point x="290" y="214"/>
			<point x="524" y="209"/>
		</contour>
		<contour>
			<point x="785" y="449" type="curve"/>
			<point x="757" y="577" type="line"/>
			<point x="534" y="569"/>
			<point x="300" y="574"/>
			<point x="73" y="592" type="curve"/>
			<point x="95" y="485" type="line"/>
			<point x="325" y="460"/>
			<point x="562" y="448"/>
		</contour>
		<contour>
			<point x="451" y="25" type="curve"/>
			<point x="583" y="47" type="line"/>
			<point x="602" y="284"/>
			<point x="640" y="522"/>
			<point x="696" y="759" type="curve"/>
			<point x="579" y="750" type="line"/>
			<point x="516" y="508"/>
			<point x="476" y="267"/>
		</contour>
	</outline>
</glyph>
<glyph name="dollar" format="2">
	<advance width="682.5"/>
	<unicode hex="0024"/>
	<outline>
		<contour>
			<point x="268" y="-123" type="line"/>
			<point x="390" y="-106" type="line"/>
			<point x="380" y="92" type="line"/>
			<point x="289" y="81" type="line"/>
		</contour>
		<contour>
			<point x="300" y="691" type="line"/>
			<point x="391" y="702" type="line"/>
			<point x="412" y="846" type="line"/>
			<point x="290" y="829" type="line"/>
		</contour>
		<contour>
			<point x="348" y="-11" type="curve" smooth="yes"/>
			<point x="527" y="-11"/>
			<point x="646" y="64"/>
			<point x="646" y="212" type="curve" smooth="yes"/>
			<point x="646" y="457"/>
			<point x="240" y="383"/>
			<point x="243" y="592" type="curve" smooth="yes"/>
			<point x="245" y="652"/>
			<point x="296" y="686"/>
			<point x="374" y="686" type="curve" smooth="yes"/>
			<point x="433" y="686"/>
			<point x="505" y="652"/>
			<point x="566" y="601" type="curve"/>
			<point x="595" y="701" type="line"/>
			<point x="541" y="744"/>
			<point x="450" y="768"/>
			<point x="361" y="768" type="curve" smooth="yes"/>
			<point x="218" y="768"/>
			<point x="76" y="708"/>
			<point x="76" y="570" type="curve" smooth="yes"/>
			<point x="76" y="371"/>
			<point x="448" y="379"/>
			<point x="448" y="227" type="curve" smooth="yes"/>
			<point x="448" y="157"/>
			<point x="383" y="106"/>
			<point x="312" y="106" type="curve" smooth="yes"/>
			<point x="238" y="106"/>
			<point x="153" y="131"/>
			<point x="62" y="190" type="curve"/>
			<point x="36" y="40" type="line"/>
			<point x="145" y="8"/>
			<point x="253" y="-11"/>
		</contour>
	</outline>
</glyph>
<glyph name="percent" format="2">
	<advance width="842"/>
	<unicode hex="0025"/>
	<outline>
		<contour>
			<point x="185" y="369" type="curve" smooth="yes"/>
			<point x="259" y="369"/>
			<point x="337" y="433"/>
			<point x="337" y="561" type="curve" smooth="yes"/>
			<point x="337" y="689"/>
			<point x="259" y="754"/>
			<point x="187" y="754" type="curve" smooth="yes"/>
			<point x="114" y="754"/>
			<point x="36" y="690"/>
			<point x="36" y="559" type="curve" smooth="yes"/>
			<point x="36" y="432"/>
			<point x="113" y="369"/>
		</contour>
		<contour>
			<point x="184" y="456" type="curve" smooth="yes"/>
			<point x="152" y="456"/>
			<point x="131" y="491"/>
			<point x="131" y="571" type="curve" smooth="yes"/>
			<point x="131" y="646"/>
			<point x="150" y="684"/>
			<point x="185" y="684" type="curve" smooth="yes"/>
			<point x="222" y="684"/>
			<point x="243" y="645"/>
			<point x="243" y="572" type="curve" smooth="yes"/>
			<point x="243" y="497"/>
			<point x="220" y="456"/>
		</contour>
		<contour>
			<point x="268" y="-27" type="line"/>
			<point x="681" y="804" type="line"/>
			<point x="605" y="858" type="line"/>
			<point x="198" y="32" type="line"/>
		</contour>
		<contour>
			<point x="654" y="-6" type="curve" smooth="yes"/>
			<point x="728" y="-6"/>
			<point x="806" y="58"/>
			<point x="806" y="186" type="curve" smooth="yes"/>
			<point x="806" y="314"/>
			<point x="728" y="379"/>
			<point x="656" y="379" type="curve" smooth="yes"/>
			<point x="583" y="379"/>
			<point x="506" y="315"/>
			<point x="506" y="184" type="curve" smooth="yes"/>
			<point x="506" y="57"/>
			<point x="582" y="-6"/>
		</contour>
		<contour>
			<point x="654" y="80" type="curve" smooth="yes"/>
			<point x="622" y="80"/>
			<point x="601" y="117"/>
			<point x="601" y="196" type="curve" smooth="yes"/>
			<point x="601" y="271"/>
			<point x="620" y="309"/>
			<point x="655" y="309" type="curve" smooth="yes"/>
			<point x="693" y="309"/>
			<point x="714" y="270"/>
			<point x="714" y="197" type="curve" smooth="yes"/>
			<point x="714" y="121"/>
			<point x="689" y="80"/>
		</contour>
	</outline>
</glyph>
<glyph name="ampersand" format="2">
	<advance width="702"/>
	<unicode hex="0026"/>
	<outline>
		<contour>
			<point x="628" y="0" type="curve"/>
			<point x="666" y="205" type="line"/>
			<point x="462" y="331"/>
			<point x="252" y="522"/>
			<point x="252" y="623" type="curve" smooth="yes"/>
			<point x="252" y="664"/>
			<point x="272" y="688"/>
			<point x="308" y="688" type="curve" smooth="yes"/>
			<point x="355" y="688"/>
			<point x="426" y="638"/>
			<point x="496" y="555" type="curve"/>
			<point x="530" y="692" type="line"/>
			<point x="439" y="739"/>
			<point x="351" y="762"/>
			<point x="271" y="762" type="curve" smooth="yes"/>
			<point x="171" y="762"/>
			<point x="111" y="712"/>
			<point x="111" y="621" type="curve" smooth="yes"/>
			<point x="111" y="424"/>
			<point x="401" y="141"/>
		</contour>
		<contour>
			<point x="247" y="-21" type="curve" smooth="yes"/>
			<point x="349" y="-21"/>
			<point x="464" y="23"/>
			<point x="595" y="190" type="curve"/>
			<point x="528" y="257" type="line"/>
			<point x="435" y="143"/>
			<point x="382" y="104"/>
			<point x="324" y="103" type="curve" smooth="yes"/>
			<point x="259" y="103"/>
			<point x="215" y="139"/>
			<point x="215" y="199" type="curve" smooth="yes"/>
			<point x="215" y="247"/>
			<point x="237" y="307"/>
			<point x="305" y="371" type="curve"/>
			<point x="217" y="450" type="line"/>
			<point x="93" y="335"/>
			<point x="49" y="261"/>
			<point x="49" y="156" type="curve" smooth="yes"/>
			<point x="49" y="66"/>
			<point x="115" y="-21"/>
		</contour>
	</outline>
</glyph>
<glyph name="quotesingle" format="2">
	<advance width="238.5"/>
	<unicode hex="0027"/>
	<outline>
		<contour>
			<point x="70" y="461" type="line"/>
			<point x="155" y="472" type="line"/>
			<point x="181" y="746" type="line"/>
			<point x="57" y="729" type="line"/>
		</contour>
	</outline>
</glyph>
<glyph name="parenleft" format="2">
	<advance width="344"/>
	<unicode hex="0028"/>
	<outline>
		<contour>
			<point x="163" y="-118" type="curve"/>
			<point x="290" y="-64" type="line"/>
			<point x="208" y="46"/>
			<point x="167" y="190"/>
			<point x="167" y="329" type="curve" smooth="yes"/>
			<point x="167" y="480"/>
			<point x="215" y="626"/>
			<point x="308" y="717" type="curve"/>
			<point x="200" y="803" type="line"/>
			<point x="96" y="680"/>
			<point x="49" y="495"/>
			<point x="49" y="315" type="curve" smooth="yes"/>
			<point x="49" y="148"/>
			<point x="90" y="-15"/>
		</contour>
	</outline>
</glyph>
<glyph name="asterisk" format="2">
	<advance width="552.5"/>
	<unicode hex="002A"/>
	<outline>
		<contour>
			<point x="255" y="540" type="curve"/>
			<point x="309" y="551" type="line"/>
			<point x="314" y="635"/>
			<point x="326" y="695"/>
			<point x="359" y="754" type="curve"/>
			<point x="239" y="778" type="line"/>
			<point x="231" y="689"/>
			<point x="235" y="629"/>
		</contour>
		<contour>
			<point x="268" y="571" type="curve"/>
			<point x="295" y="523" type="line"/>
			<point x="377" y="544"/>
			<point x="438" y="552"/>
			<point x="504" y="538" type="curve"/>
			<point x="490" y="660" type="line"/>
			<point x="402" y="640"/>
			<point x="346" y="617"/>
		</contour>
		<contour>
			<point x="305" y="571" type="curve"/>
			<point x="268" y="530" type="line"/>
			<point x="314" y="460"/>
			<point x="340" y="404"/>
			<point x="348" y="337" type="curve"/>
			<point x="459" y="388" type="line"/>
			<point x="413" y="465"/>
			<point x="374" y="511"/>
		</contour>
		<contour>
			<point x="308" y="533" type="curve"/>
			<point x="259" y="556" type="line"/>
			<point x="206" y="491"/>
			<point x="161" y="450"/>
			<point x="98" y="422" type="curve"/>
			<point x="182" y="332" type="line"/>
			<point x="241" y="399"/>
			<point x="272" y="450"/>
		</contour>
		<contour>
			<point x="280" y="521" type="curve"/>
			<point x="286" y="575" type="line"/>
			<point x="207" y="606"/>
			<point x="153" y="636"/>
			<point x="108" y="686" type="curve"/>
			<point x="49" y="579" type="line"/>
			<point x="131" y="544"/>
			<point x="189" y="530"/>
		</contour>
	</outline>
</glyph>
<glyph name="plus" format="2">
	<advance width="522"/>
	<unicode hex="002B"/>
	<outline>
		<contour>
			<point x="486" y="285" type="curve"/>
			<point x="483" y="426" type="line"/>
			<point x="366" y="429"/>
			<point x="154" y="424"/>
			<point x="37" y="411" type="curve"/>
			<point x="36" y="303" type="line"/>
			<point x="155" y="305"/>
			<point x="367" y="299"/>
		</contour>
		<contour>
			<point x="178" y="118" type="curve"/>
			<point x="324" y="121" type="line"/>
			<point x="326" y="248"/>
			<point x="321" y="466"/>
			<point x="308" y="593" type="curve"/>
			<point x="196" y="594" type="line"/>
			<point x="197" y="465"/>
			<point x="191" y="247"/>
		</contour>
	</outline>
</glyph>
<glyph name="comma" format="2">
	<advance width="273.5"/>
	<unicode hex="002C"/>
	<outline>
		<contour>
			<point x="57" y="-72" type="curve"/>
			<point x="132" y="-149" type="line"/>
			<point x="181" y="-104"/>
			<point x="209" y="-54"/>
			<point x="213" y="2" type="curve"/>
			<point x="215" y="53"/>
			<point x="216" y="98"/>
			<point x="216" y="150" type="curve"/>
			<point x="65" y="156" type="line"/>
			<point x="58" y="110"/>
			<point x="61" y="46"/>
			<point x="67" y="-2" type="curve"/>
			<point x="179" y="2" type="line"/>
			<point x="152" y="14" type="line"/>
			<point x="144" y="-3"/>
			<point x="106" y="-46"/>
		</contour>
	</outline>
</glyph>
<glyph name="hyphen" format="2">
	<advance width="429"/>
	<unicode hex="002D"/>
	<outline>
		<contour>
			<point x="393" y="213" type="curve"/>
			<point x="391" y="358" type="line"/>
			<point x="273" y="361"/>
			<point x="154" y="356"/>
			<point x="37" y="343" type="curve"/>
			<point x="36" y="231" type="line"/>
			<point x="155" y="233"/>
			<point x="273" y="227"/>
		</contour>
	</outline>
</glyph>
<glyph name="period" format="2">
	<advance width="269.5"/>
	<unicode hex="002E"/>
	<outline>
		<contour>
			<point x="63" y="-2" type="curve"/>
			<point x="209" y="2" type="line"/>
			<point x="206" y="53"/>
			<point x="208" y="103"/>
			<point x="212" y="155" type="curve"/>
			<point x="61" y="156" type="line"/>
			<point x="56" y="110"/>
			<point x="57" y="46"/>
		</contour>
	</outline>
</glyph>
<glyph name="slash" format="2">
	<advance width="551"/>
	<unicode hex="002F"/>
	<outline>
		<contour>
			<point x="105" y="-33" type="line"/>
			<point x="515" y="804" type="line"/>
			<point x="432" y="864" type="line"/>
			<point x="36" y="30" type="line"/>
		</contour>
	</outline>
</glyph>
<glyph name="zero" format="2">
	<advance width="698"/>
	<unicode hex="0030"/>
	<outline>
		<contour>
			<point x="346" y="-13" type="curve" smooth="yes"/>
			<point x="494" y="-13"/>
			<point x="649" y="116"/>
			<point x="649" y="372" type="curve" smooth="yes"/>
			<point x="649" y="628"/>
			<point x="494" y="758"/>
			<point x="349" y="758" type="curve" smooth="yes"/>
			<point x="203" y="758"/>
			<point x="49" y="629"/>
			<point x="49" y="368" type="curve" smooth="yes"/>
			<point x="49" y="113"/>
			<point x="202" y="-13"/>
		</contour>
		<contour>
			<point x="344" y="123" type="curve" smooth="yes"/>
			<point x="265" y="123"/>
			<point x="214" y="211"/>
			<point x="214" y="403" type="curve" smooth="yes"/>
			<point x="214" y="582"/>
			<point x="260" y="676"/>
			<point x="347" y="676" type="curve" smooth="yes"/>
			<point x="437" y="676"/>
			<point x="488" y="581"/>
			<point x="488" y="406" type="curve" smooth="yes"/>
			<point x="488" y="223"/>
			<point x="431" y="123"/>
		</contour>
	</outline>
</glyph>
<glyph name="one" format="2">
	<advance width="554.5"/>
	<unicode hex="0031"/>
	<outline>
		<contour>
			<point x="239" y="7" type="curve"/>
			<point x="353" y="39" type="line"/>
			<point x="382" y="303"/>
			<point x="392" y="511"/>
			<point x="389" y="758" type="curve"/>
			<point x="260" y="742" type="line"/>
			<point x="205" y="637" type="line"/>
			<point x="221" y="457"/>
			<point x="240" y="8"/>
		</contour>
		<contour>
			<point x="492" y="-39" type="curve"/>
			<point x="519" y="124" type="line"/>
			<point x="387" y="152"/>
			<point x="211" y="147"/>
			<point x="40" y="75" type="curve"/>
			<point x="51" y="-12" type="line"/>
			<point x="166" y="7"/>
			<point x="339" y="6"/>
		</contour>
		<contour>
			<point x="65" y="472" type="line"/>
			<point x="328" y="691" type="line"/>
			<point x="260" y="742" type="line"/>
			<point x="39" y="606" type="line"/>
		</contour>
	</outline>
</glyph>
<glyph name="two" format="2">
	<advance width="669.5"/>
	<unicode hex="0032"/>
	<outline>
		<contour>
			<point x="36" y="70" type="curve"/>
			<point x="138" y="57" type="line"/>
			<point x="468" y="301"/>
			<point x="602" y="445"/>
			<point x="602" y="566" type="curve" smooth="yes"/>
			<point x="602" y="713"/>
			<point x="478" y="758"/>
			<point x="330" y="758" type="curve" smooth="yes"/>
			<point x="242" y="758"/>
			<point x="166" y="742"/>
			<point x="82" y="717" type="curve"/>
			<point x="110" y="555" type="line"/>
			<point x="181" y="607"/>
			<point x="237" y="643"/>
			<point x="311" y="643" type="curve" smooth="yes"/>
			<point x="372" y="643"/>
			<point x="423" y="619"/>
			<point x="423" y="557" type="curve" smooth="yes"/>
			<point x="423" y="443"/>
			<point x="232" y="223"/>
		</contour>
		<contour>
			<point x="602" y="-36" type="curve"/>
			<point x="634" y="130" type="line"/>
			<point x="469" y="146"/>
			<point x="230" y="153"/>
			<point x="36" y="70" type="curve"/>
			<point x="49" y="-12" type="line"/>
			<point x="195" y="8"/>
			<point x="420" y="4"/>
		</contour>
	</outline>
</glyph>
<glyph name="three" format="2">
	<advance width="665.5"/>
	<unicode hex="0033"/>
	<outline>
		<contour>
			<point x="127" y="379" type="curve"/>
			<point x="151" y="265" type="line"/>
			<point x="395" y="322"/>
			<point x="542" y="455"/>
			<point x="542" y="574" type="curve" smooth="yes"/>
			<point x="542" y="676"/>
			<point x="462" y="759"/>
			<point x="324" y="759" type="curve" smooth="yes"/>
			<point x="231" y="759"/>
			<point x="131" y="741"/>
			<point x="53" y="717" type="curve"/>
			<point x="72" y="553" type="line"/>
			<point x="153" y="606"/>
			<point x="245" y="632"/>
			<point x="316" y="632" type="curve" smooth="yes"/>
			<point x="393" y="632"/>
			<point x="417" y="597"/>
			<point x="417" y="560" type="curve" smooth="yes"/>
			<point x="417" y="489"/>
			<point x="312" y="414"/>
		</contour>
		<contour>
			<point x="245" y="-15" type="curve" smooth="yes"/>
			<point x="497" y="-15"/>
			<point x="617" y="85"/>
			<point x="617" y="196" type="curve" smooth="yes"/>
			<point x="617" y="288"/>
			<point x="544" y="371"/>
			<point x="395" y="371" type="curve" smooth="yes"/>
			<point x="353" y="371"/>
			<point x="306" y="366"/>
			<point x="252" y="353" type="curve"/>
			<point x="156" y="266" type="line"/>
			<point x="184" y="274"/>
			<point x="231" y="281"/>
			<point x="280" y="281" type="curve" smooth="yes"/>
			<point x="390" y="281"/>
			<point x="446" y="235"/>
			<point x="446" y="189" type="curve" smooth="yes"/>
			<point x="446" y="142"/>
			<point x="390" y="92"/>
			<point x="276" y="92" type="curve" smooth="yes"/>
			<point x="225" y="92"/>
			<point x="145" y="106"/>
			<point x="48" y="141" type="curve"/>
			<point x="36" y="11" type="line"/>
			<point x="111" y="-7"/>
			<point x="184" y="-15"/>
		</contour>
	</outline>
</glyph>
<glyph name="four" format="2">
	<advance width="696"/>
	<unicode hex="0034"/>
	<outline>
		<contour>
			<point x="36" y="263" type="curve"/>
			<point x="113" y="238" type="line"/>
			<point x="284" y="343"/>
			<point x="464" y="597"/>
			<point x="454" y="722" type="curve"/>
			<point x="309" y="708" type="line"/>
			<point x="309" y="602"/>
			<point x="191" y="374"/>
		</contour>
		<contour>
			<point x="573" y="158" type="curve"/>
			<point x="614" y="327" type="line"/>
			<point x="436" y="336"/>
			<point x="261" y="334"/>
			<point x="36" y="263" type="curve"/>
			<point x="49" y="177" type="line"/>
			<point x="189" y="196"/>
			<point x="389" y="197"/>
		</contour>
		<contour>
			<point x="475" y="-4" type="curve"/>
			<point x="609" y="22" type="line"/>
			<point x="633" y="249"/>
			<point x="635" y="362"/>
			<point x="623" y="578" type="curve"/>
			<point x="441" y="544" type="line"/>
			<point x="479" y="308"/>
			<point x="478" y="222"/>
		</contour>
	</outline>
</glyph>
<glyph name="five" format="2">
	<advance width="620.5"/>
	<unicode hex="0035"/>
	<outline>
		<contour>
			<point x="223" y="-15" type="curve" smooth="yes"/>
			<point x="400" y="-15"/>
			<point x="572" y="37"/>
			<point x="572" y="210" type="curve" smooth="yes"/>
			<point x="572" y="418"/>
			<point x="342" y="446"/>
			<point x="169" y="403" type="curve"/>
			<point x="95" y="323" type="line"/>
			<point x="219" y="348"/>
			<point x="408" y="341"/>
			<point x="408" y="207" type="curve" smooth="yes"/>
			<point x="408" y="125"/>
			<point x="319" y="103"/>
			<point x="238" y="103" type="curve" smooth="yes"/>
			<point x="186" y="103"/>
			<point x="109" y="120"/>
			<point x="49" y="138" type="curve"/>
			<point x="39" y="8" type="line"/>
			<point x="102" y="-7"/>
			<point x="180" y="-15"/>
		</contour>
		<contour>
			<point x="79" y="319" type="curve"/>
			<point x="221" y="351" type="line"/>
			<point x="190" y="483"/>
			<point x="175" y="560"/>
			<point x="179" y="699" type="curve"/>
			<point x="45" y="720" type="line"/>
			<point x="31" y="638"/>
			<point x="51" y="427"/>
		</contour>
		<contour>
			<point x="517" y="582" type="curve"/>
			<point x="483" y="747" type="line"/>
			<point x="313" y="705"/>
			<point x="195" y="698"/>
			<point x="45" y="720" type="curve"/>
			<point x="45" y="635" type="line"/>
			<point x="267" y="572"/>
			<point x="338" y="578"/>
		</contour>
	</outline>
</glyph>
<glyph name="six" format="2">
	<advance width="689"/>
	<unicode hex="0036"/>
	<outline>
		<contour>
			<point x="338" y="-10" type="curve" smooth="yes"/>
			<point x="488" y="-10"/>
			<point x="641" y="85"/>
			<point x="641" y="262" type="curve" smooth="yes"/>
			<point x="641" y="435"/>
			<point x="516" y="507"/>
			<point x="364" y="507" type="curve" smooth="yes"/>
			<point x="292" y="507"/>
			<point x="214" y="490"/>
			<point x="141" y="461" type="curve"/>
			<point x="149" y="304" type="line"/>
			<point x="205" y="382"/>
			<point x="278" y="421"/>
			<point x="342" y="421" type="curve" smooth="yes"/>
			<point x="416" y="421"/>
			<point x="478" y="368"/>
			<point x="478" y="267" type="curve" smooth="yes"/>
			<point x="478" y="167"/>
			<point x="421" y="94"/>
			<point x="345" y="94" type="curve" smooth="yes"/>
			<point x="288" y="94"/>
			<point x="212" y="143"/>
			<point x="212" y="270" type="curve" smooth="yes"/>
			<point x="212" y="426"/>
			<point x="345" y="617"/>
			<point x="481" y="712" type="curve"/>
			<point x="376" y="760" type="line"/>
			<point x="139" y="614"/>
			<point x="49" y="427"/>
			<point x="49" y="274" type="curve" smooth="yes"/>
			<point x="49" y="80"/>
			<point x="192" y="-10"/>
		</contour>
	</outline>
</glyph>
<glyph name="seven" format="2">
	<advance width="643.5"/>
	<unicode hex="0037"/>
	<outline>
		<contour>
			<point x="113" y="-14" type="curve"/>
			<point x="328" y="1" type="line"/>
			<point x="351" y="128"/>
			<point x="420" y="305"/>
			<point x="608" y="649" type="curve"/>
			<point x="555" y="682" type="line"/>
			<point x="289" y="314"/>
			<point x="140" y="117"/>
		</contour>
		<contour>
			<point x="68" y="759" type="curve"/>
			<point x="36" y="586" type="line"/>
			<point x="201" y="575"/>
			<point x="389" y="568"/>
			<point x="608" y="649" type="curve"/>
			<point x="596" y="732" type="line"/>
			<point x="463" y="714"/>
			<point x="257" y="712"/>
		</contour>
	</outline>
</glyph>
<glyph name="eight" format="2">
	<advance width="689"/>
	<unicode hex="0038"/>
	<outline>
		<contour>
			<point x="329" y="-10" type="curve" smooth="yes"/>
			<point x="482" y="-10"/>
			<point x="641" y="70"/>
			<point x="641" y="219" type="curve" smooth="yes"/>
			<point x="641" y="361"/>
			<point x="490" y="438"/>
			<point x="341" y="438" type="curve" smooth="yes"/>
			<point x="194" y="438"/>
			<point x="49" y="364"/>
			<point x="49" y="209" type="curve" smooth="yes"/>
			<point x="49" y="61"/>
			<point x="187" y="-10"/>
		</contour>
		<contour>
			<point x="345" y="62" type="curve" smooth="yes"/>
			<point x="275" y="62"/>
			<point x="210" y="106"/>
			<point x="210" y="199" type="curve" smooth="yes"/>
			<point x="210" y="300"/>
			<point x="275" y="348"/>
			<point x="345" y="348" type="curve" smooth="yes"/>
			<point x="415" y="348"/>
			<point x="487" y="296"/>
			<point x="487" y="197" type="curve" smooth="yes"/>
			<point x="487" y="109"/>
			<point x="415" y="62"/>
		</contour>
		<contour>
			<point x="328" y="353" type="curve" smooth="yes"/>
			<point x="466" y="353"/>
			<point x="608" y="424"/>
			<point x="608" y="558" type="curve" smooth="yes"/>
			<point x="608" y="684"/>
			<point x="471" y="752"/>
			<point x="333" y="752" type="curve" smooth="yes"/>
			<point x="201" y="752"/>
			<point x="70" y="688"/>
			<point x="70" y="549" type="curve" smooth="yes"/>
			<point x="70" y="416"/>
			<point x="197" y="353"/>
		</contour>
		<contour>
			<point x="338" y="438" type="curve" smooth="yes"/>
			<point x="278" y="438"/>
			<point x="221" y="476"/>
			<point x="221" y="562" type="curve" smooth="yes"/>
			<point x="221" y="638"/>
			<point x="281" y="682"/>
			<point x="340" y="682" type="curve" smooth="yes"/>
			<point x="402" y="682"/>
			<point x="464" y="640"/>
			<point x="464" y="560" type="curve" smooth="yes"/>
			<point x="464" y="482"/>
			<point x="400" y="438"/>
		</contour>
	</outline>
</glyph>
<glyph name="nine" format="2">
	<advance width="689"/>
	<unicode hex="0039"/>
	<outline>
		<contour>
			<point x="209" y="38" type="curve"/>
			<point x="313" y="-10" type="line"/>
			<point x="550" y="136"/>
			<point x="641" y="323"/>
			<point x="641" y="476" type="curve" smooth="yes"/>
			<point x="641" y="670"/>
			<point x="497" y="760"/>
			<point x="351" y="760" type="curve" smooth="yes"/>
			<point x="201" y="760"/>
			<point x="49" y="665"/>
			<point x="49" y="488" type="curve" smooth="yes"/>
			<point x="49" y="315"/>
			<point x="173" y="243"/>
			<point x="326" y="243" type="curve" smooth="yes"/>
			<point x="397" y="243"/>
			<point x="475" y="260"/>
			<point x="548" y="289" type="curve"/>
			<point x="541" y="446" type="line"/>
			<point x="484" y="368"/>
			<point x="410" y="329"/>
			<point x="347" y="329" type="curve" smooth="yes"/>
			<point x="272" y="329"/>
			<point x="211" y="382"/>
			<point x="211" y="483" type="curve" smooth="yes"/>
			<point x="211" y="583"/>
			<point x="268" y="656"/>
			<point x="344" y="656" type="curve" smooth="yes"/>
			<point x="400" y="656"/>
			<point x="477" y="607"/>
			<point x="477" y="480" type="curve" smooth="yes"/>
			<point x="477" y="324"/>
			<point x="345" y="133"/>
		</contour>
	</outline>
</glyph>
<glyph name="equal" format="2">
	<advance width="466"/>
	<unicode hex="003D"/>
	<outline>
		<contour>
			<point x="430" y="183" type="curve"/>
			<point x="427" y="329" type="line"/>
			<point x="310" y="331"/>
			<point x="173" y="326"/>
			<point x="55" y="313" type="curve"/>
			<point x="54" y="201" type="line"/>
			<point x="174" y="203"/>
			<point x="311" y="197"/>
		</contour>
		<contour>
			<point x="39" y="529" type="curve"/>
			<point x="36" y="383" type="line"/>
			<point x="155" y="397"/>
			<point x="292" y="403"/>
			<point x="412" y="401" type="curve"/>
			<point x="411" y="513" type="line"/>
			<point x="293" y="526"/>
			<point x="156" y="531"/>
		</contour>
	</outline>
</glyph>
<glyph name="greater" format="2">
	<advance width="463.5"/>
	<unicode hex="003E"/>
	<outline>
		<contour>
			<point x="423" y="297" type="line"/>
			<point x="428" y="402" type="line"/>
			<point x="84" y="627" type="line"/>
			<point x="36" y="496" type="line"/>
		</contour>
		<contour>
			<point x="93" y="48" type="line"/>
			<point x="423" y="297" type="line"/>
			<point x="371" y="383" type="line"/>
			<point x="46" y="187" type="line"/>
		</contour>
	</outline>
</glyph>
<glyph name="question" format="2">
	<advance width="519.5"/>
	<unicode hex="003F"/>
	<outline>
		<contour>
			<point x="133" y="192" type="curve"/>
			<point x="238" y="179" type="line"/>
			<point x="238" y="370"/>
			<point x="471" y="377"/>
			<point x="471" y="579" type="curve" smooth="yes"/>
			<point x="471" y="698"/>
			<point x="386" y="757"/>
			<point x="268" y="757" type="curve" smooth="yes"/>
			<point x="195" y="757"/>
			<point x="114" y="733"/>
			<point x="36" y="699" type="curve"/>
			<point x="97" y="527" type="line"/>
			<point x="156" y="582"/>
			<point x="206" y="621"/>
			<point x="253" y="621" type="curve" smooth="yes"/>
			<point x="283" y="621"/>
			<point x="318" y="608"/>
			<point x="318" y="556" type="curve" smooth="yes"/>
			<point x="318" y="439"/>
			<point x="138" y="420"/>
		</contour>
		<contour>
			<point x="117" y="2" type="curve"/>
			<point x="245" y="-7" type="line"/>
			<point x="251" y="34"/>
			<point x="255" y="91"/>
			<point x="250" y="130" type="curve"/>
			<point x="120" y="135" type="line"/>
			<point x="125" y="90"/>
			<point x="122" y="44"/>
		</contour>
	</outline>
</glyph>
<glyph name="at" format="2">
	<advance width="976"/>
	<unicode hex="0040"/>
	<outline>
		<contour>
			<point x="489" y="-85" type="curve"/>
			<point x="508" y="25" type="line"/>
			<point x="248" y="30"/>
			<point x="146" y="190"/>
			<point x="146" y="340" type="curve" smooth="yes"/>
			<point x="146" y="504"/>
			<point x="262" y="690"/>
			<point x="507" y="690" type="curve" smooth="yes"/>
			<point x="745" y="690"/>
			<point x="827" y="542"/>
			<point x="827" y="421" type="curve" smooth="yes"/>
			<point x="827" y="300"/>
			<point x="774" y="251"/>
			<point x="721" y="251" type="curve" smooth="yes"/>
			<point x="670" y="251"/>
			<point x="654" y="339"/>
			<point x="654" y="396" type="curve" smooth="yes"/>
			<point x="654" y="455"/>
			<point x="668" y="508"/>
			<point x="691" y="591" type="curve"/>
			<point x="548" y="597" type="line"/>
			<point x="527" y="548"/>
			<point x="508" y="458"/>
			<point x="508" y="369" type="curve" smooth="yes"/>
			<point x="508" y="244"/>
			<point x="547" y="122"/>
			<point x="676" y="122" type="curve" smooth="yes"/>
			<point x="794" y="122"/>
			<point x="927" y="240"/>
			<point x="927" y="409" type="curve" smooth="yes"/>
			<point x="927" y="585"/>
			<point x="797" y="765"/>
			<point x="499" y="765" type="curve" smooth="yes"/>
			<point x="210" y="765"/>
			<point x="49" y="559"/>
			<point x="49" y="345" type="curve" smooth="yes"/>
			<point x="49" y="124"/>
			<point x="206" y="-85"/>
		</contour>
		<contour>
			<point x="366" y="146" type="curve" smooth="yes"/>
			<point x="460" y="146"/>
			<point x="571" y="240"/>
			<point x="604" y="427" type="curve"/>
			<point x="565" y="450" type="line"/>
			<point x="550" y="337"/>
			<point x="483" y="255"/>
			<point x="429" y="255" type="curve" smooth="yes"/>
			<point x="388" y="255"/>
			<point x="368" y="291"/>
			<point x="368" y="335" type="curve" smooth="yes"/>
			<point x="368" y="426"/>
			<point x="445" y="538"/>
			<point x="555" y="530" type="curve"/>
			<point x="549" y="597" type="line"/>
			<point x="341" y="594"/>
			<point x="225" y="424"/>
			<point x="225" y="296" type="curve" smooth="yes"/>
			<point x="225" y="213"/>
			<point x="270" y="146"/>
		</contour>
	</outline>
</glyph>
<glyph name="A" format="2">
	<advance width="762"/>
	<unicode hex="0041"/>
	<anchor x="386" y="0" name="bottom"/>
	<anchor x="637" y="16" name="ogonek"/>
	<anchor x="412" y="800" name="top"/>
	<outline>
		<contour>
			<point x="498" y="-3" type="curve"/>
			<point x="671" y="14" type="line"/>
			<point x="727" y="435"/>
			<point x="661" y="766"/>
			<point x="410" y="766" type="curve" smooth="yes"/>
			<point x="134" y="766"/>
			<point x="49" y="442"/>
			<point x="75" y="-7" type="curve"/>
			<point x="267" y="11" type="line"/>
			<point x="237" y="252"/>
			<point x="235" y="688"/>
			<point x="411" y="688" type="curve" smooth="yes"/>
			<point x="601" y="688"/>
			<point x="521" y="136"/>
		</contour>
		<contour>
			<point x="170" y="284" type="curve"/>
			<point x="134" y="181" type="line"/>
			<point x="313" y="160"/>
			<point x="489" y="160"/>
			<point x="626" y="204" type="curve"/>
			<point x="616" y="276" type="line"/>
			<point x="495" y="257"/>
			<point x="332" y="236"/>
		</contour>
	</outline>
</glyph>
<glyph name="B" format="2">
	<advance width="765.5"/>
	<unicode hex="0042"/>
	<outline>
		<contour>
			<point x="218" y="373" type="curve"/>
			<point x="249" y="307" type="line"/>
			<point x="544" y="378"/>
			<point x="653" y="491"/>
			<point x="653" y="626" type="curve" smooth="yes"/>
			<point x="653" y="722"/>
			<point x="594" y="784"/>
			<point x="490" y="784" type="curve" smooth="yes"/>
			<point x="378" y="784"/>
			<point x="260" y="710"/>
			<point x="211" y="583" type="curve"/>
			<point x="233" y="516" type="line"/>
			<point x="274" y="609"/>
			<point x="361" y="646"/>
			<point x="421" y="646" type="curve" smooth="yes"/>
			<point x="470" y="646"/>
			<point x="503" y="617"/>
			<point x="503" y="578" type="curve" smooth="yes"/>
			<point x="503" y="510"/>
			<point x="455" y="443"/>
		</contour>
		<contour>
			<point x="96" y="-6" type="curve"/>
			<point x="245" y="0" type="line"/>
			<point x="269" y="285"/>
			<point x="272" y="449"/>
			<point x="265" y="758" type="curve"/>
			<point x="71" y="728" type="line"/>
			<point x="99" y="486"/>
			<point x="105" y="268"/>
		</contour>
		<contour>
			<point x="205" y="91" type="curve"/>
			<point x="245" y="0" type="line"/>
			<point x="582" y="16"/>
			<point x="717" y="129"/>
			<point x="717" y="277" type="curve" smooth="yes"/>
			<point x="717" y="471"/>
			<point x="437" y="462"/>
			<point x="251" y="353" type="curve"/>
			<point x="247" y="298" type="line"/>
			<point x="347" y="330"/>
			<point x="541" y="358"/>
			<point x="541" y="237" type="curve" smooth="yes"/>
			<point x="541" y="155"/>
			<point x="427" y="91"/>
		</contour>
	</outline>
</glyph>
<glyph name="C" format="2">
	<advance width="697.5"/>
	<unicode hex="0043"/>
	<anchor x="442" y="-2" name="bottom"/>
	<anchor x="462" y="28" name="cedilla"/>
	<anchor x="468" y="800" name="top"/>
	<outline>
		<contour>
			<point x="426" y="-2" type="curve" smooth="yes"/>
			<point x="497" y="-2"/>
			<point x="569" y="13"/>
			<point x="636" y="50" type="curve"/>
			<point x="635" y="131" type="line"/>
			<point x="579" y="104"/>
			<point x="524" y="90"/>
			<point x="456" y="90" type="curve" smooth="yes"/>
			<point x="343" y="90"/>
			<point x="232" y="162"/>
			<point x="232" y="349" type="curve" smooth="yes"/>
			<point x="232" y="499"/>
			<point x="338" y="609"/>
			<point x="482" y="609" type="curve" smooth="yes"/>
			<point x="534" y="609"/>
			<point x="590" y="600"/>
			<point x="644" y="576" type="curve"/>
			<point x="662" y="700" type="line"/>
			<point x="608" y="731"/>
			<point x="535" y="748"/>
			<point x="458" y="748" type="curve" smooth="yes"/>
			<point x="266" y="748"/>
			<point x="49" y="638"/>
			<point x="49" y="356" type="curve" smooth="yes"/>
			<point x="49" y="138"/>
			<point x="229" y="-2"/>
		</contour>
	</outline>
</glyph>
<glyph name="D" format="2">
	<advance width="776"/>
	<unicode hex="0044"/>
	<anchor x="242" y="0" name="bottom"/>
	<anchor x="242" y="325" name="center"/>
	<anchor x="397" y="800" name="top"/>
	<outline>
		<contour>
			<point x="117" y="551" type="curve"/>
			<point x="170" y="469" type="line"/>
			<point x="258" y="618"/>
			<point x="368" y="651"/>
			<point x="443" y="651" type="curve" smooth="yes"/>
			<point x="528" y="651"/>
			<point x="564" y="572"/>
			<point x="564" y="498" type="curve" smooth="yes"/>
			<point x="564" y="365"/>
			<point x="441" y="172"/>
			<point x="234" y="88" type="curve"/>
			<point x="245" y="0" type="line"/>
			<point x="545" y="101"/>
			<point x="727" y="330"/>
			<point x="727" y="510" type="curve" smooth="yes"/>
			<point x="727" y="656"/>
			<point x="641" y="758"/>
			<point x="498" y="758" type="curve" smooth="yes"/>
			<point x="373" y="758"/>
			<point x="228" y="703"/>
		</contour>
		<contour>
			<point x="96" y="-6" type="curve"/>
			<point x="245" y="0" type="line"/>
			<point x="269" y="285"/>
			<point x="272" y="449"/>
			<point x="265" y="758" type="curve"/>
			<point x="71" y="728" type="line"/>
			<point x="99" y="490"/>
			<point x="105" y="271"/>
		</contour>
	</outline>
</glyph>
<glyph name="E" format="2">
	<advance width="638"/>
	<unicode hex="0045"/>
	<anchor x="350" y="-30" name="bottom"/>
	<anchor x="565" y="7" name="ogonek"/>
	<anchor x="350" y="800" name="top"/>
	<outline>
		<contour>
			<point x="89" y="14" type="curve"/>
			<point x="235" y="38" type="line"/>
			<point x="260" y="313"/>
			<point x="267" y="448"/>
			<point x="259" y="727" type="curve"/>
			<point x="71" y="736" type="line"/>
			<point x="99" y="490"/>
			<point x="101" y="280"/>
		</contour>
		<contour>
			<point x="602" y="-5" type="curve"/>
			<point x="602" y="122" type="line"/>
			<point x="446" y="103"/>
			<point x="251" y="94"/>
			<point x="136" y="102" type="curve"/>
			<point x="89" y="14" type="line"/>
			<point x="240" y="2"/>
			<point x="490" y="-5"/>
		</contour>
		<contour>
			<point x="481" y="306" type="curve"/>
			<point x="478" y="414" type="line"/>
			<point x="397" y="412"/>
			<point x="290" y="407"/>
			<point x="183" y="393" type="curve"/>
			<point x="184" y="308" type="line"/>
			<point x="304" y="318"/>
			<point x="397" y="319"/>
		</contour>
		<contour>
			<point x="584" y="634" type="curve"/>
			<point x="584" y="770" type="line"/>
			<point x="475" y="767"/>
			<point x="189" y="749"/>
			<point x="71" y="736" type="curve"/>
			<point x="159" y="644" type="line"/>
			<point x="235" y="648"/>
			<point x="428" y="661"/>
		</contour>
	</outline>
</glyph>
<glyph name="F" format="2">
	<advance width="604"/>
	<unicode hex="0046"/>
	<outline>
		<contour>
			<point x="89" y="4" type="curve"/>
			<point x="235" y="28" type="line"/>
			<point x="260" y="304"/>
			<point x="272" y="448"/>
			<point x="265" y="727" type="curve"/>
			<point x="71" y="736" type="line"/>
			<point x="99" y="490"/>
			<point x="101" y="270"/>
		</contour>
		<contour>
			<point x="466" y="306" type="curve"/>
			<point x="466" y="414" type="line"/>
			<point x="389" y="405"/>
			<point x="293" y="405"/>
			<point x="182" y="404" type="curve"/>
			<point x="181" y="318" type="line"/>
			<point x="292" y="316"/>
			<point x="382" y="311"/>
		</contour>
		<contour>
			<point x="558" y="634" type="curve"/>
			<point x="568" y="770" type="line"/>
			<point x="463" y="767"/>
			<point x="186" y="749"/>
			<point x="71" y="736" type="curve"/>
			<point x="157" y="644" type="line"/>
			<point x="231" y="648"/>
			<point x="406" y="667"/>
		</contour>
	</outline>
</glyph>
<glyph name="G" format="2">
	<advance width="788"/>
	<unicode hex="0047"/>
	<anchor x="370" y="-30" name="bottom"/>
	<anchor x="493" y="800" name="top"/>
	<outline>
		<contour>
			<point x="370" y="0" type="curve" smooth="yes"/>
			<point x="535" y="0"/>
			<point x="740" y="144"/>
			<point x="740" y="316" type="curve" smooth="yes"/>
			<point x="740" y="425"/>
			<point x="670" y="478"/>
			<point x="574" y="478" type="curve" smooth="yes"/>
			<point x="518" y="478"/>
			<point x="451" y="460"/>
			<point x="379" y="418" type="curve"/>
			<point x="421" y="266" type="line"/>
			<point x="471" y="304"/>
			<point x="548" y="342"/>
			<point x="599" y="342" type="curve" smooth="yes"/>
			<point x="634" y="342"/>
			<point x="655" y="326"/>
			<point x="655" y="288" type="curve" smooth="yes"/>
			<point x="655" y="214"/>
			<point x="547" y="136"/>
			<point x="410" y="136" type="curve" smooth="yes"/>
			<point x="288" y="136"/>
			<point x="218" y="217"/>
			<point x="218" y="339" type="curve" smooth="yes"/>
			<point x="218" y="516"/>
			<point x="335" y="651"/>
			<point x="487" y="651" type="curve" smooth="yes"/>
			<point x="542" y="651"/>
			<point x="589" y="643"/>
			<point x="640" y="622" type="curve"/>
			<point x="640" y="729" type="line"/>
			<point x="588" y="746"/>
			<point x="536" y="754"/>
			<point x="487" y="754" type="curve" smooth="yes"/>
			<point x="222" y="754"/>
			<point x="49" y="518"/>
			<point x="49" y="312" type="curve" smooth="yes"/>
			<point x="49" y="147"/>
			<point x="143" y="0"/>
		</contour>
	</outline>
</glyph>
<glyph name="H" format="2">
	<advance width="827"/>
	<unicode hex="0048"/>
	<outline>
		<contour>
			<point x="96" y="-13" type="curve"/>
			<point x="239" y="13" type="line"/>
			<point x="268" y="275"/>
			<point x="274" y="505"/>
			<point x="265" y="762" type="curve"/>
			<point x="71" y="730" type="line"/>
			<point x="100" y="468"/>
			<point x="105" y="254"/>
		</contour>
		<contour>
			<point x="732" y="336" type="curve"/>
			<point x="697" y="440" type="line"/>
			<point x="544" y="380"/>
			<point x="236" y="388"/>
			<point x="125" y="402" type="curve"/>
			<point x="117" y="336" type="line"/>
			<point x="247" y="306"/>
			<point x="559" y="307"/>
		</contour>
		<contour>
			<point x="589" y="-11" type="curve"/>
			<point x="732" y="19" type="line"/>
			<point x="758" y="290"/>
			<point x="760" y="499"/>
			<point x="748" y="753" type="curve"/>
			<point x="554" y="717" type="line"/>
			<point x="591" y="435"/>
			<point x="593" y="281"/>
		</contour>
	</outline>
</glyph>
<glyph name="I" format="2">
	<advance width="341"/>
	<unicode hex="0049"/>
	<anchor x="181" y="-30" name="bottom"/>
	<anchor x="230" y="11" name="ogonek"/>
	<anchor x="154" y="800" name="top"/>
	<outline>
		<contour>
			<point x="96" y="-13" type="curve"/>
			<point x="238" y="13" type="line"/>
			<point x="267" y="275"/>
			<point x="275" y="503"/>
			<point x="265" y="761" type="curve"/>
			<point x="71" y="730" type="line"/>
			<point x="102" y="469"/>
			<point x="105" y="254"/>
		</contour>
	</outline>
</glyph>
<glyph name="J" format="2">
	<advance width="464"/>
	<unicode hex="004A"/>
	<anchor x="260" y="0" name="bottom"/>
	<anchor x="260" y="800" name="top"/>
	<outline>
		<contour>
			<point x="36" y="161" type="curve"/>
			<point x="48" y="-3" type="line"/>
			<point x="301" y="-13"/>
			<point x="383" y="141"/>
			<point x="390" y="408" type="curve" smooth="yes"/>
			<point x="394" y="519"/>
			<point x="390" y="645"/>
			<point x="386" y="768" type="curve"/>
			<point x="198" y="740" type="line"/>
			<point x="236" y="536"/>
			<point x="254" y="404"/>
			<point x="254" y="312" type="curve" smooth="yes"/>
			<point x="254" y="209"/>
			<point x="235" y="150"/>
			<point x="126" y="150" type="curve" smooth="yes"/>
			<point x="101" y="150"/>
			<point x="72" y="153"/>
		</contour>
	</outline>
</glyph>
<glyph name="K" format="2">
	<advance width="740"/>
	<unicode hex="004B"/>
	<anchor x="384" y="0" name="bottom"/>
	<anchor x="384" y="800" name="top"/>
	<outline>
		<contour>
			<point x="96" y="-13" type="curve"/>
			<point x="239" y="11" type="line"/>
			<point x="268" y="274"/>
			<point x="280" y="503"/>
			<point x="271" y="761" type="curve"/>
			<point x="71" y="734" type="line"/>
			<point x="102" y="474"/>
			<point x="105" y="254"/>
		</contour>
		<contour>
			<point x="232" y="241" type="curve"/>
			<point x="239" y="11" type="line"/>
			<point x="276" y="349"/>
			<point x="465" y="551"/>
			<point x="696" y="576" type="curve"/>
			<point x="687" y="750" type="line"/>
			<point x="451" y="703"/>
			<point x="275" y="454"/>
		</contour>
		<contour>
			<point x="513" y="0" type="curve"/>
			<point x="711" y="26" type="line"/>
			<point x="663" y="281"/>
			<point x="504" y="378"/>
			<point x="364" y="424" type="curve"/>
			<point x="304" y="320" type="line"/>
			<point x="409" y="295"/>
			<point x="499" y="160"/>
		</contour>
	</outline>
</glyph>
<glyph name="L" format="2">
	<advance width="582"/>
	<unicode hex="004C"/>
	<anchor x="341" y="-30" name="bottom"/>
	<anchor x="303" y="325" name="center"/>
	<anchor x="201" y="800" name="top"/>
	<anchor x="436" y="720" name="topright"/>
	<outline>
		<contour>
			<point x="91" y="20" type="curve"/>
			<point x="216" y="41" type="line"/>
			<point x="252" y="280"/>
			<point x="275" y="474"/>
			<point x="265" y="756" type="curve"/>
			<point x="71" y="745" type="line"/>
			<point x="115" y="465"/>
			<point x="113" y="286"/>
		</contour>
		<contour>
			<point x="546" y="15" type="curve"/>
			<point x="531" y="142" type="line"/>
			<point x="376" y="102"/>
			<point x="249" y="86"/>
			<point x="138" y="106" type="curve"/>
			<point x="91" y="20" type="line"/>
			<point x="231" y="-10"/>
			<point x="428" y="1"/>
		</contour>
	</outline>
</glyph>
<glyph name="M" format="2">
	<advance width="1225"/>
	<unicode hex="004D"/>
	<outline>
		<contour>
			<point x="96" y="-13" type="curve"/>
			<point x="239" y="13" type="line"/>
			<point x="270" y="296"/>
			<point x="273" y="492"/>
			<point x="265" y="761" type="curve"/>
			<point x="71" y="730" type="line"/>
			<point x="102" y="459"/>
			<point x="105" y="267"/>
		</contour>
		<contour>
			<point x="505" y="-7" type="curve"/>
			<point x="695" y="23" type="line"/>
			<point x="701" y="426"/>
			<point x="656" y="760"/>
			<point x="447" y="760" type="curve" smooth="yes"/>
			<point x="316" y="760"/>
			<point x="221" y="629"/>
			<point x="179" y="211" type="curve"/>
			<point x="258" y="228" type="line"/>
			<point x="274" y="500"/>
			<point x="339" y="665"/>
			<point x="425" y="665" type="curve" smooth="yes"/>
			<point x="549" y="665"/>
			<point x="531" y="213"/>
		</contour>
		<contour>
			<point x="963" y="-4" type="curve"/>
			<point x="1149" y="19" type="line"/>
			<point x="1169" y="370"/>
			<point x="1112" y="766"/>
			<point x="874" y="766" type="curve" smooth="yes"/>
			<point x="663" y="766"/>
			<point x="623" y="406"/>
			<point x="619" y="210" type="curve"/>
			<point x="695" y="23" type="line"/>
			<point x="712" y="293"/>
			<point x="733" y="665"/>
			<point x="851" y="665" type="curve" smooth="yes"/>
			<point x="975" y="665"/>
			<point x="986" y="210"/>
		</contour>
	</outline>
</glyph>
<glyph name="N" format="2">
	<advance width="863"/>
	<unicode hex="004E"/>
	<anchor x="434" y="-30" name="bottom"/>
	<anchor x="374" y="800" name="top"/>
	<outline>
		<contour>
			<point x="603" y="0" type="curve" smooth="yes"/>
			<point x="882" y="0"/>
			<point x="786" y="595"/>
			<point x="718" y="800" type="curve"/>
			<point x="538" y="752" type="line"/>
			<point x="599" y="539"/>
			<point x="708" y="86"/>
			<point x="583" y="86" type="curve" smooth="yes"/>
			<point x="473" y="86"/>
			<point x="343" y="475"/>
			<point x="270" y="735" type="curve"/>
			<point x="191" y="551" type="line"/>
			<point x="232" y="372"/>
			<point x="415" y="0"/>
		</contour>
		<contour>
			<point x="71" y="0" type="curve"/>
			<point x="263" y="-3" type="line"/>
			<point x="262" y="55"/>
			<point x="245" y="344"/>
			<point x="235" y="562" type="curve"/>
			<point x="270" y="735" type="line"/>
			<point x="80" y="708" type="line"/>
			<point x="95" y="480"/>
			<point x="91" y="230"/>
		</contour>
	</outline>
</glyph>
<glyph name="O" format="2">
	<advance width="824.5"/>
	<unicode hex="004F"/>
	<anchor x="413" y="-30" name="bottom"/>
	<anchor x="411" y="800" name="top"/>
	<outline>
		<contour>
			<point x="413" y="-13" type="curve" smooth="yes"/>
			<point x="652" y="-13"/>
			<point x="776" y="179"/>
			<point x="776" y="372" type="curve" smooth="yes"/>
			<point x="776" y="565"/>
			<point x="651" y="759"/>
			<point x="411" y="759" type="curve" smooth="yes"/>
			<point x="174" y="759"/>
			<point x="49" y="562"/>
			<point x="49" y="368" type="curve" smooth="yes"/>
			<point x="49" y="176"/>
			<point x="170" y="-13"/>
		</contour>
		<contour>
			<point x="424" y="148" type="curve" smooth="yes"/>
			<point x="293" y="148"/>
			<point x="216" y="283"/>
			<point x="216" y="428" type="curve" smooth="yes"/>
			<point x="216" y="568"/>
			<point x="281" y="691"/>
			<point x="426" y="691" type="curve" smooth="yes"/>
			<point x="562" y="691"/>
			<point x="639" y="566"/>
			<point x="639" y="428" type="curve" smooth="yes"/>
			<point x="639" y="291"/>
			<point x="567" y="148"/>
		</contour>
	</outline>
</glyph>
<glyph name="P" format="2">
	<advance width="706.5"/>
	<unicode hex="0050"/>
	<outline>
		<contour>
			<point x="96" y="-6" type="curve"/>
			<point x="245" y="0" type="line"/>
			<point x="269" y="285"/>
			<point x="272" y="449"/>
			<point x="265" y="758" type="curve"/>
			<point x="71" y="728" type="line"/>
			<point x="99" y="490"/>
			<point x="105" y="271"/>
		</contour>
		<contour>
			<point x="218" y="287" type="curve"/>
			<point x="249" y="215" type="line"/>
			<point x="546" y="307"/>
			<point x="658" y="438"/>
			<point x="658" y="593" type="curve" smooth="yes"/>
			<point x="658" y="707"/>
			<point x="598" y="786"/>
			<point x="490" y="786" type="curve" smooth="yes"/>
			<point x="396" y="786"/>
			<point x="272" y="704"/>
			<point x="214" y="555" type="curve"/>
			<point x="229" y="482" type="line"/>
			<point x="268" y="588"/>
			<point x="351" y="634"/>
			<point x="412" y="634" type="curve" smooth="yes"/>
			<point x="471" y="634"/>
			<point x="499" y="591"/>
			<point x="499" y="540" type="curve" smooth="yes"/>
			<point x="499" y="463"/>
			<point x="455" y="364"/>
		</contour>
	</outline>
</glyph>
<glyph name="Q" format="2">
	<advance width="824.5"/>
	<unicode hex="0051"/>
	<outline>
		<component base="O" yScale="-1" yOffset="750"/>
		<contour>
			<point x="577" y="-165" type="curve"/>
			<point x="705" y="-55" type="line"/>
			<point x="589" y="28"/>
			<point x="538" y="159"/>
			<point x="540" y="277" type="curve"/>
			<point x="455" y="289" type="line"/>
			<point x="433" y="111"/>
			<point x="458" y="-27"/>
		</contour>
	</outline>
</glyph>
<glyph name="R" format="2">
	<advance width="702"/>
	<unicode hex="0052"/>
	<anchor x="338" y="0" name="bottom"/>
	<anchor x="340" y="800" name="top"/>
	<outline>
		<contour>
			<point x="218" y="315" type="curve"/>
			<point x="249" y="245" type="line"/>
			<point x="546" y="335"/>
			<point x="658" y="458"/>
			<point x="658" y="609" type="curve" smooth="yes"/>
			<point x="658" y="709"/>
			<point x="598" y="781"/>
			<point x="490" y="781" type="curve" smooth="yes"/>
			<point x="396" y="781"/>
			<point x="272" y="704"/>
			<point x="214" y="555" type="curve"/>
			<point x="229" y="487" type="line"/>
			<point x="268" y="593"/>
			<point x="351" y="641"/>
			<point x="412" y="641" type="curve" smooth="yes"/>
			<point x="471" y="641"/>
			<point x="499" y="593"/>
			<point x="499" y="541" type="curve" smooth="yes"/>
			<point x="499" y="478"/>
			<point x="455" y="388"/>
		</contour>
		<contour>
			<point x="96" y="-6" type="curve"/>
			<point x="245" y="0" type="line"/>
			<point x="269" y="285"/>
			<point x="272" y="449"/>
			<point x="265" y="758" type="curve"/>
			<point x="71" y="728" type="line"/>
			<point x="99" y="486"/>
			<point x="105" y="268"/>
		</contour>
		<contour>
			<point x="475" y="-10" type="curve"/>
			<point x="673" y="14" type="line"/>
			<point x="621" y="248"/>
			<point x="467" y="313"/>
			<point x="321" y="344" type="curve"/>
			<point x="272" y="270" type="line"/>
			<point x="385" y="251"/>
			<point x="456" y="135"/>
		</contour>
	</outline>
</glyph>
<glyph name="S" format="2">
	<advance width="682.5"/>
	<unicode hex="0053"/>
	<anchor x="349" y="-41" name="bottom"/>
	<anchor x="359" y="19" name="cedilla"/>
	<anchor x="363" y="800" name="top"/>
	<outline>
		<contour>
			<point x="348" y="-11" type="curve" smooth="yes"/>
			<point x="527" y="-11"/>
			<point x="646" y="64"/>
			<point x="646" y="212" type="curve" smooth="yes"/>
			<point x="646" y="448"/>
			<point x="259" y="377"/>
			<point x="261" y="579" type="curve" smooth="yes"/>
			<point x="263" y="638"/>
			<point x="312" y="670"/>
			<point x="386" y="670" type="curve" smooth="yes"/>
			<point x="443" y="670"/>
			<point x="506" y="648"/>
			<point x="567" y="606" type="curve"/>
			<point x="595" y="701" type="line"/>
			<point x="541" y="744"/>
			<point x="450" y="768"/>
			<point x="361" y="768" type="curve" smooth="yes"/>
			<point x="218" y="768"/>
			<point x="76" y="708"/>
			<point x="76" y="570" type="curve" smooth="yes"/>
			<point x="76" y="371"/>
			<point x="448" y="379"/>
			<point x="448" y="227" type="curve" smooth="yes"/>
			<point x="448" y="157"/>
			<point x="383" y="106"/>
			<point x="312" y="106" type="curve" smooth="yes"/>
			<point x="238" y="106"/>
			<point x="163" y="126"/>
			<point x="61" y="176" type="curve"/>
			<point x="36" y="40" type="line"/>
			<point x="145" y="8"/>
			<point x="253" y="-11"/>
		</contour>
	</outline>
</glyph>
<glyph name="T" format="2">
	<advance width="719"/>
	<unicode hex="0054"/>
	<anchor x="362" y="-10" name="bottom"/>
	<anchor x="382" y="20" name="cedilla"/>
	<anchor x="362" y="800" name="top"/>
	<outline>
		<contour>
			<point x="289" y="-13" type="curve"/>
			<point x="433" y="13" type="line"/>
			<point x="461" y="275"/>
			<point x="469" y="503"/>
			<point x="459" y="761" type="curve"/>
			<point x="264" y="730" type="line"/>
			<point x="295" y="469"/>
			<point x="299" y="254"/>
		</contour>
		<contour>
			<point x="682" y="658" type="line"/>
			<point x="683" y="783" type="line"/>
			<point x="36" y="750" type="line"/>
			<point x="40" y="667" type="line"/>
		</contour>
	</outline>
</glyph>
<glyph name="U" format="2">
	<advance width="847"/>
	<unicode hex="0055"/>
	<anchor x="398" y="-30" name="bottom"/>
	<anchor x="731" y="16" name="ogonek"/>
	<anchor x="446" y="800" name="top"/>
	<outline>
		<contour>
			<point x="380" y="-8" type="curve" smooth="yes"/>
			<point x="640" y="-8"/>
			<point x="657" y="350"/>
			<point x="661" y="546" type="curve"/>
			<point x="580" y="738" type="line"/>
			<point x="595" y="535"/>
			<point x="596" y="84"/>
			<point x="406" y="84" type="curve" smooth="yes"/>
			<point x="230" y="84"/>
			<point x="233" y="678"/>
			<point x="249" y="768" type="curve"/>
			<point x="57" y="739" type="line"/>
			<point x="41" y="509"/>
			<point x="97" y="-8"/>
		</contour>
		<contour>
			<point x="594" y="-9" type="curve"/>
			<point x="741" y="17" type="line"/>
			<point x="772" y="305"/>
			<point x="780" y="520"/>
			<point x="773" y="767" type="curve"/>
			<point x="580" y="738" type="line"/>
			<point x="605" y="462"/>
			<point x="611" y="274"/>
		</contour>
	</outline>
</glyph>
<glyph name="V" format="2">
	<advance width="807"/>
	<unicode hex="0056"/>
	<outline>
		<contour>
			<point x="373" y="-8" type="curve"/>
			<point x="449" y="5" type="line"/>
			<point x="405" y="119" type="line"/>
			<point x="341" y="332"/>
			<point x="275" y="523"/>
			<point x="170" y="765" type="curve"/>
			<point x="36" y="740" type="line"/>
			<point x="190" y="449"/>
			<point x="279" y="245"/>
		</contour>
		<contour>
			<point x="361" y="87" type="curve"/>
			<point x="449" y="5" type="line"/>
			<point x="510" y="175"/>
			<point x="657" y="515"/>
			<point x="771" y="748" type="curve"/>
			<point x="559" y="767" type="line"/>
			<point x="473" y="536"/>
			<point x="412" y="342"/>
		</contour>
	</outline>
</glyph>
<glyph name="W" format="2">
	<advance width="1175.5"/>
	<unicode hex="0057"/>
	<anchor x="563" y="-38" name="bottom"/>
	<anchor x="609" y="800" name="top"/>
	<outline>
		<contour>
			<point x="805" y="-17" type="curve" smooth="yes"/>
			<point x="1103" y="-17"/>
			<point x="1124" y="476"/>
			<point x="1121" y="763" type="curve"/>
			<point x="918" y="730" type="line"/>
			<point x="955" y="450"/>
			<point x="943" y="77"/>
			<point x="792" y="77" type="curve" smooth="yes"/>
			<point x="645" y="77"/>
			<point x="686" y="538"/>
			<point x="705" y="732" type="curve"/>
			<point x="509" y="718" type="line"/>
			<point x="508" y="463"/>
			<point x="553" y="-17"/>
		</contour>
		<contour>
			<point x="352" y="-8" type="curve" smooth="yes"/>
			<point x="571" y="-8"/>
			<point x="589" y="330"/>
			<point x="593" y="526" type="curve"/>
			<point x="509" y="718" type="line"/>
			<point x="496" y="539"/>
			<point x="533" y="86"/>
			<point x="374" y="86" type="curve" smooth="yes"/>
			<point x="224" y="86"/>
			<point x="239" y="655"/>
			<point x="255" y="745" type="curve"/>
			<point x="58" y="732" type="line"/>
			<point x="41" y="482"/>
			<point x="87" y="-8"/>
		</contour>
	</outline>
</glyph>
<glyph name="X" format="2">
	<advance width="781.5"/>
	<unicode hex="0058"/>
	<outline>
		<contour>
			<point x="36" y="106" type="curve"/>
			<point x="123" y="-14" type="line"/>
			<point x="351" y="188"/>
			<point x="567" y="552"/>
			<point x="640" y="727" type="curve"/>
			<point x="573" y="759" type="line"/>
			<point x="478" y="560"/>
			<point x="307" y="327"/>
		</contour>
		<contour>
			<point x="522" y="-11" type="curve"/>
			<point x="746" y="35" type="line"/>
			<point x="623" y="267"/>
			<point x="375" y="621"/>
			<point x="190" y="764" type="curve"/>
			<point x="62" y="716" type="line"/>
			<point x="279" y="506"/>
			<point x="417" y="259"/>
		</contour>
	</outline>
</glyph>
<glyph name="Y" format="2">
	<advance width="742.5"/>
	<unicode hex="0059"/>
	<anchor x="359" y="-30" name="bottom"/>
	<anchor x="359" y="800" name="top"/>
	<outline>
		<contour>
			<point x="189" y="114" type="curve"/>
			<point x="201" y="-27" type="line"/>
			<point x="676" y="-47"/>
			<point x="678" y="323"/>
			<point x="669" y="768" type="curve"/>
			<point x="485" y="749" type="line"/>
			<point x="505" y="577"/>
			<point x="538" y="452"/>
			<point x="532" y="309" type="curve" smooth="yes"/>
			<point x="526" y="125"/>
			<point x="360" y="97"/>
		</contour>
		<contour>
			<point x="325" y="242" type="curve" smooth="yes"/>
			<point x="512" y="242"/>
			<point x="584" y="457"/>
			<point x="586" y="665" type="curve"/>
			<point x="485" y="749" type="line"/>
			<point x="502" y="554"/>
			<point x="499" y="333"/>
			<point x="357" y="333" type="curve" smooth="yes"/>
			<point x="217" y="333"/>
			<point x="208" y="576"/>
			<point x="240" y="759" type="curve"/>
			<point x="60" y="744" type="line"/>
			<point x="45" y="551"/>
			<point x="72" y="242"/>
		</contour>
	</outline>
</glyph>
<glyph name="Z" format="2">
	<advance width="717"/>
	<unicode hex="005A"/>
	<anchor x="369" y="-30" name="bottom"/>
	<anchor x="369" y="800" name="top"/>
	<outline>
		<contour>
			<point x="49" y="101" type="curve"/>
			<point x="148" y="29" type="line"/>
			<point x="359" y="176"/>
			<point x="570" y="477"/>
			<point x="668" y="677" type="curve"/>
			<point x="461" y="704" type="line"/>
			<point x="386" y="473"/>
			<point x="196" y="224"/>
		</contour>
		<contour>
			<point x="618" y="-24" type="curve"/>
			<point x="638" y="101" type="line"/>
			<point x="490" y="118"/>
			<point x="305" y="98"/>
			<point x="172" y="69" type="curve"/>
			<point x="49" y="101" type="line"/>
			<point x="58" y="-12" type="line"/>
			<point x="177" y="5"/>
			<point x="415" y="16"/>
		</contour>
		<contour>
			<point x="95" y="750" type="curve"/>
			<point x="75" y="632" type="line"/>
			<point x="292" y="623"/>
			<point x="473" y="638"/>
			<point x="668" y="677" type="curve"/>
			<point x="659" y="733" type="line"/>
			<point x="541" y="716"/>
			<point x="312" y="711"/>
		</contour>
	</outline>
</glyph>
<glyph name="bracketleft" format="2">
	<advance width="411.5"/>
	<unicode hex="005B"/>
	<outline>
		<contour>
			<point x="91" y="-103" type="curve"/>
			<point x="195" y="-85" type="line"/>
			<point x="218" y="200"/>
			<point x="222" y="484"/>
			<point x="208" y="769" type="curve"/>
			<point x="67" y="764" type="line"/>
			<point x="94" y="475"/>
			<point x="102" y="186"/>
		</contour>
		<contour>
			<point x="370" y="-110" type="line"/>
			<point x="376" y="9" type="line"/>
			<point x="95" y="-19" type="line"/>
			<point x="91" y="-103" type="line"/>
		</contour>
		<contour>
			<point x="366" y="648" type="line"/>
			<point x="370" y="777" type="line"/>
			<point x="67" y="764" type="line"/>
			<point x="106" y="674" type="line"/>
		</contour>
	</outline>
</glyph>
<glyph name="underscore" format="2">
	<advance width="456"/>
	<unicode hex="005F"/>
	<outline>
		<contour>
			<point x="20" y="16" type="curve"/>
			<point x="17" y="-114" type="line"/>
			<point x="157" y="-115"/>
			<point x="299" y="-109"/>
			<point x="439" y="-95" type="curve"/>
			<point x="438" y="8" type="line"/>
			<point x="299" y="3"/>
			<point x="159" y="6"/>
		</contour>
	</outline>
</glyph>
<glyph name="grave" format="2">
	<advance width="300"/>
	<unicode hex="0060"/>
	<anchor x="150" y="520" name="_top"/>
	<anchor x="150" y="700" name="top"/>
	<outline>
		<contour>
			<point x="148" y="550" type="line"/>
			<point x="192" y="585" type="line"/>
			<point x="21" y="782" type="line"/>
			<point x="-41" y="721" type="line"/>
		</contour>
	</outline>
</glyph>
<glyph name="a" format="2">
	<advance width="602"/>
	<unicode hex="0061"/>
	<anchor x="267" y="-36" name="bottom"/>
	<anchor x="485" y="5" name="ogonek"/>
	<anchor x="353" y="520" name="top"/>
	<outline>
		<contour>
			<point x="194" y="-14" type="curve" smooth="yes"/>
			<point x="300" y="-14"/>
			<point x="426" y="72"/>
			<point x="441" y="309" type="curve"/>
			<point x="382" y="271" type="line"/>
			<point x="383" y="162"/>
			<point x="315" y="109"/>
			<point x="257" y="109" type="curve" smooth="yes"/>
			<point x="215" y="109"/>
			<point x="187" y="147"/>
			<point x="187" y="194" type="curve" smooth="yes"/>
			<point x="187" y="241"/>
			<point x="229" y="326"/>
			<point x="417" y="365" type="curve"/>
			<point x="374" y="441" type="line"/>
			<point x="123" y="367"/>
			<point x="36" y="253"/>
			<point x="36" y="140" type="curve" smooth="yes"/>
			<point x="36" y="38"/>
			<point x="110" y="-14"/>
		</contour>
		<contour>
			<point x="409" y="-16" type="curve"/>
			<point x="528" y="12" type="line"/>
			<point x="521" y="140"/>
			<point x="524" y="278"/>
			<point x="543" y="458" type="curve"/>
			<point x="374" y="441" type="line"/>
			<point x="372" y="417"/>
			<point x="382" y="122"/>
		</contour>
	</outline>
</glyph>
<glyph name="b" format="2">
	<advance width="670"/>
	<unicode hex="0062"/>
	<outline>
		<contour>
			<point x="355" y="-11" type="curve" smooth="yes"/>
			<point x="503" y="-11"/>
			<point x="634" y="83"/>
			<point x="634" y="257" type="curve" smooth="yes"/>
			<point x="634" y="403"/>
			<point x="540" y="459"/>
			<point x="442" y="459" type="curve" smooth="yes"/>
			<point x="336" y="459"/>
			<point x="157" y="370"/>
			<point x="157" y="91" type="curve"/>
			<point x="194" y="53" type="line"/>
			<point x="206" y="266"/>
			<point x="317" y="345"/>
			<point x="378" y="345" type="curve" smooth="yes"/>
			<point x="440" y="345"/>
			<point x="467" y="278"/>
			<point x="467" y="228" type="curve" smooth="yes"/>
			<point x="467" y="143"/>
			<point x="418" y="79"/>
			<point x="306" y="79" type="curve" smooth="yes"/>
			<point x="265" y="79"/>
			<point x="192" y="96"/>
			<point x="146" y="115" type="curve"/>
			<point x="199" y="9" type="line"/>
			<point x="241" y="-1"/>
			<point x="311" y="-11"/>
		</contour>
		<contour>
			<point x="69" y="36" type="curve"/>
			<point x="199" y="9" type="line"/>
			<point x="235" y="286"/>
			<point x="244" y="557"/>
			<point x="239" y="808" type="curve"/>
			<point x="57" y="780" type="line"/>
			<point x="78" y="540"/>
			<point x="81" y="284"/>
		</contour>
	</outline>
</glyph>
<glyph name="c" format="2">
	<advance width="527"/>
	<unicode hex="0063"/>
	<anchor x="234" y="-1" name="bottom"/>
	<anchor x="351" y="20" name="cedilla"/>
	<anchor x="323" y="520" name="top"/>
	<outline>
		<contour>
			<point x="280" y="-6" type="curve" smooth="yes"/>
			<point x="362" y="-6"/>
			<point x="441" y="18"/>
			<point x="502" y="63" type="curve"/>
			<point x="492" y="143" type="line"/>
			<point x="448" y="107"/>
			<point x="390" y="83"/>
			<point x="333" y="83" type="curve" smooth="yes"/>
			<point x="262" y="83"/>
			<point x="216" y="125"/>
			<point x="216" y="188" type="curve" smooth="yes"/>
			<point x="216" y="312"/>
			<point x="329" y="372"/>
			<point x="461" y="361" type="curve"/>
			<point x="452" y="459" type="line"/>
			<point x="281" y="480"/>
			<point x="36" y="390"/>
			<point x="36" y="187" type="curve" smooth="yes"/>
			<point x="36" y="55"/>
			<point x="155" y="-6"/>
		</contour>
	</outline>
</glyph>
<glyph name="d" format="2">
	<advance width="604"/>
	<unicode hex="0064"/>
	<anchor x="109" y="0" name="bottom"/>
	<anchor x="224" y="260" name="center"/>
	<anchor x="445" y="800" name="top"/>
	<anchor x="636" y="750" name="topright"/>
	<outline>
		<contour>
			<point x="401" y="-7" type="curve"/>
			<point x="533" y="4" type="line"/>
			<point x="520" y="287"/>
			<point x="521" y="542"/>
			<point x="545" y="811" type="curve"/>
			<point x="364" y="786" type="line"/>
			<point x="359" y="527"/>
			<point x="366" y="272"/>
		</contour>
		<contour>
			<point x="194" y="-14" type="curve" smooth="yes"/>
			<point x="300" y="-14"/>
			<point x="421" y="72"/>
			<point x="435" y="309" type="curve"/>
			<point x="377" y="271" type="line"/>
			<point x="378" y="162"/>
			<point x="315" y="114"/>
			<point x="257" y="114" type="curve" smooth="yes"/>
			<point x="215" y="114"/>
			<point x="187" y="147"/>
			<point x="187" y="194" type="curve" smooth="yes"/>
			<point x="187" y="241"/>
			<point x="229" y="356"/>
			<point x="417" y="395" type="curve"/>
			<point x="374" y="471" type="line"/>
			<point x="123" y="397"/>
			<point x="36" y="253"/>
			<point x="36" y="140" type="curve" smooth="yes"/>
			<point x="36" y="38"/>
			<point x="110" y="-14"/>
		</contour>
	</outline>
</glyph>
<glyph name="e" format="2">
	<advance width="559"/>
	<unicode hex="0065"/>
	<anchor x="314" y="-29" name="bottom"/>
	<anchor x="443" y="-2" name="ogonek"/>
	<anchor x="323" y="520" name="top"/>
	<outline>
		<contour>
			<point x="443" y="-2" type="curve"/>
			<point x="455" y="75" type="line"/>
			<point x="290" y="41"/>
			<point x="192" y="106"/>
			<point x="192" y="232" type="curve" smooth="yes"/>
			<point x="192" y="303"/>
			<point x="256" y="375"/>
			<point x="317" y="375" type="curve" smooth="yes"/>
			<point x="372" y="375"/>
			<point x="390" y="337"/>
			<point x="390" y="306" type="curve" smooth="yes"/>
			<point x="390" y="255"/>
			<point x="348" y="228"/>
			<point x="293" y="228" type="curve" smooth="yes"/>
			<point x="239" y="228"/>
			<point x="200" y="240"/>
			<point x="173" y="256" type="curve"/>
			<point x="146" y="207" type="line"/>
			<point x="195" y="172"/>
			<point x="291" y="150"/>
			<point x="352" y="150" type="curve" smooth="yes"/>
			<point x="483" y="150"/>
			<point x="522" y="221"/>
			<point x="523" y="288" type="curve" smooth="yes"/>
			<point x="525" y="367"/>
			<point x="448" y="455"/>
			<point x="303" y="455" type="curve" smooth="yes"/>
			<point x="174" y="455"/>
			<point x="36" y="378"/>
			<point x="36" y="219" type="curve" smooth="yes"/>
			<point x="36" y="12"/>
			<point x="246" y="-21"/>
		</contour>
	</outline>
</glyph>
<glyph name="f" format="2">
	<advance width="429.5"/>
	<unicode hex="0066"/>
	<outline>
		<contour>
			<point x="66" y="0" type="curve"/>
			<point x="246" y="-2" type="line"/>
			<point x="221" y="156"/>
			<point x="197" y="357"/>
			<point x="188" y="443" type="curve" smooth="yes"/>
			<point x="171" y="605"/>
			<point x="251" y="637"/>
			<point x="396" y="611" type="curve"/>
			<point x="384" y="742" type="line"/>
			<point x="183" y="742"/>
			<point x="69" y="637"/>
			<point x="65" y="357" type="curve" smooth="yes"/>
			<point x="64" y="262"/>
			<point x="64" y="133"/>
		</contour>
		<contour>
			<point x="319" y="365" type="curve"/>
			<point x="332" y="448" type="line"/>
			<point x="228" y="465"/>
			<point x="134" y="465"/>
			<point x="16" y="454" type="curve"/>
			<point x="28" y="391" type="line"/>
			<point x="138" y="397"/>
			<point x="221" y="390"/>
		</contour>
	</outline>
</glyph>
<glyph name="g" format="2">
	<advance width="596"/>
	<unicode hex="0067"/>
	<anchor x="297" y="-337" name="bottom"/>
	<anchor x="323" y="520" name="top"/>
	<outline>
		<contour>
			<point x="109" y="-120" type="curve"/>
			<point x="60" y="-260" type="line"/>
			<point x="334" y="-333"/>
			<point x="521" y="-216"/>
			<point x="534" y="79" type="curve" smooth="yes"/>
			<point x="538" y="203"/>
			<point x="537" y="371"/>
			<point x="533" y="465" type="curve"/>
			<point x="368" y="461" type="line"/>
			<point x="395" y="227"/>
			<point x="404" y="119"/>
			<point x="411" y="2" type="curve" smooth="yes"/>
			<point x="419" y="-152"/>
			<point x="319" y="-221"/>
		</contour>
		<contour>
			<point x="194" y="-14" type="curve" smooth="yes"/>
			<point x="300" y="-14"/>
			<point x="435" y="72"/>
			<point x="449" y="309" type="curve"/>
			<point x="390" y="271" type="line"/>
			<point x="392" y="162"/>
			<point x="315" y="114"/>
			<point x="257" y="114" type="curve" smooth="yes"/>
			<point x="215" y="114"/>
			<point x="187" y="147"/>
			<point x="187" y="194" type="curve" smooth="yes"/>
			<point x="187" y="241"/>
			<point x="227" y="346"/>
			<point x="416" y="385" type="curve"/>
			<point x="368" y="461" type="line"/>
			<point x="117" y="387"/>
			<point x="36" y="253"/>
			<point x="36" y="140" type="curve" smooth="yes"/>
			<point x="36" y="38"/>
			<point x="110" y="-14"/>
		</contour>
	</outline>
</glyph>
<glyph name="h" format="2">
	<advance width="635"/>
	<unicode hex="0068"/>
	<outline>
		<contour>
			<point x="69" y="-8" type="curve"/>
			<point x="199" y="5" type="line"/>
			<point x="235" y="282"/>
			<point x="244" y="557"/>
			<point x="239" y="808" type="curve"/>
			<point x="57" y="780" type="line"/>
			<point x="78" y="540"/>
			<point x="81" y="240"/>
		</contour>
		<contour>
			<point x="399" y="-3" type="curve"/>
			<point x="576" y="-15" type="line"/>
			<point x="600" y="173"/>
			<point x="590" y="466"/>
			<point x="400" y="466" type="curve" smooth="yes"/>
			<point x="254" y="466"/>
			<point x="141" y="273"/>
			<point x="122" y="133" type="curve"/>
			<point x="199" y="5" type="line"/>
			<point x="220" y="224"/>
			<point x="293" y="373"/>
			<point x="363" y="373" type="curve" smooth="yes"/>
			<point x="458" y="373"/>
			<point x="441" y="151"/>
		</contour>
	</outline>
</glyph>
<glyph name="i" format="2">
	<advance width="296"/>
	<unicode hex="0069"/>
	<outline>
		<component base="dotlessi"/>
		<contour>
			<point x="62" y="521" type="curve"/>
			<point x="221" y="533" type="line"/>
			<point x="222" y="584"/>
			<point x="214" y="652"/>
			<point x="201" y="703" type="curve"/>
			<point x="43" y="678" type="line"/>
			<point x="52" y="626"/>
			<point x="61" y="577"/>
		</contour>
	</outline>
</glyph>
<glyph name="j" format="2">
	<advance width="312.5"/>
	<unicode hex="006A"/>
	<outline>
		<component base="uni0237"/>
		<contour>
			<point x="62" y="521" type="curve"/>
			<point x="221" y="533" type="line"/>
			<point x="222" y="584"/>
			<point x="214" y="652"/>
			<point x="201" y="703" type="curve"/>
			<point x="43" y="678" type="line"/>
			<point x="52" y="626"/>
			<point x="61" y="577"/>
		</contour>
	</outline>
</glyph>
<glyph name="k" format="2">
	<advance width="591.5"/>
	<unicode hex="006B"/>
	<anchor x="311" y="0" name="bottom"/>
	<anchor x="87" y="800" name="top"/>
	<outline>
		<contour>
			<point x="399" y="-8" type="curve"/>
			<point x="567" y="41" type="line"/>
			<point x="510" y="174"/>
			<point x="414" y="265"/>
			<point x="280" y="289" type="curve"/>
			<point x="228" y="217" type="line"/>
			<point x="311" y="172"/>
			<point x="360" y="122"/>
		</contour>
		<contour>
			<point x="186" y="152" type="curve"/>
			<point x="199" y="5" type="line"/>
			<point x="221" y="192"/>
			<point x="327" y="333"/>
			<point x="517" y="340" type="curve"/>
			<point x="515" y="491" type="line"/>
			<point x="337" y="447"/>
			<point x="218" y="313"/>
		</contour>
		<contour>
			<point x="69" y="-8" type="curve"/>
			<point x="199" y="5" type="line"/>
			<point x="235" y="282"/>
			<point x="244" y="557"/>
			<point x="239" y="808" type="curve"/>
			<point x="57" y="780" type="line"/>
			<point x="78" y="540"/>
			<point x="81" y="240"/>
		</contour>
	</outline>
</glyph>
<glyph name="l" format="2">
	<advance width="300"/>
	<unicode hex="006C"/>
	<anchor x="132" y="-40" name="bottom"/>
	<anchor x="148" y="830" name="top"/>
	<anchor x="323" y="760" name="topright"/>
	<outline>
		<contour>
			<point x="69" y="-8" type="curve"/>
			<point x="200" y="5" type="line"/>
			<point x="235" y="282"/>
			<point x="245" y="557"/>
			<point x="239" y="808" type="curve"/>
			<point x="57" y="780" type="line"/>
			<point x="78" y="540"/>
			<point x="81" y="240"/>
		</contour>
	</outline>
</glyph>
<glyph name="m" format="2">
	<advance width="945"/>
	<unicode hex="006D"/>
	<outline>
		<contour>
			<point x="387" y="2" type="curve"/>
			<point x="557" y="-6" type="line"/>
			<point x="590" y="197"/>
			<point x="570" y="466"/>
			<point x="381" y="466" type="curve" smooth="yes"/>
			<point x="245" y="466"/>
			<point x="165" y="290"/>
			<point x="155" y="166" type="curve"/>
			<point x="230" y="0" type="line"/>
			<point x="245" y="217"/>
			<point x="271" y="377"/>
			<point x="344" y="377" type="curve" smooth="yes"/>
			<point x="417" y="377"/>
			<point x="429" y="180"/>
		</contour>
		<contour>
			<point x="57" y="-10" type="curve"/>
			<point x="230" y="0" type="line"/>
			<point x="239" y="161"/>
			<point x="234" y="289"/>
			<point x="208" y="466" type="curve"/>
			<point x="72" y="438" type="line"/>
			<point x="86" y="290"/>
			<point x="79" y="141"/>
		</contour>
		<contour>
			<point x="702" y="3" type="curve"/>
			<point x="886" y="-8" type="line"/>
			<point x="913" y="204"/>
			<point x="896" y="465"/>
			<point x="716" y="465" type="curve" smooth="yes"/>
			<point x="613" y="465"/>
			<point x="529" y="377"/>
			<point x="509" y="270" type="curve"/>
			<point x="567" y="98" type="line"/>
			<point x="571" y="260"/>
			<point x="606" y="372"/>
			<point x="667" y="372" type="curve" smooth="yes"/>
			<point x="751" y="372"/>
			<point x="748" y="178"/>
		</contour>
	</outline>
</glyph>
<glyph name="n" format="2">
	<advance width="652.5"/>
	<unicode hex="006E"/>
	<anchor x="326" y="0" name="bottom"/>
	<anchor x="362" y="520" name="top"/>
	<outline>
		<contour>
			<point x="417" y="1" type="curve"/>
			<point x="593" y="-10" type="line"/>
			<point x="618" y="179"/>
			<point x="607" y="466"/>
			<point x="418" y="466" type="curve" smooth="yes"/>
			<point x="279" y="466"/>
			<point x="177" y="282"/>
			<point x="171" y="133" type="curve"/>
			<point x="220" y="0" type="line"/>
			<point x="241" y="221"/>
			<point x="310" y="373"/>
			<point x="381" y="373" type="curve" smooth="yes"/>
			<point x="475" y="373"/>
			<point x="459" y="155"/>
		</contour>
		<contour>
			<point x="57" y="-12" type="curve"/>
			<point x="220" y="0" type="line"/>
			<point x="229" y="173"/>
			<point x="224" y="286"/>
			<point x="196" y="466" type="curve"/>
			<point x="71" y="438" type="line"/>
			<point x="86" y="292"/>
			<point x="81" y="147"/>
		</contour>
	</outline>
</glyph>
<glyph name="o" format="2">
	<advance width="569"/>
	<unicode hex="006F"/>
	<anchor x="280" y="-42" name="bottom"/>
	<anchor x="267" y="520" name="top"/>
	<outline>
		<contour>
			<point x="280" y="-12" type="curve" smooth="yes"/>
			<point x="448" y="-12"/>
			<point x="533" y="107"/>
			<point x="533" y="226" type="curve" smooth="yes"/>
			<point x="533" y="345"/>
			<point x="448" y="463"/>
			<point x="278" y="463" type="curve" smooth="yes"/>
			<point x="119" y="463"/>
			<point x="36" y="343"/>
			<point x="36" y="223" type="curve" smooth="yes"/>
			<point x="36" y="105"/>
			<point x="117" y="-12"/>
		</contour>
		<contour>
			<point x="276" y="61" type="curve" smooth="yes"/>
			<point x="219" y="61"/>
			<point x="179" y="127"/>
			<point x="179" y="202" type="curve" smooth="yes"/>
			<point x="179" y="266"/>
			<point x="213" y="330"/>
			<point x="276" y="330" type="curve" smooth="yes"/>
			<point x="340" y="330"/>
			<point x="373" y="267"/>
			<point x="373" y="204" type="curve" smooth="yes"/>
			<point x="373" y="133"/>
			<point x="344" y="61"/>
		</contour>
	</outline>
</glyph>
<glyph name="p" format="2">
	<advance width="615"/>
	<unicode hex="0070"/>
	<outline>
		<contour>
			<point x="57" y="-305" type="curve"/>
			<point x="239" y="-286" type="line"/>
			<point x="244" y="-27"/>
			<point x="239" y="168"/>
			<point x="203" y="458" type="curve"/>
			<point x="71" y="438" type="line"/>
			<point x="83" y="155"/>
			<point x="82" y="-36"/>
		</contour>
		<contour>
			<point x="186" y="52" type="curve"/>
			<point x="210" y="-34" type="line"/>
			<point x="502" y="38"/>
			<point x="579" y="182"/>
			<point x="579" y="295" type="curve" smooth="yes"/>
			<point x="579" y="397"/>
			<point x="503" y="459"/>
			<point x="417" y="459" type="curve" smooth="yes"/>
			<point x="308" y="459"/>
			<point x="185" y="363"/>
			<point x="170" y="126" type="curve"/>
			<point x="231" y="155" type="line"/>
			<point x="231" y="266"/>
			<point x="302" y="331"/>
			<point x="374" y="331" type="curve" smooth="yes"/>
			<point x="418" y="331"/>
			<point x="443" y="298"/>
			<point x="443" y="258" type="curve" smooth="yes"/>
			<point x="443" y="189"/>
			<point x="386" y="105"/>
		</contour>
	</outline>
</glyph>
<glyph name="q" format="2">
	<advance width="590"/>
	<unicode hex="0071"/>
	<outline>
		<contour>
			<point x="194" y="-11" type="curve" smooth="yes"/>
			<point x="300" y="-11"/>
			<point x="413" y="72"/>
			<point x="427" y="309" type="curve"/>
			<point x="370" y="269" type="line"/>
			<point x="360" y="160"/>
			<point x="313" y="111"/>
			<point x="257" y="111" type="curve" smooth="yes"/>
			<point x="215" y="111"/>
			<point x="186" y="143"/>
			<point x="186" y="192" type="curve" smooth="yes"/>
			<point x="186" y="249"/>
			<point x="243" y="333"/>
			<point x="432" y="368" type="curve"/>
			<point x="389" y="444" type="line"/>
			<point x="139" y="370"/>
			<point x="36" y="253"/>
			<point x="36" y="140" type="curve" smooth="yes"/>
			<point x="36" y="38"/>
			<point x="110" y="-11"/>
		</contour>
		<contour>
			<point x="350" y="-308" type="curve"/>
			<point x="531" y="-278" type="line"/>
			<point x="506" y="-38"/>
			<point x="507" y="208"/>
			<point x="519" y="456" type="curve"/>
			<point x="389" y="444" type="line"/>
			<point x="354" y="167"/>
			<point x="340" y="-57"/>
		</contour>
	</outline>
</glyph>
<glyph name="r" format="2">
	<advance width="524"/>
	<unicode hex="0072"/>
	<anchor x="149" y="-30" name="bottom"/>
	<anchor x="341" y="520" name="top"/>
	<outline>
		<contour>
			<point x="190" y="140" type="curve"/>
			<point x="220" y="-9" type="line"/>
			<point x="240" y="259"/>
			<point x="285" y="370"/>
			<point x="462" y="283" type="curve"/>
			<point x="487" y="449" type="line"/>
			<point x="334" y="523"/>
			<point x="199" y="369"/>
		</contour>
		<contour>
			<point x="57" y="1" type="curve"/>
			<point x="220" y="-9" type="line"/>
			<point x="230" y="164"/>
			<point x="229" y="284"/>
			<point x="201" y="464" type="curve"/>
			<point x="71" y="437" type="line"/>
			<point x="86" y="290"/>
			<point x="81" y="160"/>
		</contour>
	</outline>
</glyph>
<glyph name="s" format="2">
	<advance width="472"/>
	<unicode hex="0073"/>
	<anchor x="221" y="-19" name="bottom"/>
	<anchor x="230" y="17" name="cedilla"/>
	<anchor x="219" y="520" name="top"/>
	<outline>
		<contour>
			<point x="232" y="-21" type="curve" smooth="yes"/>
			<point x="341" y="-21"/>
			<point x="436" y="10"/>
			<point x="436" y="108" type="curve" smooth="yes"/>
			<point x="436" y="251"/>
			<point x="208" y="223"/>
			<point x="208" y="323" type="curve" smooth="yes"/>
			<point x="208" y="350"/>
			<point x="231" y="370"/>
			<point x="261" y="370" type="curve" smooth="yes"/>
			<point x="293" y="370"/>
			<point x="335" y="355"/>
			<point x="374" y="315" type="curve"/>
			<point x="421" y="400" type="line"/>
			<point x="368" y="447"/>
			<point x="290" y="474"/>
			<point x="221" y="474" type="curve" smooth="yes"/>
			<point x="136" y="474"/>
			<point x="64" y="434"/>
			<point x="64" y="351" type="curve" smooth="yes"/>
			<point x="64" y="198"/>
			<point x="271" y="212"/>
			<point x="271" y="128" type="curve" smooth="yes"/>
			<point x="271" y="101"/>
			<point x="250" y="75"/>
			<point x="202" y="75" type="curve" smooth="yes"/>
			<point x="149" y="75"/>
			<point x="90" y="96"/>
			<point x="47" y="115" type="curve"/>
			<point x="36" y="7" type="line"/>
			<point x="93" y="-9"/>
			<point x="166" y="-21"/>
		</contour>
	</outline>
</glyph>
<glyph name="t" format="2">
	<advance width="431.5"/>
	<unicode hex="0074"/>
	<anchor x="287" y="-9" name="bottom"/>
	<anchor x="299" y="20" name="cedilla"/>
	<anchor x="182" y="787" name="top"/>
	<anchor x="354" y="707" name="topright"/>
	<outline>
		<contour>
			<point x="395" y="-1" type="curve"/>
			<point x="401" y="162" type="line"/>
			<point x="266" y="150"/>
			<point x="203" y="186"/>
			<point x="206" y="296" type="curve" smooth="yes"/>
			<point x="209" y="426"/>
			<point x="229" y="568"/>
			<point x="251" y="738" type="curve"/>
			<point x="76" y="717" type="line"/>
			<point x="74" y="589"/>
			<point x="75" y="455"/>
			<point x="79" y="324" type="curve" smooth="yes"/>
			<point x="84" y="108"/>
			<point x="154" y="-16"/>
		</contour>
		<contour>
			<point x="366" y="362" type="curve"/>
			<point x="380" y="457" type="line"/>
			<point x="268" y="469"/>
			<point x="128" y="463"/>
			<point x="4" y="436" type="curve"/>
			<point x="17" y="365" type="line"/>
			<point x="133" y="383"/>
			<point x="258" y="384"/>
		</contour>
	</outline>
</glyph>
<glyph name="u" format="2">
	<advance width="654"/>
	<unicode hex="0075"/>
	<anchor x="331" y="-50" name="bottom"/>
	<anchor x="581" y="13" name="ogonek"/>
	<anchor x="331" y="520" name="top"/>
	<outline>
		<contour>
			<point x="235" y="-14" type="curve" smooth="yes"/>
			<point x="373" y="-14"/>
			<point x="476" y="155"/>
			<point x="482" y="303" type="curve"/>
			<point x="433" y="452" type="line"/>
			<point x="412" y="232"/>
			<point x="342" y="79"/>
			<point x="272" y="79" type="curve" smooth="yes"/>
			<point x="177" y="79"/>
			<point x="194" y="306"/>
			<point x="236" y="460" type="curve"/>
			<point x="59" y="446" type="line"/>
			<point x="35" y="258"/>
			<point x="45" y="-14"/>
		</contour>
		<contour>
			<point x="457" y="-14" type="curve"/>
			<point x="581" y="13" type="line"/>
			<point x="566" y="160"/>
			<point x="572" y="305"/>
			<point x="595" y="465" type="curve"/>
			<point x="433" y="452" type="line"/>
			<point x="424" y="279"/>
			<point x="429" y="165"/>
		</contour>
	</outline>
</glyph>
<glyph name="v" format="2">
	<advance width="633"/>
	<unicode hex="0076"/>
	<outline>
		<contour>
			<point x="288" y="-9" type="curve"/>
			<point x="377" y="0" type="line"/>
			<point x="340" y="66" type="line"/>
			<point x="299" y="193"/>
			<point x="222" y="341"/>
			<point x="149" y="469" type="curve"/>
			<point x="25" y="451" type="line"/>
			<point x="151" y="278"/>
			<point x="218" y="147"/>
		</contour>
		<contour>
			<point x="287" y="60" type="curve"/>
			<point x="377" y="0" type="line"/>
			<point x="433" y="141"/>
			<point x="529" y="320"/>
			<point x="608" y="456" type="curve"/>
			<point x="426" y="471" type="line"/>
			<point x="376" y="351"/>
			<point x="326" y="218"/>
		</contour>
	</outline>
</glyph>
<glyph name="w" format="2">
	<advance width="965.5"/>
	<unicode hex="0077"/>
	<anchor x="395" y="-30" name="bottom"/>
	<anchor x="495" y="520" name="top"/>
	<outline>
		<contour>
			<point x="631" y="-18" type="curve" smooth="yes"/>
			<point x="919" y="-19"/>
			<point x="938" y="195"/>
			<point x="903" y="478" type="curve"/>
			<point x="717" y="453" type="line"/>
			<point x="775" y="260"/>
			<point x="775" y="56"/>
			<point x="647" y="56" type="curve" smooth="yes"/>
			<point x="517" y="56"/>
			<point x="523" y="247"/>
			<point x="581" y="445" type="curve"/>
			<point x="421" y="469" type="line"/>
			<point x="380" y="170"/>
			<point x="393" y="-17"/>
		</contour>
		<contour>
			<point x="245" y="-19" type="curve" smooth="yes"/>
			<point x="379" y="-19"/>
			<point x="436" y="133"/>
			<point x="448" y="199" type="curve"/>
			<point x="421" y="469" type="line"/>
			<point x="402" y="302"/>
			<point x="347" y="60"/>
			<point x="253" y="60" type="curve" smooth="yes"/>
			<point x="164" y="60"/>
			<point x="203" y="323"/>
			<point x="249" y="451" type="curve"/>
			<point x="61" y="478" type="line"/>
			<point x="32" y="249"/>
			<point x="42" y="-20"/>
		</contour>
	</outline>
</glyph>
<glyph name="x" format="2">
	<advance width="590"/>
	<unicode hex="0078"/>
	<outline>
		<contour>
			<point x="372" y="-5" type="curve"/>
			<point x="565" y="40" type="line"/>
			<point x="457" y="214"/>
			<point x="256" y="399"/>
			<point x="95" y="468" type="curve"/>
			<point x="25" y="397" type="line"/>
			<point x="136" y="317"/>
			<point x="294" y="173"/>
		</contour>
		<contour>
			<point x="27" y="81" type="curve"/>
			<point x="85" y="-17" type="line"/>
			<point x="236" y="109"/>
			<point x="412" y="275"/>
			<point x="489" y="432" type="curve"/>
			<point x="416" y="466" type="line"/>
			<point x="350" y="358"/>
			<point x="201" y="189"/>
		</contour>
	</outline>
</glyph>
<glyph name="y" format="2">
	<advance width="648"/>
	<unicode hex="0079"/>
	<anchor x="274" y="-347" name="bottom"/>
	<anchor x="343" y="520" name="top"/>
	<outline>
		<contour>
			<point x="118" y="-96" type="curve"/>
			<point x="51" y="-239" type="line"/>
			<point x="307" y="-335"/>
			<point x="509" y="-300"/>
			<point x="560" y="-30" type="curve" smooth="yes"/>
			<point x="585" y="105"/>
			<point x="593" y="299"/>
			<point x="587" y="482" type="curve"/>
			<point x="421" y="450" type="line"/>
			<point x="440" y="210"/>
			<point x="454" y="110"/>
			<point x="436" y="-27" type="curve" smooth="yes"/>
			<point x="409" y="-225"/>
			<point x="287" y="-220"/>
		</contour>
		<contour>
			<point x="236" y="-13" type="curve" smooth="yes"/>
			<point x="375" y="-13"/>
			<point x="473" y="161"/>
			<point x="478" y="311" type="curve"/>
			<point x="421" y="450" type="line"/>
			<point x="400" y="230"/>
			<point x="343" y="79"/>
			<point x="272" y="79" type="curve" smooth="yes"/>
			<point x="179" y="79"/>
			<point x="194" y="302"/>
			<point x="236" y="456" type="curve"/>
			<point x="60" y="458" type="line"/>
			<point x="35" y="269"/>
			<point x="51" y="-13"/>
		</contour>
	</outline>
</glyph>
<glyph name="z" format="2">
	<advance width="570"/>
	<unicode hex="007A"/>
	<anchor x="309" y="-20" name="bottom"/>
	<anchor x="309" y="520" name="top"/>
	<outline>
		<contour>
			<point x="43" y="74" type="curve"/>
			<point x="154" y="37" type="line"/>
			<point x="328" y="145"/>
			<point x="441" y="263"/>
			<point x="527" y="400" type="curve"/>
			<point x="344" y="422" type="line"/>
			<point x="279" y="297"/>
			<point x="179" y="172"/>
		</contour>
		<contour>
			<point x="475" y="-10" type="curve"/>
			<point x="501" y="93" type="line"/>
			<point x="379" y="100"/>
			<point x="242" y="82"/>
			<point x="142" y="65" type="curve"/>
			<point x="43" y="74" type="line"/>
			<point x="55" y="-2" type="line"/>
			<point x="167" y="5"/>
			<point x="297" y="15"/>
		</contour>
		<contour>
			<point x="70" y="474" type="curve"/>
			<point x="49" y="374" type="line"/>
			<point x="246" y="359"/>
			<point x="362" y="354"/>
			<point x="527" y="400" type="curve"/>
			<point x="514" y="457" type="line"/>
			<point x="410" y="440"/>
			<point x="249" y="430"/>
		</contour>
	</outline>
</glyph>
<glyph name="braceleft" format="2">
	<advance width="310.5"/>
	<unicode hex="007B"/>
	<outline>
		<contour>
			<point x="73" y="398" type="curve"/>
			<point x="73" y="303" type="line"/>
			<point x="151" y="312"/>
			<point x="199" y="350"/>
			<point x="199" y="410" type="curve" smooth="yes"/>
			<point x="199" y="472"/>
			<point x="147" y="514"/>
			<point x="147" y="593" type="curve" smooth="yes"/>
			<point x="147" y="665"/>
			<point x="229" y="685"/>
			<point x="275" y="659" type="curve"/>
			<point x="275" y="770" type="line"/>
			<point x="187" y="797"/>
			<point x="49" y="763"/>
			<point x="49" y="643" type="curve" smooth="yes"/>
			<point x="49" y="537"/>
			<point x="145" y="484"/>
			<point x="145" y="435" type="curve" smooth="yes"/>
			<point x="145" y="406"/>
			<point x="109" y="400"/>
		</contour>
		<contour>
			<point x="275" y="-69" type="curve"/>
			<point x="275" y="42" type="line"/>
			<point x="229" y="16"/>
			<point x="147" y="36"/>
			<point x="147" y="108" type="curve" smooth="yes"/>
			<point x="147" y="187"/>
			<point x="199" y="229"/>
			<point x="199" y="291" type="curve" smooth="yes"/>
			<point x="199" y="351"/>
			<point x="151" y="389"/>
			<point x="73" y="398" type="curve"/>
			<point x="73" y="303" type="line"/>
			<point x="109" y="301"/>
			<point x="145" y="295"/>
			<point x="145" y="266" type="curve" smooth="yes"/>
			<point x="145" y="217"/>
			<point x="49" y="164"/>
			<point x="49" y="58" type="curve" smooth="yes"/>
			<point x="49" y="-63"/>
			<point x="187" y="-96"/>
		</contour>
	</outline>
</glyph>
<glyph name="bar" format="2">
	<advance width="259"/>
	<unicode hex="007C"/>
	<outline>
		<contour>
			<point x="91" y="-210" type="curve"/>
			<point x="198" y="-203" type="line"/>
			<point x="214" y="143"/>
			<point x="213" y="468"/>
			<point x="197" y="774" type="curve"/>
			<point x="67" y="757" type="line"/>
			<point x="91" y="455"/>
			<point x="99" y="132"/>
		</contour>
	</outline>
</glyph>
<glyph name="asciitilde" format="2">
	<advance width="578"/>
	<unicode hex="007E"/>
	<outline>
		<contour>
			<point x="36" y="286" type="curve"/>
			<point x="165" y="276" type="line"/>
			<point x="163" y="350"/>
			<point x="183" y="382"/>
			<point x="212" y="382" type="curve" smooth="yes"/>
			<point x="285" y="382"/>
			<point x="311" y="276"/>
			<point x="402" y="276" type="curve" smooth="yes"/>
			<point x="451" y="276"/>
			<point x="542" y="325"/>
			<point x="542" y="451" type="curve"/>
			<point x="423" y="461" type="line"/>
			<point x="426" y="392"/>
			<point x="410" y="360"/>
			<point x="380" y="360" type="curve" smooth="yes"/>
			<point x="328" y="360"/>
			<point x="271" y="461"/>
			<point x="175" y="461" type="curve" smooth="yes"/>
			<point x="115" y="461"/>
			<point x="36" y="412"/>
		</contour>
	</outline>
</glyph>
<glyph name="cent" format="2">
	<advance width="527"/>
	<unicode hex="00A2"/>
	<outline>
		<contour>
			<point x="280" y="49" type="curve"/>
			<point x="362" y="49"/>
			<point x="441" y="72"/>
			<point x="502" y="118" type="curve"/>
			<point x="492" y="198" type="line"/>
			<point x="447" y="156"/>
			<point x="394" y="133"/>
			<point x="339" y="133" type="curve" smooth="yes"/>
			<point x="265" y="133"/>
			<point x="216" y="179"/>
			<point x="216" y="244" type="curve" smooth="yes"/>
			<point x="216" y="366"/>
			<point x="329" y="427"/>
			<point x="461" y="417" type="curve"/>
			<point x="452" y="514" type="line"/>
			<point x="280" y="535"/>
			<point x="36" y="445"/>
			<point x="36" y="242" type="curve" smooth="yes"/>
			<point x="36" y="110"/>
			<point x="155" y="49"/>
		</contour>
		<contour>
			<point x="253" y="436" type="line"/>
			<point x="347" y="447" type="line"/>
			<point x="369" y="706" type="line"/>
			<point x="243" y="689" type="line"/>
		</contour>
		<contour>
			<point x="243" y="-143" type="line"/>
			<point x="369" y="-126" type="line"/>
			<point x="359" y="117" type="line"/>
			<point x="265" y="106" type="line"/>
		</contour>
	</outline>
</glyph>
<glyph name="sterling" format="2">
	<advance width="664"/>
	<unicode hex="00A3"/>
	<outline>
		<contour>
			<point x="36" y="69" type="curve"/>
			<point x="113" y="37" type="line"/>
			<point x="309" y="124"/>
			<point x="351" y="239"/>
			<point x="351" y="310" type="curve" smooth="yes"/>
			<point x="351" y="408"/>
			<point x="265" y="478"/>
			<point x="265" y="562" type="curve" smooth="yes"/>
			<point x="265" y="613"/>
			<point x="308" y="642"/>
			<point x="363" y="642" type="curve" smooth="yes"/>
			<point x="431" y="642"/>
			<point x="527" y="610"/>
			<point x="600" y="556" type="curve"/>
			<point x="619" y="717" type="line"/>
			<point x="539" y="740"/>
			<point x="445" y="757"/>
			<point x="360" y="757" type="curve" smooth="yes"/>
			<point x="215" y="757"/>
			<point x="92" y="708"/>
			<point x="92" y="572" type="curve" smooth="yes"/>
			<point x="92" y="453"/>
			<point x="216" y="379"/>
			<point x="216" y="288" type="curve" smooth="yes"/>
			<point x="216" y="228"/>
			<point x="180" y="160"/>
		</contour>
		<contour>
			<point x="588" y="-39" type="curve"/>
			<point x="628" y="126" type="line"/>
			<point x="458" y="146"/>
			<point x="241" y="138"/>
			<point x="36" y="70" type="curve"/>
			<point x="49" y="-12" type="line"/>
			<point x="185" y="7"/>
			<point x="399" y="8"/>
		</contour>
		<contour>
			<point x="481" y="270" type="curve"/>
			<point x="478" y="383" type="line"/>
			<point x="339" y="371"/>
			<point x="198" y="365"/>
			<point x="58" y="367" type="curve"/>
			<point x="57" y="286" type="line"/>
			<point x="199" y="273"/>
			<point x="340" y="268"/>
		</contour>
	</outline>
</glyph>
<glyph name="yen" format="2">
	<advance width="627.5"/>
	<unicode hex="00A5"/>
	<outline>
		<contour>
			<point x="256" y="360" type="curve" smooth="yes"/>
			<point x="407" y="360"/>
			<point x="583" y="514"/>
			<point x="589" y="768" type="curve"/>
			<point x="427" y="751" type="line"/>
			<point x="447" y="635"/>
			<point x="429" y="439"/>
			<point x="300" y="439" type="curve" smooth="yes"/>
			<point x="162" y="439"/>
			<point x="179" y="640"/>
			<point x="218" y="760" type="curve"/>
			<point x="42" y="747" type="line"/>
			<point x="29" y="582"/>
			<point x="54" y="360"/>
		</contour>
		<contour>
			<point x="219" y="4" type="curve"/>
			<point x="372" y="-10" type="line"/>
			<point x="373" y="154"/>
			<point x="365" y="226"/>
			<point x="351" y="408" type="curve"/>
			<point x="234" y="390" type="line"/>
			<point x="237" y="244"/>
			<point x="230" y="152"/>
		</contour>
		<contour>
			<point x="515" y="274" type="curve"/>
			<point x="513" y="388" type="line"/>
			<point x="372" y="375"/>
			<point x="232" y="371"/>
			<point x="93" y="372" type="curve"/>
			<point x="92" y="291" type="line"/>
			<point x="233" y="279"/>
			<point x="373" y="273"/>
		</contour>
		<contour>
			<point x="75" y="240" type="curve"/>
			<point x="73" y="126" type="line"/>
			<point x="215" y="125"/>
			<point x="355" y="130"/>
			<point x="496" y="143" type="curve"/>
			<point x="495" y="224" type="line"/>
			<point x="356" y="222"/>
			<point x="216" y="227"/>
		</contour>
	</outline>
</glyph>
<glyph name="brokenbar" format="2">
	<advance width="286.5"/>
	<unicode hex="00A6"/>
	<outline>
		<contour>
			<point x="104" y="311" type="curve"/>
			<point x="219" y="335" type="line"/>
			<point x="220" y="475"/>
			<point x="214" y="634"/>
			<point x="199" y="774" type="curve"/>
			<point x="67" y="757" type="line"/>
			<point x="87" y="615"/>
			<point x="99" y="453"/>
		</contour>
		<contour>
			<point x="98" y="-210" type="curve"/>
			<point x="193" y="-203" type="line"/>
			<point x="209" y="-64"/>
			<point x="217" y="104"/>
			<point x="218" y="243" type="curve"/>
			<point x="106" y="241" type="line"/>
			<point x="111" y="101"/>
			<point x="108" y="-70"/>
		</contour>
	</outline>
</glyph>
<glyph name="section" format="2">
	<advance width="505"/>
	<unicode hex="00A7"/>
	<outline>
		<contour>
			<point x="247" y="-13" type="curve" smooth="yes"/>
			<point x="362" y="-13"/>
			<point x="476" y="26"/>
			<point x="476" y="128" type="curve" smooth="yes"/>
			<point x="476" y="302"/>
			<point x="164" y="288"/>
			<point x="164" y="383" type="curve" smooth="yes"/>
			<point x="164" y="412"/>
			<point x="189" y="451"/>
			<point x="268" y="458" type="curve"/>
			<point x="239" y="519" type="line"/>
			<point x="141" y="519"/>
			<point x="57" y="474"/>
			<point x="57" y="383" type="curve" smooth="yes"/>
			<point x="57" y="231"/>
			<point x="321" y="229"/>
			<point x="321" y="146" type="curve" smooth="yes"/>
			<point x="321" y="109"/>
			<point x="284" y="93"/>
			<point x="237" y="93" type="curve" smooth="yes"/>
			<point x="168" y="93"/>
			<point x="76" y="128"/>
			<point x="41" y="145" type="curve"/>
			<point x="28" y="17" type="line"/>
			<point x="87" y="1"/>
			<point x="180" y="-13"/>
		</contour>
		<contour>
			<point x="205" y="310" type="curve"/>
			<point x="247" y="233" type="line"/>
			<point x="362" y="233"/>
			<point x="476" y="272"/>
			<point x="476" y="374" type="curve" smooth="yes"/>
			<point x="476" y="538"/>
			<point x="174" y="510"/>
			<point x="174" y="631" type="curve" smooth="yes"/>
			<point x="174" y="664"/>
			<point x="207" y="678"/>
			<point x="228" y="678" type="curve" smooth="yes"/>
			<point x="290" y="678"/>
			<point x="354" y="629"/>
			<point x="407" y="581" type="curve"/>
			<point x="462" y="686" type="line"/>
			<point x="405" y="734"/>
			<point x="318" y="760"/>
			<point x="239" y="760" type="curve" smooth="yes"/>
			<point x="141" y="760"/>
			<point x="57" y="720"/>
			<point x="57" y="629" type="curve" smooth="yes"/>
			<point x="57" y="477"/>
			<point x="330" y="471"/>
			<point x="330" y="383" type="curve" smooth="yes"/>
			<point x="330" y="334"/>
			<point x="270" y="302"/>
		</contour>
	</outline>
</glyph>
<glyph name="copyright" format="2">
	<advance width="1018"/>
	<unicode hex="00A9"/>
	<anchor x="543" y="18" name="bottom"/>
	<anchor x="561" y="45" name="cedilla"/>
	<anchor x="566" y="740" name="top"/>
	<outline>
		<contour>
			<point x="518" y="-129" type="curve" smooth="yes"/>
			<point x="752" y="-129"/>
			<point x="970" y="66"/>
			<point x="970" y="372" type="curve" smooth="yes"/>
			<point x="970" y="640"/>
			<point x="761" y="801"/>
			<point x="498" y="801" type="curve" smooth="yes"/>
			<point x="237" y="801"/>
			<point x="49" y="630"/>
			<point x="49" y="362" type="curve" smooth="yes"/>
			<point x="49" y="62"/>
			<point x="286" y="-129"/>
		</contour>
		<contour>
			<point x="517" y="-37" type="curve"/>
			<point x="289" y="-37"/>
			<point x="136" y="114"/>
			<point x="136" y="359" type="curve" smooth="yes"/>
			<point x="136" y="576"/>
			<point x="280" y="720"/>
			<point x="493" y="720" type="curve" smooth="yes"/>
			<point x="707" y="720"/>
			<point x="884" y="592"/>
			<point x="884" y="376" type="curve" smooth="yes"/>
			<point x="884" y="121"/>
			<point x="745" y="-37"/>
		</contour>
		<contour>
			<point x="513" y="38" type="curve" smooth="yes"/>
			<point x="569" y="38"/>
			<point x="626" y="50"/>
			<point x="680" y="80" type="curve"/>
			<point x="680" y="145" type="line"/>
			<point x="635" y="123"/>
			<point x="590" y="113"/>
			<point x="536" y="113" type="curve" smooth="yes"/>
			<point x="446" y="113"/>
			<point x="357" y="170"/>
			<point x="357" y="319" type="curve" smooth="yes"/>
			<point x="357" y="439"/>
			<point x="442" y="527"/>
			<point x="556" y="527" type="curve" smooth="yes"/>
			<point x="598" y="527"/>
			<point x="644" y="520"/>
			<point x="687" y="502" type="curve"/>
			<point x="700" y="600" type="line"/>
			<point x="658" y="625"/>
			<point x="599" y="638"/>
			<point x="538" y="638" type="curve" smooth="yes"/>
			<point x="384" y="638"/>
			<point x="210" y="550"/>
			<point x="210" y="325" type="curve" smooth="yes"/>
			<point x="210" y="150"/>
			<point x="354" y="38"/>
		</contour>
	</outline>
</glyph>
<glyph name="logicalnot" format="2">
	<advance width="443"/>
	<unicode hex="00AC"/>
	<outline>
		<contour>
			<point x="393" y="213" type="curve"/>
			<point x="391" y="358" type="line"/>
			<point x="273" y="361"/>
			<point x="154" y="356"/>
			<point x="37" y="343" type="curve"/>
			<point x="36" y="231" type="line"/>
			<point x="155" y="233"/>
			<point x="273" y="227"/>
		</contour>
		<contour>
			<point x="261" y="92" type="curve"/>
			<point x="406" y="94" type="line"/>
			<point x="409" y="212"/>
			<point x="404" y="241"/>
			<point x="391" y="358" type="curve"/>
			<point x="279" y="359" type="line"/>
			<point x="281" y="240"/>
			<point x="275" y="212"/>
		</contour>
	</outline>
</glyph>
<glyph name="registered" format="2">
	<advance width="527"/>
	<unicode hex="00AE"/>
	<anchor x="264" y="459" name="bottom"/>
	<anchor x="265" y="739" name="top"/>
	<outline>
		<contour>
			<point x="268" y="372" type="curve" smooth="yes"/>
			<point x="379" y="372"/>
			<point x="479" y="462"/>
			<point x="479" y="603" type="curve" smooth="yes"/>
			<point x="479" y="727"/>
			<point x="383" y="801"/>
			<point x="259" y="801" type="curve" smooth="yes"/>
			<point x="136" y="801"/>
			<point x="49" y="722"/>
			<point x="49" y="598" type="curve" smooth="yes"/>
			<point x="49" y="460"/>
			<point x="159" y="372"/>
		</contour>
		<contour>
			<point x="268" y="415" type="curve"/>
			<point x="162" y="415"/>
			<point x="92" y="484"/>
			<point x="92" y="594" type="curve" smooth="yes"/>
			<point x="92" y="692"/>
			<point x="158" y="758"/>
			<point x="257" y="758" type="curve" smooth="yes"/>
			<point x="357" y="758"/>
			<point x="438" y="700"/>
			<point x="438" y="603" type="curve" smooth="yes"/>
			<point x="438" y="487"/>
			<point x="375" y="415"/>
		</contour>
		<contour>
			<point x="222" y="575" type="curve"/>
			<point x="232" y="544" type="line"/>
			<point x="336" y="576"/>
			<point x="375" y="619"/>
			<point x="375" y="672" type="curve" smooth="yes"/>
			<point x="375" y="707"/>
			<point x="354" y="733"/>
			<point x="317" y="733" type="curve" smooth="yes"/>
			<point x="284" y="733"/>
			<point x="240" y="712"/>
			<point x="223" y="648" type="curve"/>
			<point x="239" y="620" type="line"/>
			<point x="251" y="660"/>
			<point x="275" y="674"/>
			<point x="293" y="674" type="curve" smooth="yes"/>
			<point x="310" y="674"/>
			<point x="320" y="659"/>
			<point x="320" y="644" type="curve" smooth="yes"/>
			<point x="320" y="621"/>
			<point x="292" y="595"/>
		</contour>
		<contour>
			<point x="179" y="457" type="curve"/>
			<point x="236" y="459" type="line"/>
			<point x="245" y="559"/>
			<point x="245" y="616"/>
			<point x="242" y="724" type="curve"/>
			<point x="170" y="714" type="line"/>
			<point x="180" y="631"/>
			<point x="182" y="554"/>
		</contour>
		<contour>
			<point x="306" y="456" type="curve"/>
			<point x="381" y="464" type="line"/>
			<point x="362" y="546"/>
			<point x="309" y="568"/>
			<point x="258" y="579" type="curve"/>
			<point x="235" y="547" type="line"/>
			<point x="276" y="542"/>
			<point x="300" y="503"/>
		</contour>
	</outline>
</glyph>
<glyph name="macron" format="2">
	<advance width="300"/>
	<unicode hex="00AF"/>
	<anchor x="150" y="520" name="_top"/>
	<anchor x="150" y="700" name="top"/>
	<outline>
		<contour>
			<point x="272" y="549" type="line"/>
			<point x="284" y="611" type="line"/>
			<point x="32" y="633" type="line"/>
			<point x="16" y="554" type="line"/>
		</contour>
	</outline>
</glyph>
<glyph name="degree" format="2">
	<advance width="431"/>
	<unicode hex="00B0"/>
	<outline>
		<contour>
			<point x="205" y="444" type="curve" smooth="yes"/>
			<point x="324" y="444"/>
			<point x="382" y="526"/>
			<point x="382" y="606" type="curve" smooth="yes"/>
			<point x="382" y="684"/>
			<point x="328" y="760"/>
			<point x="225" y="760" type="curve" smooth="yes"/>
			<point x="107" y="760"/>
			<point x="49" y="679"/>
			<point x="49" y="599" type="curve" smooth="yes"/>
			<point x="49" y="521"/>
			<point x="104" y="444"/>
		</contour>
		<contour>
			<point x="211" y="527" type="curve" smooth="yes"/>
			<point x="161" y="527"/>
			<point x="135" y="565"/>
			<point x="135" y="602" type="curve" smooth="yes"/>
			<point x="135" y="639"/>
			<point x="160" y="677"/>
			<point x="211" y="677" type="curve" smooth="yes"/>
			<point x="269" y="677"/>
			<point x="298" y="639"/>
			<point x="298" y="602" type="curve" smooth="yes"/>
			<point x="298" y="565"/>
			<point x="269" y="527"/>
		</contour>
	</outline>
</glyph>
<glyph name="acute" format="2">
	<advance width="300"/>
	<unicode hex="00B4"/>
	<anchor x="150" y="520" name="_top"/>
	<anchor x="150" y="700" name="top"/>
	<outline>
		<contour>
			<point x="150" y="550" type="line"/>
			<point x="340" y="721" type="line"/>
			<point x="277" y="782" type="line"/>
			<point x="106" y="585" type="line"/>
		</contour>
	</outline>
</glyph>
<glyph name="uni00B5" format="2">
	<advance width="697"/>
	<unicode hex="00B5"/>
	<outline>
		<contour>
			<point x="61" y="-294" type="curve"/>
			<point x="191" y="-282" type="line"/>
			<point x="227" y="-5"/>
			<point x="235" y="210"/>
			<point x="231" y="461" type="curve"/>
			<point x="49" y="434" type="line"/>
			<point x="69" y="194"/>
			<point x="73" y="-46"/>
		</contour>
		<contour>
			<point x="370" y="-20" type="curve" smooth="yes"/>
			<point x="470" y="-20"/>
			<point x="510" y="95"/>
			<point x="522" y="232" type="curve"/>
			<point x="450" y="232" type="line"/>
			<point x="450" y="137"/>
			<point x="424" y="73"/>
			<point x="375" y="73" type="curve" smooth="yes"/>
			<point x="304" y="73"/>
			<point x="252" y="222"/>
			<point x="231" y="441" type="curve"/>
			<point x="153" y="313" type="line"/>
			<point x="168" y="173"/>
			<point x="245" y="-20"/>
		</contour>
		<contour>
			<point x="638" y="-26" type="curve"/>
			<point x="661" y="73" type="line"/>
			<point x="577" y="73"/>
			<point x="593" y="295"/>
			<point x="630" y="449" type="curve"/>
			<point x="451" y="436" type="line"/>
			<point x="429" y="273"/>
			<point x="449" y="-26"/>
		</contour>
	</outline>
</glyph>
<glyph name="paragraph" format="2">
	<advance width="736"/>
	<unicode hex="00B6"/>
	<outline>
		<contour>
			<point x="363" y="215" type="curve"/>
			<point x="395" y="465" type="line"/>
			<point x="383" y="704"/>
			<point x="283" y="798"/>
			<point x="196" y="798" type="curve" smooth="yes"/>
			<point x="104" y="798"/>
			<point x="49" y="704"/>
			<point x="49" y="591" type="curve" smooth="yes"/>
			<point x="49" y="447"/>
			<point x="139" y="271"/>
		</contour>
		<contour>
			<point x="380" y="18" type="curve"/>
			<point x="462" y="2" type="line"/>
			<point x="448" y="295"/>
			<point x="452" y="462"/>
			<point x="477" y="745" type="curve"/>
			<point x="338" y="767" type="line"/>
			<point x="338" y="429"/>
			<point x="341" y="343"/>
		</contour>
		<contour>
			<point x="549" y="2" type="curve"/>
			<point x="678" y="24" type="line"/>
			<point x="649" y="308"/>
			<point x="644" y="476"/>
			<point x="653" y="767" type="curve"/>
			<point x="577" y="751" type="line"/>
			<point x="542" y="426"/>
			<point x="539" y="340"/>
		</contour>
		<contour>
			<point x="647" y="633" type="curve"/>
			<point x="653" y="767" type="line"/>
			<point x="510" y="754"/>
			<point x="486" y="760"/>
			<point x="338" y="767" type="curve"/>
			<point x="337" y="679" type="line"/>
			<point x="496" y="670"/>
			<point x="507" y="658"/>
		</contour>
	</outline>
</glyph>
<glyph name="cedilla" format="2">
	<advance width="300"/>
	<unicode hex="00B8"/>
	<anchor x="165" y="12" name="_cedilla"/>
	<outline>
		<contour>
			<point x="87" y="-155" type="curve"/>
			<point x="86" y="-216" type="line"/>
			<point x="148" y="-228"/>
			<point x="252" y="-215"/>
			<point x="252" y="-129" type="curve" smooth="yes"/>
			<point x="252" y="-78"/>
			<point x="203" y="-30"/>
			<point x="118" y="-30" type="curve"/>
			<point x="82" y="-93" type="line"/>
			<point x="124" y="-91"/>
			<point x="214" y="-86"/>
			<point x="214" y="-131" type="curve" smooth="yes"/>
			<point x="214" y="-171"/>
			<point x="128" y="-165"/>
		</contour>
		<contour>
			<point x="77" y="-93" type="line"/>
			<point x="117" y="-88" type="line"/>
			<point x="188" y="15" type="line"/>
			<point x="123" y="11" type="line"/>
		</contour>
	</outline>
</glyph>
<glyph name="AE" format="2">
	<advance width="1076"/>
	<unicode hex="00C6"/>
	<anchor x="386" y="0" name="bottom"/>
	<anchor x="637" y="16" name="ogonek"/>
	<anchor x="412" y="800" name="top"/>
	<outline>
		<contour>
			<point x="501" y="1" type="curve"/>
			<point x="671" y="14" type="line"/>
			<point x="727" y="435"/>
			<point x="661" y="766"/>
			<point x="410" y="766" type="curve" smooth="yes"/>
			<point x="134" y="766"/>
			<point x="49" y="452"/>
			<point x="75" y="3" type="curve"/>
			<point x="267" y="16" type="line"/>
			<point x="237" y="257"/>
			<point x="235" y="688"/>
			<point x="411" y="688" type="curve" smooth="yes"/>
			<point x="601" y="688"/>
			<point x="525" y="139"/>
		</contour>
		<contour>
			<point x="170" y="395" type="curve"/>
			<point x="134" y="290" type="line"/>
			<point x="313" y="269"/>
			<point x="489" y="270"/>
			<point x="626" y="314" type="curve"/>
			<point x="616" y="388" type="line"/>
			<point x="495" y="369"/>
			<point x="332" y="347"/>
		</contour>
		<contour>
			<point x="1040" y="-5" type="curve"/>
			<point x="1040" y="122" type="line"/>
			<point x="885" y="103"/>
			<point x="664" y="81"/>
			<point x="548" y="89" type="curve"/>
			<point x="501" y="1" type="line"/>
			<point x="623" y="-11"/>
			<point x="928" y="-5"/>
		</contour>
		<contour>
			<point x="919" y="309" type="curve"/>
			<point x="916" y="417" type="line"/>
			<point x="835" y="415"/>
			<point x="727" y="410"/>
			<point x="621" y="396" type="curve"/>
			<point x="621" y="310" type="line"/>
			<point x="742" y="320"/>
			<point x="836" y="321"/>
		</contour>
		<contour>
			<point x="1021" y="634" type="curve"/>
			<point x="1021" y="770" type="line"/>
			<point x="914" y="767"/>
			<point x="606" y="766"/>
			<point x="410" y="766" type="curve"/>
			<point x="509" y="671" type="line"/>
			<point x="597" y="672"/>
			<point x="846" y="665"/>
		</contour>
	</outline>
</glyph>
<glyph name="Eth" format="2">
	<advance width="776"/>
	<unicode hex="00D0"/>
	<outline>
		<component base="D"/>
		<contour>
			<point x="2" y="288" type="line"/>
			<point x="415" y="302" type="line"/>
			<point x="415" y="381" type="line"/>
			<point x="4" y="394" type="line"/>
		</contour>
	</outline>
</glyph>
<glyph name="multiply" format="2">
	<advance width="523"/>
	<unicode hex="00D7"/>
	<outline>
		<contour>
			<point x="387" y="130" type="curve"/>
			<point x="487" y="235" type="line"/>
			<point x="399" y="326"/>
			<point x="234" y="484"/>
			<point x="135" y="565" type="curve"/>
			<point x="56" y="487" type="line"/>
			<point x="147" y="397"/>
			<point x="304" y="231"/>
		</contour>
		<contour>
			<point x="36" y="240" type="curve"/>
			<point x="141" y="140" type="line"/>
			<point x="232" y="227"/>
			<point x="390" y="392"/>
			<point x="471" y="491" type="curve"/>
			<point x="392" y="571" type="line"/>
			<point x="302" y="480"/>
			<point x="136" y="322"/>
		</contour>
	</outline>
</glyph>
<glyph name="Thorn" format="2">
	<advance width="698"/>
	<unicode hex="00DE"/>
	<outline>
		<contour>
			<point x="75" y="-11" type="curve"/>
			<point x="269" y="19" type="line"/>
			<point x="241" y="258"/>
			<point x="234" y="485"/>
			<point x="244" y="762" type="curve"/>
			<point x="94" y="742" type="line"/>
			<point x="69" y="453"/>
			<point x="68" y="301"/>
		</contour>
		<contour>
			<point x="174" y="255" type="curve"/>
			<point x="190" y="170" type="line"/>
			<point x="488" y="184"/>
			<point x="649" y="296"/>
			<point x="649" y="421" type="curve" smooth="yes"/>
			<point x="649" y="523"/>
			<point x="555" y="601"/>
			<point x="425" y="601" type="curve" smooth="yes"/>
			<point x="367" y="601"/>
			<point x="304" y="590"/>
			<point x="223" y="561" type="curve"/>
			<point x="205" y="493" type="line"/>
			<point x="311" y="520"/>
			<point x="479" y="543"/>
			<point x="479" y="427" type="curve" smooth="yes"/>
			<point x="479" y="332"/>
			<point x="368" y="255"/>
		</contour>
	</outline>
</glyph>
<glyph name="germandbls" format="2">
	<advance width="681"/>
	<unicode hex="00DF"/>
	<outline>
		<contour>
			<point x="95" y="-13" type="curve"/>
			<point x="237" y="2" type="line"/>
			<point x="234" y="153"/>
			<point x="234" y="344"/>
			<point x="241" y="500" type="curve" smooth="yes"/>
			<point x="248" y="671"/>
			<point x="310" y="740"/>
			<point x="373" y="740" type="curve" smooth="yes"/>
			<point x="425" y="740"/>
			<point x="461" y="696"/>
			<point x="461" y="622" type="curve" smooth="yes"/>
			<point x="461" y="545"/>
			<point x="406" y="475"/>
			<point x="301" y="444" type="curve"/>
			<point x="309" y="377" type="line"/>
			<point x="481" y="384"/>
			<point x="614" y="484"/>
			<point x="614" y="606" type="curve" smooth="yes"/>
			<point x="614" y="741"/>
			<point x="499" y="796"/>
			<point x="373" y="796" type="curve" smooth="yes"/>
			<point x="224" y="796"/>
			<point x="75" y="692"/>
			<point x="75" y="465" type="curve" smooth="yes"/>
			<point x="75" y="356"/>
			<point x="83" y="201"/>
		</contour>
		<contour>
			<point x="317" y="92" type="curve"/>
			<point x="331" y="9" type="line"/>
			<point x="496" y="9"/>
			<point x="631" y="116"/>
			<point x="631" y="259" type="curve" smooth="yes"/>
			<point x="631" y="445"/>
			<point x="429" y="439"/>
			<point x="316" y="417" type="curve"/>
			<point x="309" y="377" type="line"/>
			<point x="362" y="382"/>
			<point x="485" y="359"/>
			<point x="485" y="250" type="curve" smooth="yes"/>
			<point x="485" y="176"/>
			<point x="435" y="112"/>
		</contour>
	</outline>
</glyph>
<glyph name="ae" format="2">
	<advance width="882.5"/>
	<unicode hex="00E6"/>
	<anchor x="273" y="-36" name="bottom"/>
	<anchor x="493" y="21" name="ogonek"/>
	<anchor x="322" y="560" name="top"/>
	<outline>
		<contour>
			<point x="194" y="-24" type="curve" smooth="yes"/>
			<point x="300" y="-24"/>
			<point x="421" y="72"/>
			<point x="435" y="309" type="curve"/>
			<point x="377" y="271" type="line"/>
			<point x="378" y="162"/>
			<point x="303" y="104"/>
			<point x="238" y="104" type="curve" smooth="yes"/>
			<point x="193" y="104"/>
			<point x="164" y="137"/>
			<point x="164" y="177" type="curve" smooth="yes"/>
			<point x="164" y="224"/>
			<point x="208" y="306"/>
			<point x="412" y="357" type="curve"/>
			<point x="369" y="451" type="line"/>
			<point x="119" y="377"/>
			<point x="36" y="253"/>
			<point x="36" y="140" type="curve" smooth="yes"/>
			<point x="36" y="38"/>
			<point x="110" y="-24"/>
		</contour>
		<contour>
			<point x="366" y="143" type="curve"/>
			<point x="464" y="174" type="line"/>
			<point x="469" y="201"/>
			<point x="480" y="320"/>
			<point x="504" y="453" type="curve"/>
			<point x="369" y="451" type="line"/>
			<point x="358" y="405"/>
			<point x="356" y="176"/>
		</contour>
		<component base="e" xOffset="323"/>
	</outline>
</glyph>
<glyph name="eth" format="2">
	<advance width="604"/>
	<unicode hex="00F0"/>
	<outline>
		<contour>
			<point x="267" y="-10" type="curve" smooth="yes"/>
			<point x="478" y="-10"/>
			<point x="568" y="107"/>
			<point x="568" y="247" type="curve" smooth="yes"/>
			<point x="568" y="446"/>
			<point x="399" y="662"/>
			<point x="150" y="710" type="curve"/>
			<point x="117" y="579" type="line"/>
			<point x="313" y="546"/>
			<point x="441" y="400"/>
			<point x="441" y="284" type="curve" smooth="yes"/>
			<point x="441" y="199"/>
			<point x="389" y="109"/>
			<point x="245" y="109" type="curve" smooth="yes"/>
			<point x="183" y="109"/>
			<point x="138" y="137"/>
			<point x="138" y="167" type="curve" smooth="yes"/>
			<point x="138" y="200"/>
			<point x="182" y="237"/>
			<point x="276" y="237" type="curve" smooth="yes"/>
			<point x="339" y="237"/>
			<point x="412" y="224"/>
			<point x="470" y="149" type="curve"/>
			<point x="476" y="245" type="line"/>
			<point x="421" y="299"/>
			<point x="325" y="328"/>
			<point x="229" y="328" type="curve" smooth="yes"/>
			<point x="95" y="328"/>
			<point x="36" y="254"/>
			<point x="36" y="179" type="curve" smooth="yes"/>
			<point x="36" y="87"/>
			<point x="124" y="-10"/>
		</contour>
		<contour>
			<point x="155" y="370" type="line"/>
			<point x="515" y="606" type="line"/>
			<point x="477" y="676" type="line"/>
			<point x="104" y="466" type="line"/>
		</contour>
	</outline>
</glyph>
<glyph name="divide" format="2">
	<advance width="448"/>
	<unicode hex="00F7"/>
	<outline>
		<contour>
			<point x="412" y="283" type="curve"/>
			<point x="409" y="429" type="line"/>
			<point x="292" y="431"/>
			<point x="154" y="426"/>
			<point x="37" y="413" type="curve"/>
			<point x="36" y="301" type="line"/>
			<point x="155" y="303"/>
			<point x="293" y="297"/>
		</contour>
		<contour>
			<point x="153" y="58" type="curve"/>
			<point x="299" y="62" type="line"/>
			<point x="295" y="113"/>
			<point x="297" y="163"/>
			<point x="302" y="215" type="curve"/>
			<point x="151" y="216" type="line"/>
			<point x="146" y="170"/>
			<point x="146" y="106"/>
		</contour>
		<contour>
			<point x="153" y="508" type="curve"/>
			<point x="299" y="512" type="line"/>
			<point x="295" y="563"/>
			<point x="297" y="613"/>
			<point x="302" y="665" type="curve"/>
			<point x="151" y="666" type="line"/>
			<point x="146" y="620"/>
			<point x="146" y="556"/>
		</contour>
	</outline>
</glyph>
<glyph name="oslash" format="2">
	<advance width="591"/>
	<unicode hex="00F8"/>
	<anchor x="280" y="-42" name="bottom"/>
	<anchor x="267" y="520" name="top"/>
	<outline>
		<contour>
			<point x="186" y="-65" type="line"/>
			<point x="475" y="488" type="line"/>
			<point x="375" y="514" type="line"/>
			<point x="108" y="-40" type="line"/>
		</contour>
		<contour>
			<point x="280" y="-12" type="curve" smooth="yes"/>
			<point x="448" y="-12"/>
			<point x="533" y="107"/>
			<point x="533" y="226" type="curve" smooth="yes"/>
			<point x="533" y="345"/>
			<point x="448" y="463"/>
			<point x="278" y="463" type="curve" smooth="yes"/>
			<point x="119" y="463"/>
			<point x="36" y="343"/>
			<point x="36" y="223" type="curve" smooth="yes"/>
			<point x="36" y="105"/>
			<point x="117" y="-12"/>
		</contour>
		<contour>
			<point x="275" y="39" type="curve" smooth="yes"/>
			<point x="197" y="39"/>
			<point x="148" y="117"/>
			<point x="148" y="203" type="curve" smooth="yes"/>
			<point x="148" y="278"/>
			<point x="190" y="350"/>
			<point x="266" y="350" type="curve" smooth="yes"/>
			<point x="352" y="350"/>
			<point x="394" y="279"/>
			<point x="394" y="205" type="curve" smooth="yes"/>
			<point x="394" y="124"/>
			<point x="355" y="39"/>
		</contour>
	</outline>
</glyph>
<glyph name="thorn" format="2">
	<advance width="614"/>
	<unicode hex="00FE"/>
	<outline>
		<contour>
			<point x="56" y="-185" type="curve"/>
			<point x="237" y="-166" type="line"/>
			<point x="243" y="93"/>
			<point x="237" y="313"/>
			<point x="201" y="603" type="curve"/>
			<point x="69" y="583" type="line"/>
			<point x="81" y="300"/>
			<point x="81" y="84"/>
		</contour>
		<contour>
			<point x="185" y="52" type="curve"/>
			<point x="208" y="-34" type="line"/>
			<point x="501" y="38"/>
			<point x="578" y="182"/>
			<point x="578" y="295" type="curve" smooth="yes"/>
			<point x="578" y="397"/>
			<point x="502" y="459"/>
			<point x="416" y="459" type="curve" smooth="yes"/>
			<point x="307" y="459"/>
			<point x="183" y="363"/>
			<point x="169" y="126" type="curve"/>
			<point x="229" y="155" type="line"/>
			<point x="229" y="266"/>
			<point x="300" y="331"/>
			<point x="373" y="331" type="curve" smooth="yes"/>
			<point x="416" y="331"/>
			<point x="442" y="298"/>
			<point x="442" y="258" type="curve" smooth="yes"/>
			<point x="442" y="189"/>
			<point x="384" y="105"/>
		</contour>
	</outline>
</glyph>
<glyph name="dcroat" format="2">
	<advance width="603"/>
	<unicode hex="0111"/>
	<outline>
		<component base="d"/>
		<contour>
			<point x="173" y="569" type="line"/>
			<point x="598" y="584" type="line"/>
			<point x="598" y="667" type="line"/>
			<point x="175" y="681" type="line"/>
		</contour>
	</outline>
</glyph>
<glyph name="hbar" format="2">
	<advance width="635"/>
	<unicode hex="0127"/>
	<outline>
		<component base="h"/>
		<contour>
			<point x="3" y="569" type="line"/>
			<point x="428" y="584" type="line"/>
			<point x="428" y="667" type="line"/>
			<point x="5" y="681" type="line"/>
		</contour>
	</outline>
</glyph>
<glyph name="dotlessi" format="2">
	<advance width="296"/>
	<unicode hex="0131"/>
	<anchor x="133" y="-18" name="bottom"/>
	<anchor x="183" y="3" name="ogonek"/>
	<anchor x="148" y="520" name="top"/>
	<outline>
		<contour>
			<point x="78" y="-6" type="curve"/>
			<point x="204" y="7" type="line"/>
			<point x="231" y="182"/>
			<point x="237" y="307"/>
			<point x="233" y="470" type="curve"/>
			<point x="61" y="451" type="line"/>
			<point x="81" y="297"/>
			<point x="85" y="144"/>
		</contour>
	</outline>
</glyph>
<glyph name="Lslash" format="2">
	<advance width="582"/>
	<unicode hex="0141"/>
	<outline>
		<component base="L"/>
		<contour>
			<point x="31" y="176" type="line"/>
			<point x="402" y="427" type="line"/>
			<point x="364" y="494" type="line"/>
			<point x="-20" y="267" type="line"/>
		</contour>
	</outline>
</glyph>
<glyph name="lslash" format="2">
	<advance width="300"/>
	<unicode hex="0142"/>
	<outline>
		<component base="l"/>
		<contour>
			<point x="10" y="208" type="line"/>
			<point x="368" y="446" type="line"/>
			<point x="329" y="517" type="line"/>
			<point x="-41" y="301" type="line"/>
		</contour>
	</outline>
</glyph>
<glyph name="OE" format="2">
	<advance width="1064"/>
	<unicode hex="0152"/>
	<anchor x="649" y="-30" name="bottom"/>
	<anchor x="991" y="7" name="ogonek"/>
	<anchor x="647" y="800" name="top"/>
	<outline>
		<contour>
			<point x="418" y="-8" type="curve" smooth="yes"/>
			<point x="492" y="-8"/>
			<point x="560" y="8"/>
			<point x="619" y="43" type="curve"/>
			<point x="561" y="129" type="line"/>
			<point x="519" y="95"/>
			<point x="474" y="76"/>
			<point x="412" y="76" type="curve" smooth="yes"/>
			<point x="308" y="76"/>
			<point x="222" y="186"/>
			<point x="222" y="339" type="curve" smooth="yes"/>
			<point x="222" y="494"/>
			<point x="308" y="609"/>
			<point x="434" y="609" type="curve" smooth="yes"/>
			<point x="475" y="609"/>
			<point x="512" y="598"/>
			<point x="546" y="576" type="curve"/>
			<point x="603" y="694" type="line"/>
			<point x="545" y="734"/>
			<point x="477" y="754"/>
			<point x="409" y="754" type="curve" smooth="yes"/>
			<point x="232" y="754"/>
			<point x="49" y="632"/>
			<point x="49" y="362" type="curve" smooth="yes"/>
			<point x="49" y="157"/>
			<point x="197" y="-8"/>
		</contour>
		<contour>
			<point x="515" y="14" type="curve"/>
			<point x="662" y="38" type="line"/>
			<point x="687" y="313"/>
			<point x="693" y="448"/>
			<point x="686" y="727" type="curve"/>
			<point x="498" y="736" type="line"/>
			<point x="525" y="490"/>
			<point x="527" y="280"/>
		</contour>
		<contour>
			<point x="1028" y="-5" type="curve"/>
			<point x="1028" y="122" type="line"/>
			<point x="873" y="103"/>
			<point x="678" y="94"/>
			<point x="562" y="102" type="curve"/>
			<point x="515" y="14" type="line"/>
			<point x="667" y="2"/>
			<point x="917" y="-5"/>
		</contour>
		<contour>
			<point x="907" y="306" type="curve"/>
			<point x="904" y="414" type="line"/>
			<point x="823" y="412"/>
			<point x="716" y="407"/>
			<point x="609" y="393" type="curve"/>
			<point x="610" y="308" type="line"/>
			<point x="731" y="318"/>
			<point x="824" y="319"/>
		</contour>
		<contour>
			<point x="1010" y="634" type="curve"/>
			<point x="1010" y="770" type="line"/>
			<point x="902" y="767"/>
			<point x="615" y="749"/>
			<point x="498" y="736" type="curve"/>
			<point x="585" y="644" type="line"/>
			<point x="661" y="648"/>
			<point x="854" y="661"/>
		</contour>
	</outline>
</glyph>
<glyph name="uni0237" format="2">
	<advance width="300"/>
	<unicode hex="0237"/>
	<anchor x="131" y="-233" name="bottom"/>
	<anchor x="141" y="529" name="top"/>
	<outline>
		<contour>
			<point x="-88" y="-165" type="curve"/>
			<point x="-74" y="-244" type="line"/>
			<point x="124" y="-260"/>
			<point x="222" y="-168"/>
			<point x="242" y="60" type="curve" smooth="yes"/>
			<point x="254" y="179"/>
			<point x="252" y="293"/>
			<point x="244" y="471" type="curve"/>
			<point x="58" y="443" type="line"/>
			<point x="86" y="235"/>
			<point x="99" y="127"/>
			<point x="97" y="22" type="curve" smooth="yes"/>
			<point x="95" y="-105"/>
			<point x="63" y="-178"/>
		</contour>
	</outline>
</glyph>
<glyph name="circumflex" format="2">
	<advance width="300"/>
	<unicode hex="02C6"/>
	<anchor x="150" y="520" name="_top"/>
	<anchor x="150" y="752" name="top"/>
	<outline>
		<contour>
			<point x="57" y="538" type="line"/>
			<point x="163" y="683" type="line"/>
			<point x="150" y="752" type="line"/>
			<point x="-21" y="576" type="line"/>
		</contour>
		<contour>
			<point x="243" y="538" type="line"/>
			<point x="321" y="576" type="line"/>
			<point x="150" y="752" type="line"/>
			<point x="137" y="683" type="line"/>
		</contour>
	</outline>
</glyph>
<glyph name="caron" format="2">
	<advance width="300"/>
	<unicode hex="02C7"/>
	<anchor x="150" y="520" name="_top"/>
	<anchor x="150" y="752" name="top"/>
	<outline>
		<contour>
			<point x="57" y="757" type="line"/>
			<point x="-21" y="719" type="line"/>
			<point x="150" y="543" type="line"/>
			<point x="163" y="612" type="line"/>
		</contour>
		<contour>
			<point x="243" y="757" type="line"/>
			<point x="137" y="612" type="line"/>
			<point x="150" y="543" type="line"/>
			<point x="321" y="719" type="line"/>
		</contour>
	</outline>
</glyph>
<glyph name="breve" format="2">
	<advance width="300"/>
	<unicode hex="02D8"/>
	<anchor x="150" y="520" name="_top"/>
	<anchor x="150" y="710" name="top"/>
	<outline>
		<contour>
			<point x="150" y="553" type="curve"/>
			<point x="243" y="553"/>
			<point x="289" y="615"/>
			<point x="289" y="706" type="curve"/>
			<point x="198" y="696" type="line"/>
			<point x="199" y="628"/>
			<point x="186" y="602"/>
			<point x="147" y="602" type="curve" smooth="yes"/>
			<point x="121" y="602"/>
			<point x="98" y="623"/>
			<point x="97" y="693" type="curve"/>
			<point x="12" y="688" type="line"/>
			<point x="12" y="588"/>
			<point x="87" y="553"/>
		</contour>
	</outline>
</glyph>
<glyph name="ring" format="2">
	<advance width="300"/>
	<unicode hex="02DA"/>
	<anchor x="150" y="520" name="_top"/>
	<anchor x="149" y="770" name="top"/>
	<outline>
		<contour>
			<point x="149" y="551" type="curve" smooth="yes"/>
			<point x="223" y="551"/>
			<point x="256" y="600"/>
			<point x="256" y="650" type="curve" smooth="yes"/>
			<point x="256" y="705"/>
			<point x="218" y="760"/>
			<point x="149" y="760" type="curve" smooth="yes"/>
			<point x="80" y="760"/>
			<point x="48" y="710"/>
			<point x="48" y="659" type="curve" smooth="yes"/>
			<point x="48" y="606"/>
			<point x="85" y="551"/>
		</contour>
		<contour>
			<point x="151" y="610" type="curve" smooth="yes"/>
			<point x="113" y="610"/>
			<point x="93" y="635"/>
			<point x="93" y="657" type="curve" smooth="yes"/>
			<point x="93" y="679"/>
			<point x="111" y="701"/>
			<point x="151" y="701" type="curve" smooth="yes"/>
			<point x="190" y="701"/>
			<point x="211" y="678"/>
			<point x="211" y="653" type="curve" smooth="yes"/>
			<point x="211" y="631"/>
			<point x="193" y="610"/>
		</contour>
	</outline>
</glyph>
<glyph name="tilde" format="2">
	<advance width="300"/>
	<unicode hex="02DC"/>
	<anchor x="150" y="520" name="_top"/>
	<anchor x="150" y="710" name="top"/>
	<outline>
		<contour>
			<point x="-26" y="549" type="curve"/>
			<point x="49" y="544" type="line"/>
			<point x="47" y="595"/>
			<point x="62" y="624"/>
			<point x="84" y="624" type="curve" smooth="yes"/>
			<point x="130" y="624"/>
			<point x="170" y="542"/>
			<point x="234" y="542" type="curve" smooth="yes"/>
			<point x="267" y="542"/>
			<point x="326" y="577"/>
			<point x="326" y="669" type="curve"/>
			<point x="254" y="674" type="line"/>
			<point x="256" y="621"/>
			<point x="242" y="592"/>
			<point x="218" y="592" type="curve" smooth="yes"/>
			<point x="168" y="592"/>
			<point x="144" y="674"/>
			<point x="72" y="674" type="curve" smooth="yes"/>
			<point x="24" y="674"/>
			<point x="-26" y="639"/>
		</contour>
	</outline>
</glyph>
<glyph name="gravecomb" format="2">
	<advance width="0"/>
	<unicode hex="0300"/>
	<anchor x="150" y="520" name="_top"/>
	<anchor x="150" y="700" name="top"/>
	<outline>
		<contour>
			<point x="148" y="550" type="line"/>
			<point x="192" y="585" type="line"/>
			<point x="21" y="782" type="line"/>
			<point x="-41" y="721" type="line"/>
		</contour>
	</outline>
</glyph>
<glyph name="uni0302" format="2">
	<advance width="0"/>
	<unicode hex="0302"/>
	<anchor x="150" y="520" name="_top"/>
	<anchor x="150" y="752" name="top"/>
	<outline>
		<contour>
			<point x="57" y="538" type="line"/>
			<point x="163" y="683" type="line"/>
			<point x="150" y="752" type="line"/>
			<point x="-21" y="576" type="line"/>
		</contour>
		<contour>
			<point x="243" y="538" type="line"/>
			<point x="321" y="576" type="line"/>
			<point x="150" y="752" type="line"/>
			<point x="137" y="683" type="line"/>
		</contour>
	</outline>
</glyph>
<glyph name="uni0307" format="2">
	<advance width="0"/>
	<unicode hex="0307"/>
	<anchor x="150" y="520" name="_top"/>
	<anchor x="150" y="720" name="top"/>
	<outline>
		<contour>
			<point x="89" y="549" type="curve"/>
			<point x="219" y="554" type="line"/>
			<point x="215" y="598"/>
			<point x="217" y="642"/>
			<point x="221" y="688" type="curve"/>
			<point x="88" y="689" type="line"/>
			<point x="84" y="648"/>
			<point x="84" y="592"/>
		</contour>
	</outline>
</glyph>
<glyph name="uni0308" format="2">
	<advance width="0"/>
	<unicode hex="0308"/>
	<anchor x="150" y="520" name="_top"/>
	<anchor x="150" y="700" name="top"/>
	<outline>
		<contour>
			<point x="12" y="549" type="curve"/>
			<point x="124" y="553" type="line"/>
			<point x="120" y="591"/>
			<point x="122" y="629"/>
			<point x="126" y="669" type="curve"/>
			<point x="11" y="670" type="line"/>
			<point x="8" y="634"/>
			<point x="7" y="586"/>
		</contour>
		<contour>
			<point x="182" y="549" type="curve"/>
			<point x="294" y="553" type="line"/>
			<point x="290" y="591"/>
			<point x="292" y="629"/>
			<point x="296" y="669" type="curve"/>
			<point x="181" y="670" type="line"/>
			<point x="178" y="634"/>
			<point x="177" y="586"/>
		</contour>
	</outline>
</glyph>
<glyph name="uni030B" format="2">
	<advance width="0"/>
	<unicode hex="030B"/>
	<anchor x="150" y="520" name="_top"/>
	<anchor x="150" y="700" name="top"/>
	<outline>
		<contour>
			<point x="10" y="545" type="line"/>
			<point x="200" y="715" type="line"/>
			<point x="137" y="777" type="line"/>
			<point x="-34" y="580" type="line"/>
		</contour>
		<contour>
			<point x="200" y="551" type="line"/>
			<point x="390" y="722" type="line"/>
			<point x="327" y="783" type="line"/>
			<point x="156" y="586" type="line"/>
		</contour>
	</outline>
</glyph>
<glyph name="uni0312" format="2">
	<advance width="0"/>
	<unicode hex="0312"/>
	<anchor x="150" y="520" name="_top"/>
	<anchor x="150" y="830" name="top"/>
	<outline>
		<contour>
			<point x="209" y="710" type="curve"/>
			<point x="157" y="763" type="line"/>
			<point x="123" y="732"/>
			<point x="105" y="697"/>
			<point x="102" y="654" type="curve"/>
			<point x="100" y="621"/>
			<point x="100" y="589"/>
			<point x="100" y="554" type="curve"/>
			<point x="203" y="549" type="line"/>
			<point x="208" y="581"/>
			<point x="206" y="625"/>
			<point x="202" y="658" type="curve"/>
			<point x="125" y="655" type="line"/>
			<point x="144" y="647" type="line"/>
			<point x="149" y="659"/>
			<point x="175" y="692"/>
		</contour>
	</outline>
</glyph>
<glyph name="uni0326" format="2">
	<advance width="0"/>
	<unicode hex="0326"/>
	<anchor x="150" y="0" name="_bottom"/>
	<anchor x="150" y="-310" name="bottom"/>
	<outline>
		<contour>
			<point x="96" y="-197" type="curve"/>
			<point x="147" y="-250" type="line"/>
			<point x="180" y="-218"/>
			<point x="199" y="-184"/>
			<point x="202" y="-141" type="curve"/>
			<point x="204" y="-107"/>
			<point x="204" y="-76"/>
			<point x="204" y="-40" type="curve"/>
			<point x="100" y="-36" type="line"/>
			<point x="97" y="-68"/>
			<point x="97" y="-112"/>
			<point x="102" y="-145" type="curve"/>
			<point x="178" y="-141" type="line"/>
			<point x="158" y="-133" type="line"/>
			<point x="153" y="-153"/>
			<point x="128" y="-179"/>
		</contour>
	</outline>
</glyph>
<glyph name="uni0328" format="2">
	<advance width="0"/>
	<unicode hex="0328"/>
	<anchor x="200" y="-5" name="_ogonek"/>
	<outline>
		<contour>
			<point x="202" y="-215" type="curve"/>
			<point x="208" y="-139" type="line"/>
			<point x="151" y="-146"/>
			<point x="108" y="-125"/>
			<point x="108" y="-90" type="curve" smooth="yes"/>
			<point x="108" y="-62"/>
			<point x="138" y="-37"/>
			<point x="200" y="-5" type="curve"/>
			<point x="160" y="7" type="line"/>
			<point x="86" y="-30"/>
			<point x="49" y="-72"/>
			<point x="49" y="-115" type="curve" smooth="yes"/>
			<point x="49" y="-172"/>
			<point x="115" y="-216"/>
		</contour>
	</outline>
</glyph>
<glyph name="uni060C" format="2">
	<advance width="302"/>
	<unicode hex="060C"/>
	<outline>
		<contour>
			<point x="157" y="-11" type="curve" smooth="yes"/>
			<point x="208" y="-11"/>
			<point x="247" y="26"/>
			<point x="247" y="78" type="curve" smooth="yes"/>
			<point x="247" y="142"/>
			<point x="173" y="169"/>
			<point x="130" y="147" type="curve"/>
			<point x="146" y="181"/>
			<point x="178" y="214"/>
			<point x="224" y="244" type="curve"/>
			<point x="140" y="319" type="line"/>
			<point x="80" y="267"/>
			<point x="50" y="181"/>
			<point x="50" y="120" type="curve" smooth="yes"/>
			<point x="50" y="48"/>
			<point x="87" y="-11"/>
		</contour>
	</outline>
</glyph>
<glyph name="uni0615" format="2">
	<advance width="0"/>
	<unicode hex="0615"/>
	<anchor x="41" y="582" name="_top"/>
	<anchor x="49" y="860" name="top"/>
	<outline>
		<contour>
			<point x="23" y="599" type="curve" smooth="yes"/>
			<point x="117" y="599"/>
			<point x="165" y="640"/>
			<point x="165" y="703" type="curve" smooth="yes"/>
			<point x="165" y="747"/>
			<point x="137" y="777"/>
			<point x="93" y="777" type="curve" smooth="yes"/>
			<point x="34" y="777"/>
			<point x="-10" y="719"/>
			<point x="-27" y="637" type="curve"/>
			<point x="-13" y="629" type="line"/>
			<point x="9" y="694"/>
			<point x="43" y="716"/>
			<point x="69" y="716" type="curve" smooth="yes"/>
			<point x="87" y="716"/>
			<point x="98" y="704"/>
			<point x="98" y="687" type="curve" smooth="yes"/>
			<point x="98" y="667"/>
			<point x="78" y="646"/>
			<point x="15" y="646" type="curve" smooth="yes"/>
			<point x="-22" y="647"/>
			<point x="-55" y="656"/>
			<point x="-72" y="661" type="curve"/>
			<point x="-80" y="616" type="line"/>
			<point x="-52" y="605"/>
			<point x="0" y="599"/>
		</contour>
		<contour>
			<point x="-43" y="633" type="curve"/>
			<point x="-15" y="635" type="line"/>
			<point x="12" y="697"/>
			<point x="22" y="783"/>
			<point x="15" y="859" type="curve"/>
			<point x="-65" y="848" type="line"/>
			<point x="-48" y="776"/>
			<point x="-38" y="718"/>
		</contour>
	</outline>
</glyph>
<glyph name="uni061F" format="2">
	<advance width="560"/>
	<unicode hex="061F"/>
	<outline>
		<contour>
			<point x="297" y="226" type="curve"/>
			<point x="385" y="234" type="line"/>
			<point x="385" y="434"/>
			<point x="187" y="452"/>
			<point x="187" y="549" type="curve" smooth="yes"/>
			<point x="187" y="582"/>
			<point x="209" y="611"/>
			<point x="262" y="611" type="curve" smooth="yes"/>
			<point x="321" y="611"/>
			<point x="381" y="583"/>
			<point x="444" y="539" type="curve"/>
			<point x="510" y="703" type="line"/>
			<point x="426" y="730"/>
			<point x="337" y="757"/>
			<point x="260" y="757" type="curve" smooth="yes"/>
			<point x="136" y="757"/>
			<point x="40" y="702"/>
			<point x="40" y="576" type="curve" smooth="yes"/>
			<point x="40" y="380"/>
			<point x="297" y="376"/>
		</contour>
		<component base="period.salt" xOffset="189"/>
	</outline>
</glyph>
<glyph name="uni0621" format="2">
	<advance width="480"/>
	<unicode hex="0621"/>
	<anchor x="242" y="-150" name="bottom"/>
	<anchor x="233" y="450" name="top"/>
	<outline>
		<contour>
			<point x="231" y="34" type="curve"/>
			<point x="271" y="28" type="line"/>
			<point x="450" y="54" type="line"/>
			<point x="405" y="149" type="line"/>
			<point x="353" y="121"/>
			<point x="293" y="100"/>
			<point x="233" y="100" type="curve" smooth="yes"/>
			<point x="175" y="100"/>
			<point x="129" y="123"/>
			<point x="129" y="171" type="curve" smooth="yes"/>
			<point x="129" y="212"/>
			<point x="166" y="237"/>
			<point x="209" y="237" type="curve" smooth="yes"/>
			<point x="243" y="237"/>
			<point x="282" y="223"/>
			<point x="315" y="187" type="curve"/>
			<point x="408" y="293" type="line"/>
			<point x="357" y="353"/>
			<point x="289" y="371"/>
			<point x="225" y="371" type="curve" smooth="yes"/>
			<point x="122" y="371"/>
			<point x="30" y="312"/>
			<point x="30" y="202" type="curve" smooth="yes"/>
			<point x="30" y="111"/>
			<point x="97" y="34"/>
		</contour>
		<contour>
			<point x="49" y="-18" type="curve"/>
			<point x="144" y="-126" type="line"/>
			<point x="230" y="-35"/>
			<point x="303" y="19"/>
			<point x="450" y="54" type="curve"/>
			<point x="358" y="89" type="line"/>
			<point x="235" y="71"/>
			<point x="107" y="36"/>
		</contour>
	</outline>
</glyph>
<glyph name="uni0627" format="2">
	<advance width="304.5"/>
	<unicode hex="0627"/>
	<anchor x="151" y="-100" name="bottom"/>
	<anchor x="151" y="770" name="top"/>
	<outline>
		<contour>
			<point x="102" y="-22" type="curve"/>
			<point x="194" y="3" type="line"/>
			<point x="233" y="220"/>
			<point x="249" y="463"/>
			<point x="243" y="734" type="curve"/>
			<point x="60" y="705" type="line"/>
			<point x="96" y="443"/>
			<point x="106" y="252"/>
		</contour>
	</outline>
</glyph>
<glyph name="uni062D" format="2">
	<advance width="635"/>
	<unicode hex="062D"/>
	<anchor x="339" y="-471" name="bottom"/>
	<anchor x="337" y="510" name="top"/>
	<outline>
		<contour>
			<point x="359" y="-421" type="curve" smooth="yes"/>
			<point x="435" y="-421"/>
			<point x="518" y="-405"/>
			<point x="600" y="-375" type="curve"/>
			<point x="526" y="-228" type="line"/>
			<point x="464" y="-265"/>
			<point x="388" y="-285"/>
			<point x="321" y="-285" type="curve" smooth="yes"/>
			<point x="219" y="-285"/>
			<point x="131" y="-238"/>
			<point x="131" y="-134" type="curve" smooth="yes"/>
			<point x="131" y="12"/>
			<point x="303" y="128"/>
			<point x="571" y="128" type="curve"/>
			<point x="591" y="284" type="line"/>
			<point x="478" y="249" type="line"/>
			<point x="256" y="232"/>
			<point x="50" y="83"/>
			<point x="50" y="-144" type="curve" smooth="yes"/>
			<point x="50" y="-337"/>
			<point x="186" y="-421"/>
		</contour>
		<contour>
			<point x="566" y="216" type="curve"/>
			<point x="591" y="284" type="line"/>
			<point x="386" y="368"/>
			<point x="211" y="430"/>
			<point x="51" y="405" type="curve"/>
			<point x="84" y="235" type="line"/>
			<point x="249" y="295"/>
			<point x="401" y="260"/>
		</contour>
	</outline>
</glyph>
<glyph name="uni062F" format="2">
	<advance width="406.5"/>
	<unicode hex="062F"/>
	<anchor x="219" y="-88" name="bottom"/>
	<anchor x="213" y="575" name="top"/>
	<outline>
		<contour>
			<point x="25" y="90" type="curve"/>
			<point x="35" y="0" type="line"/>
			<point x="215" y="0"/>
			<point x="356" y="37"/>
			<point x="356" y="191" type="curve" smooth="yes"/>
			<point x="356" y="250"/>
			<point x="339" y="351"/>
			<point x="300" y="450" type="curve"/>
			<point x="122" y="408" type="line"/>
			<point x="173" y="322"/>
			<point x="225" y="216"/>
			<point x="225" y="166" type="curve" smooth="yes"/>
			<point x="225" y="79"/>
			<point x="95" y="77"/>
		</contour>
	</outline>
</glyph>
<glyph name="uni0631" format="2">
	<advance width="352"/>
	<unicode hex="0631"/>
	<anchor x="136" y="-420" name="bottom"/>
	<anchor x="175" y="550" name="top"/>
	<outline>
		<contour>
			<point x="-80" y="-235" type="curve"/>
			<point x="49" y="-370" type="line"/>
			<point x="235" y="-207"/>
			<point x="302" y="-21"/>
			<point x="302" y="124" type="curve" smooth="yes"/>
			<point x="302" y="233"/>
			<point x="284" y="322"/>
			<point x="254" y="400" type="curve"/>
			<point x="158" y="366" type="line"/>
			<point x="178" y="319"/>
			<point x="188" y="268"/>
			<point x="188" y="217" type="curve" smooth="yes"/>
			<point x="188" y="53"/>
			<point x="96" y="-89"/>
		</contour>
	</outline>
</glyph>
<glyph name="uni0633" format="2">
	<advance width="1240"/>
	<unicode hex="0633"/>
	<anchor x="827" y="-100" name="bottom"/>
	<anchor x="797" y="550" name="top"/>
	<outline>
		<contour>
			<point x="303" y="-252" type="curve" smooth="yes"/>
			<point x="541" y="-252"/>
			<point x="602" y="-27"/>
			<point x="599" y="194" type="curve" smooth="yes"/>
			<point x="598" y="207"/>
			<point x="598" y="219"/>
			<point x="597" y="232" type="curve" smooth="yes"/>
			<point x="596" y="257"/>
			<point x="594" y="284"/>
			<point x="589" y="324" type="curve"/>
			<point x="414" y="296" type="line"/>
			<point x="438" y="210"/>
			<point x="454" y="135"/>
			<point x="454" y="38" type="curve" smooth="yes"/>
			<point x="454" y="-73"/>
			<point x="420" y="-172"/>
			<point x="323" y="-172" type="curve" smooth="yes"/>
			<point x="242" y="-172"/>
			<point x="186" y="-121"/>
			<point x="186" y="-36" type="curve" smooth="yes"/>
			<point x="186" y="33"/>
			<point x="226" y="93"/>
			<point x="290" y="136" type="curve"/>
			<point x="203" y="262" type="line"/>
			<point x="102" y="198"/>
			<point x="50" y="98"/>
			<point x="50" y="-12" type="curve" smooth="yes"/>
			<point x="50" y="-146"/>
			<point x="160" y="-252"/>
		</contour>
		<contour>
			<point x="695" y="-9" type="curve" smooth="yes"/>
			<point x="812" y="-9"/>
			<point x="891" y="77"/>
			<point x="891" y="250" type="curve" smooth="yes"/>
			<point x="891" y="281"/>
			<point x="891" y="310"/>
			<point x="892" y="331" type="curve"/>
			<point x="720" y="306" type="line"/>
			<point x="734" y="252"/>
			<point x="739" y="223"/>
			<point x="739" y="178" type="curve" smooth="yes"/>
			<point x="739" y="124"/>
			<point x="725" y="84"/>
			<point x="674" y="84" type="curve" smooth="yes"/>
			<point x="618" y="84"/>
			<point x="601" y="127"/>
			<point x="599" y="194" type="curve"/>
			<point x="526" y="181" type="line"/>
			<point x="526" y="52"/>
			<point x="600" y="-9"/>
		</contour>
		<contour>
			<point x="997" y="-11" type="curve" smooth="yes"/>
			<point x="1138" y="-11"/>
			<point x="1190" y="92"/>
			<point x="1190" y="211" type="curve" smooth="yes"/>
			<point x="1190" y="279"/>
			<point x="1184" y="331"/>
			<point x="1169" y="425" type="curve"/>
			<point x="996" y="389" type="line"/>
			<point x="1025" y="299"/>
			<point x="1040" y="225"/>
			<point x="1040" y="171" type="curve" smooth="yes"/>
			<point x="1040" y="116"/>
			<point x="1024" y="76"/>
			<point x="977" y="76" type="curve" smooth="yes"/>
			<point x="909" y="76"/>
			<point x="891" y="150"/>
			<point x="891" y="250" type="curve"/>
			<point x="827" y="132" type="line"/>
			<point x="833" y="65"/>
			<point x="891" y="-11"/>
		</contour>
	</outline>
</glyph>
<glyph name="uni0635" format="2">
	<advance width="1155"/>
	<unicode hex="0635"/>
	<anchor x="850" y="-100" name="bottom"/>
	<anchor x="909" y="550" name="top"/>
	<outline>
		<contour>
			<point x="305" y="-247" type="curve" smooth="yes"/>
			<point x="610" y="-247"/>
			<point x="637" y="105"/>
			<point x="595" y="343" type="curve"/>
			<point x="409" y="315" type="line"/>
			<point x="477" y="119"/>
			<point x="500" y="-172"/>
			<point x="333" y="-172" type="curve" smooth="yes"/>
			<point x="252" y="-172"/>
			<point x="195" y="-121"/>
			<point x="195" y="-36" type="curve" smooth="yes"/>
			<point x="195" y="33"/>
			<point x="236" y="93"/>
			<point x="299" y="136" type="curve"/>
			<point x="208" y="272" type="line"/>
			<point x="106" y="208"/>
			<point x="50" y="108"/>
			<point x="50" y="-1" type="curve" smooth="yes"/>
			<point x="50" y="-148"/>
			<point x="163" y="-247"/>
		</contour>
		<contour>
			<point x="816" y="-10" type="curve" smooth="yes"/>
			<point x="964" y="-10"/>
			<point x="1105" y="86"/>
			<point x="1105" y="240" type="curve" smooth="yes"/>
			<point x="1105" y="344"/>
			<point x="1033" y="410"/>
			<point x="923" y="410" type="curve" smooth="yes"/>
			<point x="804" y="410"/>
			<point x="645" y="305"/>
			<point x="613" y="106" type="curve"/>
			<point x="667" y="78" type="line"/>
			<point x="713" y="222"/>
			<point x="791" y="287"/>
			<point x="858" y="287" type="curve" smooth="yes"/>
			<point x="904" y="287"/>
			<point x="938" y="256"/>
			<point x="938" y="206" type="curve" smooth="yes"/>
			<point x="938" y="142"/>
			<point x="877" y="82"/>
			<point x="799" y="82" type="curve" smooth="yes"/>
			<point x="694" y="82"/>
			<point x="629" y="154"/>
			<point x="595" y="343" type="curve"/>
			<point x="508" y="299" type="line"/>
			<point x="551" y="120"/>
			<point x="626" y="-10"/>
		</contour>
	</outline>
</glyph>
<glyph name="uni0637" format="2">
	<advance width="680"/>
	<unicode hex="0637"/>
	<anchor x="337" y="-80" name="bottom"/>
	<anchor x="455" y="550" name="top"/>
	<outline>
		<contour>
			<point x="277" y="-10" type="curve" smooth="yes"/>
			<point x="498" y="-10"/>
			<point x="630" y="73"/>
			<point x="630" y="223" type="curve" smooth="yes"/>
			<point x="630" y="339"/>
			<point x="553" y="410"/>
			<point x="448" y="410" type="curve" smooth="yes"/>
			<point x="329" y="410"/>
			<point x="188" y="299"/>
			<point x="152" y="82" type="curve"/>
			<point x="206" y="60" type="line"/>
			<point x="254" y="222"/>
			<point x="315" y="287"/>
			<point x="383" y="287" type="curve" smooth="yes"/>
			<point x="428" y="287"/>
			<point x="463" y="256"/>
			<point x="463" y="206" type="curve" smooth="yes"/>
			<point x="463" y="142"/>
			<point x="398" y="77"/>
			<point x="252" y="77" type="curve" smooth="yes"/>
			<point x="163" y="77"/>
			<point x="109" y="95"/>
			<point x="56" y="109" type="curve"/>
			<point x="35" y="32" type="line"/>
			<point x="100" y="9"/>
			<point x="211" y="-10"/>
		</contour>
		<contour>
			<point x="112" y="40" type="curve"/>
			<point x="198" y="62" type="line"/>
			<point x="237" y="252"/>
			<point x="264" y="516"/>
			<point x="258" y="754" type="curve"/>
			<point x="75" y="729" type="line"/>
			<point x="111" y="498"/>
			<point x="116" y="280"/>
		</contour>
	</outline>
</glyph>
<glyph name="uni0639" format="2">
	<advance width="584.5"/>
	<unicode hex="0639"/>
	<anchor x="294" y="-472" name="bottom"/>
	<anchor x="294" y="550" name="top"/>
	<outline>
		<contour>
			<point x="316" y="-422" type="curve" smooth="yes"/>
			<point x="387" y="-422"/>
			<point x="454" y="-410"/>
			<point x="565" y="-377" type="curve"/>
			<point x="497" y="-232" type="line"/>
			<point x="418" y="-274"/>
			<point x="337" y="-288"/>
			<point x="284" y="-288" type="curve" smooth="yes"/>
			<point x="204" y="-288"/>
			<point x="116" y="-261"/>
			<point x="116" y="-169" type="curve" smooth="yes"/>
			<point x="116" y="-58"/>
			<point x="252" y="42"/>
			<point x="504" y="42" type="curve"/>
			<point x="447" y="129" type="line"/>
			<point x="252" y="119" type="line"/>
			<point x="119" y="61"/>
			<point x="35" y="-38"/>
			<point x="35" y="-173" type="curve" smooth="yes"/>
			<point x="35" y="-337"/>
			<point x="162" y="-422"/>
		</contour>
		<contour>
			<point x="316" y="57" type="curve"/>
			<point x="504" y="42" type="line"/>
			<point x="468" y="172" type="line"/>
			<point x="410" y="172"/>
			<point x="334" y="133"/>
			<point x="258" y="133" type="curve" smooth="yes"/>
			<point x="206" y="133"/>
			<point x="164" y="168"/>
			<point x="164" y="212" type="curve" smooth="yes"/>
			<point x="164" y="256"/>
			<point x="204" y="292"/>
			<point x="261" y="292" type="curve" smooth="yes"/>
			<point x="305" y="292"/>
			<point x="349" y="272"/>
			<point x="373" y="251" type="curve"/>
			<point x="468" y="358" type="line"/>
			<point x="418" y="409"/>
			<point x="351" y="430"/>
			<point x="284" y="430" type="curve" smooth="yes"/>
			<point x="175" y="430"/>
			<point x="74" y="370"/>
			<point x="74" y="254" type="curve" smooth="yes"/>
			<point x="74" y="143"/>
			<point x="156" y="57"/>
		</contour>
	</outline>
</glyph>
<glyph name="uni0643" format="2">
	<advance width="860"/>
	<unicode hex="0643"/>
	<anchor x="487" y="-107" name="bottom"/>
	<anchor x="584" y="794" name="top"/>
	<outline>
		<contour>
			<point x="483" y="-7" type="curve" smooth="yes"/>
			<point x="734" y="-7"/>
			<point x="800" y="150"/>
			<point x="800" y="368" type="curve" smooth="yes"/>
			<point x="800" y="484"/>
			<point x="790" y="617"/>
			<point x="778" y="739" type="curve"/>
			<point x="585" y="709" type="line"/>
			<point x="632" y="530"/>
			<point x="674" y="348"/>
			<point x="672" y="227" type="curve" smooth="yes"/>
			<point x="671" y="121"/>
			<point x="595" y="75"/>
			<point x="498" y="75" type="curve" smooth="yes"/>
			<point x="392" y="75"/>
			<point x="256" y="133"/>
			<point x="197" y="313" type="curve"/>
			<point x="40" y="215" type="line"/>
			<point x="155" y="32"/>
			<point x="341" y="-7"/>
		</contour>
		<contour>
			<point x="452" y="202" type="line"/>
			<point x="524" y="202"/>
			<point x="560" y="271"/>
			<point x="560" y="311" type="curve" smooth="yes"/>
			<point x="560" y="400"/>
			<point x="422" y="331"/>
			<point x="422" y="370" type="curve" smooth="yes"/>
			<point x="422" y="387"/>
			<point x="460" y="409"/>
			<point x="516" y="391" type="curve"/>
			<point x="523" y="449" type="line"/>
			<point x="431" y="459"/>
			<point x="380" y="403"/>
			<point x="380" y="354" type="curve" smooth="yes"/>
			<point x="380" y="272"/>
			<point x="483" y="297"/>
			<point x="525" y="302" type="curve"/>
			<point x="522" y="277"/>
			<point x="454" y="259"/>
			<point x="403" y="261" type="curve"/>
			<point x="401" y="253" type="line"/>
		</contour>
	</outline>
</glyph>
<glyph name="uni0644" format="2">
	<advance width="680"/>
	<unicode hex="0644"/>
	<anchor x="295" y="-297" name="bottom"/>
	<anchor x="361" y="750" name="top"/>
	<outline>
		<contour>
			<point x="297" y="-247" type="curve" smooth="yes"/>
			<point x="522" y="-247"/>
			<point x="620" y="-34"/>
			<point x="620" y="213" type="curve" smooth="yes"/>
			<point x="620" y="382"/>
			<point x="616" y="552"/>
			<point x="598" y="739" type="curve"/>
			<point x="406" y="709" type="line"/>
			<point x="452" y="520"/>
			<point x="487" y="240"/>
			<point x="482" y="84" type="curve" smooth="yes"/>
			<point x="477" y="-54"/>
			<point x="428" y="-172"/>
			<point x="320" y="-172" type="curve" smooth="yes"/>
			<point x="242" y="-172"/>
			<point x="186" y="-121"/>
			<point x="186" y="-36" type="curve" smooth="yes"/>
			<point x="186" y="33"/>
			<point x="226" y="103"/>
			<point x="290" y="146" type="curve"/>
			<point x="203" y="272" type="line"/>
			<point x="102" y="208"/>
			<point x="45" y="108"/>
			<point x="45" y="-1" type="curve" smooth="yes"/>
			<point x="45" y="-148"/>
			<point x="153" y="-247"/>
		</contour>
	</outline>
</glyph>
<glyph name="uni0645" format="2">
	<advance width="660"/>
	<unicode hex="0645"/>
	<anchor x="432" y="-105" name="bottom"/>
	<anchor x="357" y="550" name="top"/>
	<outline>
		<contour>
			<point x="84" y="-400" type="curve"/>
			<point x="262" y="-339" type="line"/>
			<point x="224" y="-250"/>
			<point x="194" y="-140"/>
			<point x="194" y="-79" type="curve" smooth="yes"/>
			<point x="194" y="-34"/>
			<point x="208" y="5"/>
			<point x="271" y="5" type="curve" smooth="yes"/>
			<point x="337" y="5"/>
			<point x="399" y="-19"/>
			<point x="466" y="-19" type="curve" smooth="yes"/>
			<point x="537" y="-19"/>
			<point x="610" y="13"/>
			<point x="610" y="127" type="curve" smooth="yes"/>
			<point x="610" y="276"/>
			<point x="500" y="410"/>
			<point x="354" y="410" type="curve" smooth="yes"/>
			<point x="189" y="410"/>
			<point x="141" y="175"/>
			<point x="141" y="51" type="curve"/>
			<point x="232" y="74" type="line"/>
			<point x="232" y="147"/>
			<point x="255" y="270"/>
			<point x="332" y="270" type="curve" smooth="yes"/>
			<point x="385" y="270"/>
			<point x="433" y="211"/>
			<point x="433" y="143" type="curve" smooth="yes"/>
			<point x="433" y="57"/>
			<point x="302" y="92"/>
			<point x="208" y="92" type="curve" smooth="yes"/>
			<point x="99" y="92"/>
			<point x="53" y="-9"/>
			<point x="53" y="-130" type="curve" smooth="yes"/>
			<point x="53" y="-208"/>
			<point x="64" y="-301"/>
		</contour>
	</outline>
</glyph>
<glyph name="uni0647" format="2">
	<advance width="480"/>
	<unicode hex="0647"/>
	<anchor x="242" y="-100" name="bottom"/>
	<anchor x="242" y="550" name="top"/>
	<outline>
		<contour>
			<point x="195" y="-10" type="curve" smooth="yes"/>
			<point x="293" y="-10"/>
			<point x="440" y="39"/>
			<point x="440" y="149" type="curve" smooth="yes"/>
			<point x="440" y="268"/>
			<point x="330" y="392"/>
			<point x="233" y="479" type="curve"/>
			<point x="123" y="381" type="line"/>
			<point x="225" y="320"/>
			<point x="336" y="255"/>
			<point x="336" y="206" type="curve" smooth="yes"/>
			<point x="336" y="166"/>
			<point x="256" y="143"/>
			<point x="215" y="143" type="curve" smooth="yes"/>
			<point x="173" y="143"/>
			<point x="150" y="157"/>
			<point x="150" y="192" type="curve" smooth="yes"/>
			<point x="150" y="237"/>
			<point x="199" y="314"/>
			<point x="255" y="390" type="curve"/>
			<point x="212" y="431" type="line"/>
			<point x="113" y="316"/>
			<point x="40" y="211"/>
			<point x="40" y="123" type="curve" smooth="yes"/>
			<point x="40" y="47"/>
			<point x="85" y="-10"/>
		</contour>
	</outline>
</glyph>
<glyph name="uni0648" format="2">
	<advance width="520"/>
	<unicode hex="0648"/>
	<anchor x="252" y="-450" name="bottom"/>
	<anchor x="252" y="550" name="top"/>
	<outline>
		<contour>
			<point x="65" y="-243" type="curve"/>
			<point x="188" y="-381" type="line"/>
			<point x="327" y="-269"/>
			<point x="475" y="-107"/>
			<point x="475" y="119" type="curve" smooth="yes"/>
			<point x="475" y="296"/>
			<point x="378" y="399"/>
			<point x="248" y="399" type="curve" smooth="yes"/>
			<point x="129" y="399"/>
			<point x="45" y="316"/>
			<point x="45" y="205" type="curve" smooth="yes"/>
			<point x="45" y="84"/>
			<point x="165" y="-3"/>
			<point x="368" y="-3" type="curve"/>
			<point x="380" y="75" type="line"/>
			<point x="254" y="75"/>
			<point x="176" y="115"/>
			<point x="176" y="178" type="curve" smooth="yes"/>
			<point x="176" y="224"/>
			<point x="218" y="252"/>
			<point x="259" y="252" type="curve" smooth="yes"/>
			<point x="315" y="252"/>
			<point x="376" y="209"/>
			<point x="376" y="121" type="curve" smooth="yes"/>
			<point x="376" y="-29"/>
			<point x="230" y="-145"/>
		</contour>
	</outline>
</glyph>
<glyph name="uni0649" format="2">
	<advance width="825"/>
	<unicode hex="0649"/>
	<anchor x="402" y="-360" name="bottom"/>
	<anchor x="402" y="450" name="top"/>
	<outline>
		<contour>
			<point x="410" y="-310" type="curve" smooth="yes"/>
			<point x="622" y="-310"/>
			<point x="716" y="-166"/>
			<point x="716" y="-43" type="curve" smooth="yes"/>
			<point x="716" y="102"/>
			<point x="548" y="126"/>
			<point x="411" y="117" type="curve"/>
			<point x="351" y="-41" type="line"/>
			<point x="535" y="-7"/>
			<point x="636" y="-39"/>
			<point x="636" y="-88" type="curve" smooth="yes"/>
			<point x="636" y="-143"/>
			<point x="552" y="-201"/>
			<point x="450" y="-201" type="curve" smooth="yes"/>
			<point x="340" y="-201"/>
			<point x="207" y="-135"/>
			<point x="194" y="126" type="curve"/>
			<point x="30" y="62" type="line"/>
			<point x="54" y="-187"/>
			<point x="236" y="-310"/>
		</contour>
		<contour>
			<point x="351" y="-41" type="curve"/>
			<point x="430" y="9" type="line"/>
			<point x="430" y="188"/>
			<point x="522" y="267"/>
			<point x="565" y="267" type="curve" smooth="yes"/>
			<point x="598" y="267"/>
			<point x="612" y="232"/>
			<point x="612" y="171" type="curve"/>
			<point x="775" y="182" type="line"/>
			<point x="775" y="282"/>
			<point x="748" y="401"/>
			<point x="631" y="401" type="curve" smooth="yes"/>
			<point x="448" y="401"/>
			<point x="351" y="202"/>
		</contour>
	</outline>
</glyph>
<glyph name="uni064B" format="2">
	<advance width="0"/>
	<unicode hex="064B"/>
	<anchor x="50" y="572" name="_top"/>
	<anchor x="50" y="765" name="top"/>
	<outline>
		<contour>
			<point x="-71" y="672" type="curve"/>
			<point x="-71" y="604" type="line"/>
			<point x="35" y="636"/>
			<point x="80" y="650"/>
			<point x="171" y="674" type="curve"/>
			<point x="171" y="714" type="line"/>
			<point x="84" y="700"/>
			<point x="25" y="689"/>
		</contour>
		<contour>
			<point x="-71" y="740" type="curve"/>
			<point x="-71" y="700" type="line"/>
			<point x="16" y="718"/>
			<point x="75" y="729"/>
			<point x="171" y="747" type="curve"/>
			<point x="171" y="814" type="line"/>
			<point x="65" y="782"/>
			<point x="20" y="768"/>
		</contour>
	</outline>
</glyph>
<glyph name="uni064C" format="2">
	<advance width="0"/>
	<unicode hex="064C"/>
	<anchor x="50" y="585" name="_top"/>
	<anchor x="50" y="771" name="top"/>
	<outline>
		<contour>
			<point x="-70" y="611" type="curve"/>
			<point x="-4" y="611" type="line"/>
			<point x="-6" y="629"/>
			<point x="-7" y="643"/>
			<point x="-5" y="662" type="curve"/>
			<point x="15" y="635"/>
			<point x="47" y="622"/>
			<point x="80" y="622" type="curve" smooth="yes"/>
			<point x="137" y="622"/>
			<point x="171" y="656"/>
			<point x="171" y="707" type="curve" smooth="yes"/>
			<point x="171" y="754"/>
			<point x="144" y="784"/>
			<point x="104" y="784" type="curve" smooth="yes"/>
			<point x="60" y="784"/>
			<point x="35" y="750"/>
			<point x="35" y="707" type="curve" smooth="yes"/>
			<point x="35" y="677"/>
			<point x="50" y="646"/>
			<point x="73" y="627" type="curve"/>
			<point x="110" y="633" type="line"/>
			<point x="91" y="647"/>
			<point x="72" y="664"/>
			<point x="72" y="689" type="curve" smooth="yes"/>
			<point x="72" y="704"/>
			<point x="81" y="715"/>
			<point x="96" y="715" type="curve" smooth="yes"/>
			<point x="109" y="715"/>
			<point x="119" y="706"/>
			<point x="119" y="691" type="curve" smooth="yes"/>
			<point x="119" y="674"/>
			<point x="105" y="658"/>
			<point x="74" y="658" type="curve" smooth="yes"/>
			<point x="35" y="658"/>
			<point x="9" y="685"/>
			<point x="-1" y="724" type="curve"/>
			<point x="-25" y="728" type="line"/>
			<point x="-54" y="701"/>
			<point x="-66" y="658"/>
		</contour>
	</outline>
</glyph>
<glyph name="uni064D" format="2">
	<advance width="0"/>
	<unicode hex="064D"/>
	<anchor x="50" y="0" name="_bottom"/>
	<anchor x="50" y="-184" name="bottom"/>
	<outline>
		<contour>
			<point x="-71" y="-124" type="curve"/>
			<point x="-71" y="-192" type="line"/>
			<point x="35" y="-160"/>
			<point x="80" y="-146"/>
			<point x="171" y="-122" type="curve"/>
			<point x="171" y="-82" type="line"/>
			<point x="84" y="-96"/>
			<point x="25" y="-107"/>
		</contour>
		<contour>
			<point x="-71" y="-56" type="curve"/>
			<point x="-71" y="-96" type="line"/>
			<point x="16" y="-78"/>
			<point x="75" y="-67"/>
			<point x="171" y="-49" type="curve"/>
			<point x="171" y="18" type="line"/>
			<point x="65" y="-14"/>
			<point x="20" y="-28"/>
		</contour>
	</outline>
</glyph>
<glyph name="uni064E" format="2">
	<advance width="0"/>
	<unicode hex="064E"/>
	<anchor x="50" y="602" name="_top"/>
	<anchor x="48" y="702" name="top"/>
	<outline>
		<contour>
			<point x="-71" y="682" type="curve"/>
			<point x="-71" y="614" type="line"/>
			<point x="35" y="646"/>
			<point x="80" y="660"/>
			<point x="171" y="684" type="curve"/>
			<point x="171" y="724" type="line"/>
			<point x="84" y="710"/>
			<point x="25" y="699"/>
		</contour>
	</outline>
</glyph>
<glyph name="uni064F" format="2">
	<advance width="0"/>
	<unicode hex="064F"/>
	<anchor x="50" y="565" name="_top"/>
	<anchor x="50" y="767" name="top"/>
	<outline>
		<contour>
			<point x="-71" y="651" type="curve"/>
			<point x="-71" y="583" type="line"/>
			<point x="12" y="598"/>
			<point x="84" y="610"/>
			<point x="125" y="632" type="curve" smooth="yes"/>
			<point x="158" y="649"/>
			<point x="171" y="679"/>
			<point x="171" y="711" type="curve" smooth="yes"/>
			<point x="171" y="754"/>
			<point x="144" y="784"/>
			<point x="104" y="784" type="curve" smooth="yes"/>
			<point x="60" y="784"/>
			<point x="35" y="750"/>
			<point x="35" y="707" type="curve" smooth="yes"/>
			<point x="35" y="677"/>
			<point x="50" y="646"/>
			<point x="73" y="627" type="curve"/>
			<point x="112" y="633" type="line"/>
			<point x="93" y="647"/>
			<point x="74" y="666"/>
			<point x="74" y="689" type="curve" smooth="yes"/>
			<point x="74" y="704"/>
			<point x="84" y="716"/>
			<point x="99" y="716" type="curve" smooth="yes"/>
			<point x="112" y="716"/>
			<point x="122" y="707"/>
			<point x="122" y="694" type="curve" smooth="yes"/>
			<point x="122" y="677"/>
			<point x="108" y="665"/>
			<point x="71" y="660" type="curve" smooth="yes"/>
			<point x="40" y="655"/>
			<point x="2" y="653"/>
		</contour>
	</outline>
</glyph>
<glyph name="uni0650" format="2">
	<advance width="0"/>
	<unicode hex="0650"/>
	<anchor x="50" y="-60" name="_bottom"/>
	<anchor x="50" y="-173" name="bottom"/>
	<outline>
		<contour>
			<point x="-71" y="-115" type="curve"/>
			<point x="-71" y="-183" type="line"/>
			<point x="35" y="-151"/>
			<point x="80" y="-137"/>
			<point x="171" y="-113" type="curve"/>
			<point x="171" y="-73" type="line"/>
			<point x="84" y="-87"/>
			<point x="25" y="-98"/>
		</contour>
	</outline>
</glyph>
<glyph name="uni0652" format="2">
	<advance width="0"/>
	<unicode hex="0652"/>
	<anchor x="50" y="564" name="_top"/>
	<anchor x="50" y="759" name="top"/>
	<outline>
		<contour>
			<point x="27" y="593" type="curve" smooth="yes"/>
			<point x="90" y="593"/>
			<point x="146" y="630"/>
			<point x="146" y="690" type="curve" smooth="yes"/>
			<point x="146" y="734"/>
			<point x="111" y="765"/>
			<point x="58" y="765" type="curve" smooth="yes"/>
			<point x="9" y="765"/>
			<point x="-54" y="726"/>
			<point x="-54" y="661" type="curve" smooth="yes"/>
			<point x="-54" y="625"/>
			<point x="-26" y="593"/>
		</contour>
		<contour>
			<point x="24" y="633" type="curve" smooth="yes"/>
			<point x="-1" y="633"/>
			<point x="-14" y="643"/>
			<point x="-14" y="663" type="curve" smooth="yes"/>
			<point x="-14" y="681"/>
			<point x="10" y="706"/>
			<point x="39" y="706" type="curve" smooth="yes"/>
			<point x="63" y="706"/>
			<point x="75" y="692"/>
			<point x="75" y="673" type="curve" smooth="yes"/>
			<point x="75" y="656"/>
			<point x="56" y="633"/>
		</contour>
	</outline>
</glyph>
<glyph name="uni0653" format="2">
	<advance width="0"/>
	<unicode hex="0653"/>
	<anchor x="101" y="609" name="_top"/>
	<anchor x="99" y="747" name="top"/>
	<outline>
		<contour>
			<point x="-79" y="733" type="curve"/>
			<point x="-61" y="641" type="line"/>
			<point x="-32" y="673"/>
			<point x="2" y="713"/>
			<point x="33" y="713" type="curve" smooth="yes"/>
			<point x="69" y="713"/>
			<point x="85" y="644"/>
			<point x="172" y="644" type="curve" smooth="yes"/>
			<point x="213" y="644"/>
			<point x="246" y="659"/>
			<point x="279" y="672" type="curve"/>
			<point x="261" y="762" type="line"/>
			<point x="225" y="740"/>
			<point x="192" y="714"/>
			<point x="140" y="714" type="curve" smooth="yes"/>
			<point x="85" y="714"/>
			<point x="57" y="757"/>
			<point x="3" y="757" type="curve" smooth="yes"/>
			<point x="-22" y="757"/>
			<point x="-52" y="748"/>
		</contour>
	</outline>
</glyph>
<glyph name="uni0654" format="2">
	<advance width="0"/>
	<unicode hex="0654"/>
	<anchor x="48" y="601" name="_top"/>
	<anchor x="43" y="826" name="top"/>
	<outline>
		<contour>
			<point x="40" y="688" type="curve"/>
			<point x="58" y="682" type="line"/>
			<point x="151" y="684" type="line"/>
			<point x="151" y="735" type="line"/>
			<point x="117" y="720"/>
			<point x="105" y="715"/>
			<point x="70" y="708" type="curve" smooth="yes"/>
			<point x="18" y="698"/>
			<point x="-5" y="717"/>
			<point x="-5" y="736" type="curve" smooth="yes"/>
			<point x="-5" y="754"/>
			<point x="11" y="761"/>
			<point x="29" y="761" type="curve" smooth="yes"/>
			<point x="48" y="761"/>
			<point x="63" y="755"/>
			<point x="77" y="743" type="curve"/>
			<point x="130" y="794" type="line"/>
			<point x="104" y="820"/>
			<point x="70" y="826"/>
			<point x="39" y="826" type="curve" smooth="yes"/>
			<point x="-11" y="826"/>
			<point x="-56" y="801"/>
			<point x="-56" y="757" type="curve" smooth="yes"/>
			<point x="-56" y="720"/>
			<point x="-24" y="688"/>
		</contour>
		<contour>
			<point x="-64" y="680" type="curve"/>
			<point x="-64" y="599" type="line"/>
			<point x="30" y="636"/>
			<point x="70" y="650"/>
			<point x="151" y="674" type="curve"/>
			<point x="151" y="721" type="line"/>
			<point x="74" y="708"/>
			<point x="21" y="698"/>
		</contour>
	</outline>
</glyph>
<glyph name="uni0655" format="2">
	<advance width="0"/>
	<unicode hex="0655"/>
	<anchor x="51" y="10" name="_bottom"/>
	<anchor x="52" y="-204" name="bottom"/>
	<outline>
		<contour>
			<point x="42" y="-150" type="curve"/>
			<point x="60" y="-151" type="line"/>
			<point x="153" y="-144" type="line"/>
			<point x="153" y="-93" type="line"/>
			<point x="119" y="-108"/>
			<point x="107" y="-113"/>
			<point x="72" y="-120" type="curve" smooth="yes"/>
			<point x="20" y="-130"/>
			<point x="-3" y="-111"/>
			<point x="-3" y="-92" type="curve" smooth="yes"/>
			<point x="-3" y="-74"/>
			<point x="13" y="-67"/>
			<point x="31" y="-67" type="curve" smooth="yes"/>
			<point x="50" y="-67"/>
			<point x="65" y="-73"/>
			<point x="79" y="-85" type="curve"/>
			<point x="132" y="-34" type="line"/>
			<point x="106" y="-8"/>
			<point x="72" y="-2"/>
			<point x="41" y="-2" type="curve" smooth="yes"/>
			<point x="-9" y="-2"/>
			<point x="-54" y="-26"/>
			<point x="-54" y="-75" type="curve" smooth="yes"/>
			<point x="-54" y="-112"/>
			<point x="-22" y="-150"/>
		</contour>
		<contour>
			<point x="-62" y="-148" type="curve"/>
			<point x="-62" y="-229" type="line"/>
			<point x="32" y="-192"/>
			<point x="72" y="-178"/>
			<point x="153" y="-154" type="curve"/>
			<point x="153" y="-107" type="line"/>
			<point x="76" y="-120"/>
			<point x="23" y="-130"/>
		</contour>
	</outline>
</glyph>
<glyph name="uni0656" format="2">
	<advance width="0"/>
	<unicode hex="0656"/>
	<anchor x="49" y="15" name="_bottom"/>
	<anchor x="50" y="-194" name="bottom"/>
	<outline>
		<contour>
			<point x="27" y="-190" type="curve"/>
			<point x="74" y="-184" type="line"/>
			<point x="83" y="-131"/>
			<point x="89" y="-47"/>
			<point x="87" y="14" type="curve"/>
			<point x="15" y="1" type="line"/>
			<point x="25" y="-63"/>
			<point x="27" y="-131"/>
		</contour>
	</outline>
</glyph>
<glyph name="uni0658" format="2">
	<advance width="0"/>
	<unicode hex="0658"/>
	<anchor x="51" y="617" name="_top"/>
	<anchor x="51" y="797" name="top"/>
	<outline>
		<contour>
			<point x="36" y="641" type="curve" smooth="yes"/>
			<point x="135" y="641"/>
			<point x="159" y="756"/>
			<point x="136" y="824" type="curve"/>
			<point x="57" y="812" type="line"/>
			<point x="80" y="757"/>
			<point x="91" y="671"/>
			<point x="46" y="671" type="curve" smooth="yes"/>
			<point x="29" y="671"/>
			<point x="18" y="683"/>
			<point x="18" y="698" type="curve" smooth="yes"/>
			<point x="18" y="712"/>
			<point x="24" y="728"/>
			<point x="38" y="741" type="curve"/>
			<point x="2" y="791" type="line"/>
			<point x="-30" y="772"/>
			<point x="-43" y="741"/>
			<point x="-43" y="712" type="curve" smooth="yes"/>
			<point x="-43" y="663"/>
			<point x="-3" y="641"/>
		</contour>
	</outline>
</glyph>
<glyph name="uni0660" format="2">
	<advance width="393.5"/>
	<unicode hex="0660"/>
	<outline>
		<contour>
			<point x="205" y="183" type="curve"/>
			<point x="318" y="298" type="line"/>
			<point x="266" y="335"/>
			<point x="228" y="368"/>
			<point x="187" y="414" type="curve"/>
			<point x="75" y="294" type="line"/>
			<point x="109" y="252"/>
			<point x="157" y="214"/>
		</contour>
	</outline>
</glyph>
<glyph name="uni0661" format="2">
	<advance width="331.5"/>
	<unicode hex="0661"/>
	<outline>
		<contour>
			<point x="154" y="0" type="curve"/>
			<point x="261" y="16" type="line"/>
			<point x="281" y="214"/>
			<point x="266" y="518"/>
			<point x="246" y="697" type="curve"/>
			<point x="60" y="655" type="line"/>
			<point x="114" y="431"/>
			<point x="149" y="204"/>
		</contour>
	</outline>
</glyph>
<glyph name="uni0662" format="2">
	<advance width="580"/>
	<unicode hex="0662"/>
	<outline>
		<contour>
			<point x="78" y="-9" type="curve"/>
			<point x="266" y="19" type="line"/>
			<point x="211" y="204"/>
			<point x="176" y="354"/>
			<point x="176" y="451" type="curve" smooth="yes"/>
			<point x="176" y="538"/>
			<point x="208" y="571"/>
			<point x="267" y="571" type="curve" smooth="yes"/>
			<point x="315" y="571"/>
			<point x="383" y="548"/>
			<point x="480" y="491" type="curve"/>
			<point x="550" y="646" type="line"/>
			<point x="471" y="662"/>
			<point x="400" y="671"/>
			<point x="325" y="671" type="curve" smooth="yes"/>
			<point x="152" y="671"/>
			<point x="67" y="580"/>
			<point x="61" y="363" type="curve" smooth="yes"/>
			<point x="56" y="252"/>
			<point x="68" y="138"/>
		</contour>
	</outline>
</glyph>
<glyph name="uni0663" format="2">
	<advance width="740"/>
	<unicode hex="0663"/>
	<outline>
		<contour>
			<point x="131" y="-8" type="curve"/>
			<point x="320" y="13" type="line"/>
			<point x="330" y="226"/>
			<point x="257" y="487"/>
			<point x="179" y="674" type="curve"/>
			<point x="80" y="647" type="line"/>
			<point x="139" y="421"/>
			<point x="161" y="238"/>
		</contour>
		<contour>
			<point x="336" y="356" type="curve" smooth="yes"/>
			<point x="475" y="356"/>
			<point x="450" y="565"/>
			<point x="458" y="634" type="curve"/>
			<point x="324" y="630" type="line"/>
			<point x="339" y="593"/>
			<point x="352" y="529"/>
			<point x="352" y="492" type="curve" smooth="yes"/>
			<point x="352" y="468"/>
			<point x="345" y="444"/>
			<point x="314" y="444" type="curve" smooth="yes"/>
			<point x="254" y="444"/>
			<point x="225" y="574"/>
			<point x="179" y="674" type="curve"/>
			<point x="166" y="578" type="line"/>
			<point x="177" y="535"/>
			<point x="217" y="356"/>
		</contour>
		<contour>
			<point x="550" y="348" type="curve" smooth="yes"/>
			<point x="624" y="348"/>
			<point x="700" y="401"/>
			<point x="700" y="553" type="curve" smooth="yes"/>
			<point x="700" y="614"/>
			<point x="694" y="650"/>
			<point x="684" y="699" type="curve"/>
			<point x="532" y="656" type="line"/>
			<point x="558" y="598"/>
			<point x="574" y="540"/>
			<point x="574" y="489" type="curve" smooth="yes"/>
			<point x="574" y="458"/>
			<point x="565" y="425"/>
			<point x="530" y="425" type="curve" smooth="yes"/>
			<point x="462" y="425"/>
			<point x="459" y="588"/>
			<point x="458" y="634" type="curve"/>
			<point x="421" y="461" type="line"/>
			<point x="427" y="402"/>
			<point x="479" y="348"/>
		</contour>
	</outline>
</glyph>
<glyph name="uni0664" format="2">
	<advance width="605"/>
	<unicode hex="0664"/>
	<outline>
		<contour>
			<point x="290" y="-10" type="curve" smooth="yes"/>
			<point x="381" y="-10"/>
			<point x="454" y="-1"/>
			<point x="560" y="28" type="curve"/>
			<point x="493" y="189" type="line"/>
			<point x="418" y="152"/>
			<point x="336" y="130"/>
			<point x="277" y="130" type="curve" smooth="yes"/>
			<point x="218" y="130"/>
			<point x="167" y="151"/>
			<point x="167" y="214" type="curve" smooth="yes"/>
			<point x="167" y="279"/>
			<point x="241" y="307"/>
			<point x="303" y="310" type="curve" smooth="yes"/>
			<point x="367" y="313"/>
			<point x="411" y="308"/>
			<point x="475" y="308" type="curve"/>
			<point x="374" y="411" type="line"/>
			<point x="259" y="385"/>
			<point x="45" y="349"/>
			<point x="45" y="172" type="curve" smooth="yes"/>
			<point x="45" y="44"/>
			<point x="164" y="-10"/>
		</contour>
		<contour>
			<point x="304" y="354" type="curve"/>
			<point x="475" y="308" type="line"/>
			<point x="433" y="456" type="line"/>
			<point x="396" y="444"/>
			<point x="350" y="435"/>
			<point x="303" y="435" type="curve" smooth="yes"/>
			<point x="238" y="435"/>
			<point x="196" y="465"/>
			<point x="196" y="509" type="curve" smooth="yes"/>
			<point x="196" y="545"/>
			<point x="227" y="579"/>
			<point x="303" y="579" type="curve" smooth="yes"/>
			<point x="351" y="579"/>
			<point x="399" y="566"/>
			<point x="447" y="545" type="curve"/>
			<point x="530" y="663" type="line"/>
			<point x="455" y="696"/>
			<point x="398" y="710"/>
			<point x="318" y="710" type="curve" smooth="yes"/>
			<point x="177" y="710"/>
			<point x="66" y="648"/>
			<point x="66" y="533" type="curve" smooth="yes"/>
			<point x="66" y="407"/>
			<point x="182" y="354"/>
		</contour>
	</outline>
</glyph>
<glyph name="uni0665" format="2">
	<advance width="645"/>
	<unicode hex="0665"/>
	<outline>
		<contour>
			<point x="281" y="-10" type="curve" smooth="yes"/>
			<point x="513" y="-10"/>
			<point x="595" y="129"/>
			<point x="595" y="291" type="curve" smooth="yes"/>
			<point x="595" y="461"/>
			<point x="500" y="593"/>
			<point x="321" y="710" type="curve"/>
			<point x="234" y="543" type="line"/>
			<point x="435" y="473"/>
			<point x="514" y="348"/>
			<point x="514" y="279" type="curve" smooth="yes"/>
			<point x="514" y="206"/>
			<point x="402" y="156"/>
			<point x="301" y="156" type="curve" smooth="yes"/>
			<point x="203" y="156"/>
			<point x="161" y="202"/>
			<point x="161" y="271" type="curve" smooth="yes"/>
			<point x="161" y="379"/>
			<point x="230" y="490"/>
			<point x="351" y="634" type="curve"/>
			<point x="321" y="710" type="line"/>
			<point x="159" y="530"/>
			<point x="50" y="346"/>
			<point x="50" y="202" type="curve" smooth="yes"/>
			<point x="50" y="56"/>
			<point x="128" y="-10"/>
		</contour>
	</outline>
</glyph>
<glyph name="uni0666" format="2">
	<advance width="606.5"/>
	<unicode hex="0666"/>
	<outline>
		<contour>
			<point x="372" y="-4" type="curve"/>
			<point x="566" y="21" type="line"/>
			<point x="516" y="200"/>
			<point x="497" y="333"/>
			<point x="491" y="445" type="curve" smooth="yes"/>
			<point x="479" y="627"/>
			<point x="413" y="701"/>
			<point x="241" y="701" type="curve" smooth="yes"/>
			<point x="168" y="701"/>
			<point x="108" y="692"/>
			<point x="30" y="676" type="curve"/>
			<point x="99" y="521" type="line"/>
			<point x="194" y="578"/>
			<point x="252" y="601"/>
			<point x="299" y="601" type="curve" smooth="yes"/>
			<point x="358" y="601"/>
			<point x="382" y="571"/>
			<point x="379" y="484" type="curve" smooth="yes"/>
			<point x="369" y="312"/>
			<point x="364" y="178"/>
		</contour>
	</outline>
</glyph>
<glyph name="uni0667" format="2">
	<advance width="700"/>
	<unicode hex="0667"/>
	<outline>
		<contour>
			<point x="355" y="68" type="curve"/>
			<point x="314" y="-12" type="line"/>
			<point x="416" y="5" type="line"/>
			<point x="474" y="193"/>
			<point x="558" y="437"/>
			<point x="670" y="647" type="curve"/>
			<point x="536" y="673" type="line"/>
			<point x="469" y="485"/>
			<point x="406" y="275"/>
		</contour>
		<contour>
			<point x="314" y="-12" type="curve"/>
			<point x="404" y="68" type="line"/>
			<point x="353" y="307"/>
			<point x="300" y="472"/>
			<point x="213" y="684" type="curve"/>
			<point x="30" y="630" type="line"/>
			<point x="163" y="414"/>
			<point x="248" y="176"/>
		</contour>
	</outline>
</glyph>
<glyph name="uni0668" format="2">
	<advance width="700"/>
	<unicode hex="0668"/>
	<outline>
		<contour>
			<point x="345" y="589" type="curve"/>
			<point x="386" y="669" type="line"/>
			<point x="284" y="652" type="line"/>
			<point x="226" y="464"/>
			<point x="142" y="230"/>
			<point x="30" y="20" type="curve"/>
			<point x="164" y="-6" type="line"/>
			<point x="231" y="182"/>
			<point x="294" y="382"/>
		</contour>
		<contour>
			<point x="386" y="669" type="curve"/>
			<point x="296" y="589" type="line"/>
			<point x="347" y="350"/>
			<point x="400" y="195"/>
			<point x="487" y="-17" type="curve"/>
			<point x="670" y="37" type="line"/>
			<point x="537" y="253"/>
			<point x="452" y="481"/>
		</contour>
	</outline>
</glyph>
<glyph name="uni0669" format="2">
	<advance width="731"/>
	<unicode hex="0669"/>
	<outline>
		<contour>
			<point x="218" y="198" type="curve" smooth="yes"/>
			<point x="371" y="198"/>
			<point x="455" y="366"/>
			<point x="459" y="453" type="curve"/>
			<point x="400" y="478" type="line"/>
			<point x="394" y="424"/>
			<point x="341" y="343"/>
			<point x="264" y="343" type="curve" smooth="yes"/>
			<point x="216" y="343"/>
			<point x="184" y="376"/>
			<point x="184" y="422" type="curve" smooth="yes"/>
			<point x="184" y="558"/>
			<point x="402" y="624"/>
			<point x="551" y="582" type="curve"/>
			<point x="570" y="655" type="line"/>
			<point x="326" y="728"/>
			<point x="43" y="619"/>
			<point x="43" y="377" type="curve" smooth="yes"/>
			<point x="43" y="259"/>
			<point x="124" y="198"/>
		</contour>
		<contour>
			<point x="412" y="-9" type="curve"/>
			<point x="600" y="19" type="line"/>
			<point x="533" y="255"/>
			<point x="506" y="422"/>
			<point x="519" y="642" type="curve"/>
			<point x="426" y="627" type="line"/>
			<point x="414" y="584"/>
			<point x="406" y="533"/>
			<point x="400" y="478" type="curve" smooth="yes"/>
			<point x="391" y="370"/>
			<point x="391" y="137"/>
		</contour>
	</outline>
</glyph>
<glyph name="uni066B" format="2">
	<advance width="299"/>
	<unicode hex="066B"/>
	<outline>
		<contour>
			<point x="139" y="133" type="curve" smooth="yes"/>
			<point x="89" y="133"/>
			<point x="50" y="96"/>
			<point x="50" y="45" type="curve" smooth="yes"/>
			<point x="50" y="-20"/>
			<point x="123" y="-47"/>
			<point x="168" y="-25" type="curve"/>
			<point x="151" y="-58"/>
			<point x="119" y="-92"/>
			<point x="73" y="-122" type="curve"/>
			<point x="157" y="-196" type="line"/>
			<point x="217" y="-145"/>
			<point x="247" y="-59"/>
			<point x="247" y="2" type="curve" smooth="yes"/>
			<point x="247" y="75"/>
			<point x="211" y="133"/>
		</contour>
	</outline>
</glyph>
<glyph name="uni066C" format="2">
	<advance width="268"/>
	<unicode hex="066C"/>
	<outline>
		<contour>
			<point x="50" y="-156" type="curve"/>
			<point x="134" y="-190" type="line"/>
			<point x="205" y="-77"/>
			<point x="245" y="-5"/>
			<point x="196" y="142" type="curve"/>
			<point x="51" y="120" type="line"/>
			<point x="99" y="21"/>
			<point x="105" y="-62"/>
		</contour>
	</outline>
</glyph>
<glyph name="uni066E" format="2">
	<advance width="845"/>
	<unicode hex="066E"/>
	<anchor x="481" y="-91" name="bottom"/>
	<anchor x="447" y="500" name="top"/>
	<outline>
		<contour>
			<point x="484" y="-7" type="curve" smooth="yes"/>
			<point x="702" y="-7"/>
			<point x="800" y="106"/>
			<point x="800" y="254" type="curve" smooth="yes"/>
			<point x="800" y="306"/>
			<point x="792" y="355"/>
			<point x="777" y="405" type="curve"/>
			<point x="601" y="348" type="line"/>
			<point x="624" y="294"/>
			<point x="636" y="245"/>
			<point x="636" y="203" type="curve" smooth="yes"/>
			<point x="636" y="127"/>
			<point x="582" y="75"/>
			<point x="487" y="75" type="curve" smooth="yes"/>
			<point x="384" y="75"/>
			<point x="246" y="136"/>
			<point x="185" y="315" type="curve"/>
			<point x="30" y="220" type="line"/>
			<point x="147" y="37"/>
			<point x="332" y="-7"/>
		</contour>
	</outline>
</glyph>
<glyph name="uni066F" format="2">
	<advance width="850"/>
	<unicode hex="066F"/>
	<anchor x="540" y="-285" name="bottom"/>
	<anchor x="576" y="550" name="top"/>
	<outline>
		<contour>
			<point x="356" y="-249" type="curve" smooth="yes"/>
			<point x="563" y="-249"/>
			<point x="800" y="-116"/>
			<point x="800" y="143" type="curve" smooth="yes"/>
			<point x="800" y="319"/>
			<point x="699" y="403"/>
			<point x="579" y="403" type="curve" smooth="yes"/>
			<point x="445" y="403"/>
			<point x="356" y="314"/>
			<point x="356" y="209" type="curve" smooth="yes"/>
			<point x="356" y="110"/>
			<point x="448" y="0"/>
			<point x="656" y="0" type="curve"/>
			<point x="675" y="75" type="line"/>
			<point x="522" y="75"/>
			<point x="455" y="143"/>
			<point x="455" y="205" type="curve" smooth="yes"/>
			<point x="455" y="250"/>
			<point x="494" y="285"/>
			<point x="544" y="285" type="curve" smooth="yes"/>
			<point x="594" y="285"/>
			<point x="643" y="244"/>
			<point x="643" y="149" type="curve" smooth="yes"/>
			<point x="643" y="-65"/>
			<point x="477" y="-172"/>
			<point x="347" y="-172" type="curve" smooth="yes"/>
			<point x="246" y="-172"/>
			<point x="185" y="-112"/>
			<point x="185" y="-29" type="curve" smooth="yes"/>
			<point x="185" y="32"/>
			<point x="218" y="90"/>
			<point x="280" y="136" type="curve"/>
			<point x="193" y="262" type="line"/>
			<point x="92" y="194"/>
			<point x="49" y="91"/>
			<point x="49" y="8" type="curve" smooth="yes"/>
			<point x="49" y="-150"/>
			<point x="177" y="-249"/>
		</contour>
	</outline>
</glyph>
<glyph name="uni0670" format="2">
	<advance width="0"/>
	<unicode hex="0670"/>
	<anchor x="51" y="650" name="_top"/>
	<anchor x="51" y="862" name="top"/>
	<outline>
		<contour>
			<point x="27" y="654" type="curve"/>
			<point x="74" y="660" type="line"/>
			<point x="83" y="713"/>
			<point x="89" y="797"/>
			<point x="87" y="858" type="curve"/>
			<point x="15" y="845" type="line"/>
			<point x="25" y="781"/>
			<point x="27" y="713"/>
		</contour>
	</outline>
</glyph>
<glyph name="uni0686" format="2">
	<advance width="635"/>
	<unicode hex="0686"/>
	<anchor x="351" y="-93" name="_center"/>
	<anchor x="339" y="-471" name="bottom"/>
	<anchor x="337" y="510" name="top"/>
	<outline>
		<component base="uni062D"/>
		<contour>
			<point x="361" y="-205" type="curve"/>
			<point x="416" y="-149" type="line"/>
			<point x="391" y="-132"/>
			<point x="371" y="-116"/>
			<point x="352" y="-94" type="curve"/>
			<point x="298" y="-151" type="line"/>
			<point x="314" y="-172"/>
			<point x="338" y="-191"/>
		</contour>
		<contour>
			<point x="306" y="-109" type="curve"/>
			<point x="366" y="-47" type="line"/>
			<point x="339" y="-28"/>
			<point x="318" y="-9"/>
			<point x="296" y="16" type="curve"/>
			<point x="236" y="-49" type="line"/>
			<point x="253" y="-72"/>
			<point x="280" y="-93"/>
		</contour>
		<contour>
			<point x="405" y="-109" type="curve"/>
			<point x="465" y="-47" type="line"/>
			<point x="438" y="-28"/>
			<point x="417" y="-9"/>
			<point x="395" y="16" type="curve"/>
			<point x="336" y="-49" type="line"/>
			<point x="353" y="-72"/>
			<point x="380" y="-93"/>
		</contour>
	</outline>
</glyph>
<glyph name="uni06A1" format="2">
	<advance width="950"/>
	<unicode hex="06A1"/>
	<anchor x="664" y="-88" name="bottom"/>
	<anchor x="691" y="550" name="top"/>
	<outline>
		<contour>
			<point x="491" y="-7" type="curve"/>
			<point x="681" y="-7"/>
			<point x="900" y="88"/>
			<point x="900" y="250" type="curve" smooth="yes"/>
			<point x="900" y="363"/>
			<point x="808" y="427"/>
			<point x="689" y="427" type="curve" smooth="yes"/>
			<point x="531" y="427"/>
			<point x="464" y="332"/>
			<point x="464" y="246" type="curve" smooth="yes"/>
			<point x="464" y="154"/>
			<point x="543" y="94"/>
			<point x="642" y="59" type="curve"/>
			<point x="696" y="108" type="line"/>
			<point x="609" y="139"/>
			<point x="559" y="185"/>
			<point x="559" y="237" type="curve" smooth="yes"/>
			<point x="559" y="277"/>
			<point x="595" y="309"/>
			<point x="650" y="309" type="curve" smooth="yes"/>
			<point x="699" y="309"/>
			<point x="737" y="285"/>
			<point x="737" y="241" type="curve" smooth="yes"/>
			<point x="737" y="156"/>
			<point x="620" y="75"/>
			<point x="494" y="75" type="curve" smooth="yes"/>
			<point x="372" y="75"/>
			<point x="241" y="136"/>
			<point x="182" y="315" type="curve"/>
			<point x="25" y="220" type="line"/>
			<point x="141" y="37"/>
			<point x="320" y="-7"/>
		</contour>
	</outline>
</glyph>
<glyph name="uni06A9" format="2">
	<advance width="840"/>
	<unicode hex="06A9"/>
	<anchor x="546" y="-100" name="bottom"/>
	<anchor x="550" y="790" name="top"/>
	<outline>
		<contour>
			<point x="466" y="-7" type="curve" smooth="yes"/>
			<point x="580" y="-7"/>
			<point x="792" y="32"/>
			<point x="792" y="218" type="curve" smooth="yes"/>
			<point x="792" y="341"/>
			<point x="650" y="419"/>
			<point x="488" y="354" type="curve"/>
			<point x="399" y="336" type="line"/>
			<point x="448" y="251" type="line"/>
			<point x="542" y="326"/>
			<point x="625" y="279"/>
			<point x="625" y="203" type="curve" smooth="yes"/>
			<point x="625" y="109"/>
			<point x="539" y="75"/>
			<point x="469" y="75" type="curve" smooth="yes"/>
			<point x="378" y="75"/>
			<point x="243" y="136"/>
			<point x="185" y="315" type="curve"/>
			<point x="30" y="220" type="line"/>
			<point x="145" y="37"/>
			<point x="326" y="-7"/>
		</contour>
		<contour>
			<point x="399" y="336" type="curve"/>
			<point x="426" y="298" type="line"/>
			<point x="598" y="413"/>
			<point x="717" y="522"/>
			<point x="820" y="680" type="curve"/>
			<point x="671" y="771" type="line"/>
			<point x="612" y="635"/>
			<point x="493" y="440"/>
		</contour>
	</outline>
</glyph>
<glyph name="uni06BA" format="2">
	<advance width="671"/>
	<unicode hex="06BA"/>
	<anchor x="321" y="-297" name="bottom"/>
	<anchor x="321" y="550" name="top"/>
	<outline>
		<contour>
			<point x="301" y="-247" type="curve" smooth="yes"/>
			<point x="615" y="-247"/>
			<point x="675" y="86"/>
			<point x="591" y="348" type="curve"/>
			<point x="404" y="321" type="line"/>
			<point x="496" y="93"/>
			<point x="514" y="-172"/>
			<point x="323" y="-172" type="curve" smooth="yes"/>
			<point x="247" y="-172"/>
			<point x="186" y="-121"/>
			<point x="186" y="-36" type="curve" smooth="yes"/>
			<point x="186" y="33"/>
			<point x="226" y="103"/>
			<point x="290" y="146" type="curve"/>
			<point x="203" y="272" type="line"/>
			<point x="102" y="208"/>
			<point x="45" y="108"/>
			<point x="45" y="-1" type="curve" smooth="yes"/>
			<point x="45" y="-148"/>
			<point x="158" y="-247"/>
		</contour>
	</outline>
</glyph>
<glyph name="uni06BE" format="2">
	<advance width="600"/>
	<unicode hex="06BE"/>
	<anchor x="307" y="-100" name="bottom"/>
	<anchor x="315" y="570" name="top"/>
	<outline>
		<contour>
			<point x="364" y="-20" type="curve" smooth="yes"/>
			<point x="485" y="-20"/>
			<point x="555" y="47"/>
			<point x="555" y="150" type="curve" smooth="yes"/>
			<point x="555" y="314"/>
			<point x="386" y="410"/>
			<point x="211" y="468" type="curve"/>
			<point x="115" y="327" type="line"/>
			<point x="304" y="294"/>
			<point x="439" y="236"/>
			<point x="439" y="144" type="curve" smooth="yes"/>
			<point x="439" y="89"/>
			<point x="398" y="58"/>
			<point x="337" y="58" type="curve" smooth="yes"/>
			<point x="242" y="58"/>
			<point x="162" y="123"/>
			<point x="162" y="204" type="curve" smooth="yes"/>
			<point x="162" y="254"/>
			<point x="187" y="285"/>
			<point x="221" y="285" type="curve" smooth="yes"/>
			<point x="249" y="285"/>
			<point x="280" y="266"/>
			<point x="280" y="207" type="curve" smooth="yes"/>
			<point x="280" y="120"/>
			<point x="191" y="63"/>
			<point x="49" y="117" type="curve"/>
			<point x="25" y="-14" type="line"/>
			<point x="239" y="-53"/>
			<point x="361" y="81"/>
			<point x="361" y="206" type="curve" smooth="yes"/>
			<point x="361" y="294"/>
			<point x="308" y="354"/>
			<point x="234" y="354" type="curve" smooth="yes"/>
			<point x="170" y="354"/>
			<point x="99" y="301"/>
			<point x="99" y="200" type="curve" smooth="yes"/>
			<point x="99" y="87"/>
			<point x="204" y="-20"/>
		</contour>
	</outline>
</glyph>
<glyph name="uni06D2" format="2">
	<advance width="790"/>
	<unicode hex="06D2"/>
	<anchor x="300" y="-127" name="bottom"/>
	<anchor x="300" y="550" name="top"/>
	<outline>
		<contour>
			<point x="176" y="-26" type="curve" smooth="yes"/>
			<point x="373" y="-26"/>
			<point x="501" y="5"/>
			<point x="740" y="0" type="curve"/>
			<point x="760" y="153" type="line"/>
			<point x="492" y="153"/>
			<point x="342" y="64"/>
			<point x="223" y="64" type="curve" smooth="yes"/>
			<point x="185" y="64"/>
			<point x="159" y="78"/>
			<point x="159" y="118" type="curve" smooth="yes"/>
			<point x="159" y="190"/>
			<point x="264" y="253"/>
			<point x="358" y="253" type="curve" smooth="yes"/>
			<point x="393" y="253"/>
			<point x="418" y="248"/>
			<point x="446" y="233" type="curve"/>
			<point x="427" y="398" type="line"/>
			<point x="397" y="417"/>
			<point x="366" y="425"/>
			<point x="334" y="425" type="curve" smooth="yes"/>
			<point x="186" y="425"/>
			<point x="30" y="250"/>
			<point x="30" y="91" type="curve" smooth="yes"/>
			<point x="30" y="0"/>
			<point x="101" y="-26"/>
		</contour>
	</outline>
</glyph>
<glyph name="uni06D4" format="2">
	<advance width="320"/>
	<unicode hex="06D4"/>
	<outline>
		<contour>
			<point x="46" y="103" type="curve"/>
			<point x="40" y="26" type="line"/>
			<point x="109" y="23"/>
			<point x="198" y="21"/>
			<point x="272" y="26" type="curve"/>
			<point x="278" y="103" type="line"/>
			<point x="193" y="95"/>
			<point x="126" y="95"/>
		</contour>
	</outline>
</glyph>
<glyph name="uni06F4" format="2">
	<advance width="723"/>
	<unicode hex="06F4"/>
	<outline>
		<contour>
			<point x="114" y="0" type="curve"/>
			<point x="220" y="16" type="line"/>
			<point x="245" y="150"/>
			<point x="256" y="344"/>
			<point x="256" y="509" type="curve" smooth="yes"/>
			<point x="256" y="582"/>
			<point x="253" y="619"/>
			<point x="246" y="687" type="curve"/>
			<point x="60" y="645" type="line"/>
			<point x="114" y="422"/>
			<point x="124" y="203"/>
		</contour>
		<contour>
			<point x="643" y="272" type="curve"/>
			<point x="612" y="412" type="line"/>
			<point x="492" y="347"/>
			<point x="259" y="370"/>
			<point x="256" y="509" type="curve"/>
			<point x="230" y="445" type="line"/>
			<point x="230" y="265"/>
			<point x="458" y="235"/>
		</contour>
		<contour>
			<point x="620" y="307" type="curve"/>
			<point x="612" y="412" type="line"/>
			<point x="584" y="401"/>
			<point x="543" y="395"/>
			<point x="510" y="395" type="curve" smooth="yes"/>
			<point x="449" y="395"/>
			<point x="401" y="424"/>
			<point x="401" y="480" type="curve" smooth="yes"/>
			<point x="401" y="532"/>
			<point x="448" y="551"/>
			<point x="497" y="551" type="curve" smooth="yes"/>
			<point x="541" y="551"/>
			<point x="588" y="539"/>
			<point x="624" y="519" type="curve"/>
			<point x="683" y="654" type="line"/>
			<point x="607" y="678"/>
			<point x="556" y="689"/>
			<point x="486" y="689" type="curve" smooth="yes"/>
			<point x="370" y="689"/>
			<point x="295" y="630"/>
			<point x="295" y="522" type="curve" smooth="yes"/>
			<point x="295" y="368"/>
			<point x="465" y="307"/>
		</contour>
	</outline>
</glyph>
<glyph name="uni06F5" format="2">
	<advance width="656"/>
	<unicode hex="06F5"/>
	<outline>
		<contour>
			<point x="190" y="-8" type="curve" smooth="yes"/>
			<point x="258" y="-8"/>
			<point x="287" y="26"/>
			<point x="316" y="59" type="curve"/>
			<point x="353" y="28"/>
			<point x="387" y="0"/>
			<point x="451" y="0" type="curve" smooth="yes"/>
			<point x="570" y="0"/>
			<point x="606" y="164"/>
			<point x="606" y="291" type="curve" smooth="yes"/>
			<point x="606" y="461"/>
			<point x="511" y="593"/>
			<point x="333" y="710" type="curve"/>
			<point x="244" y="543" type="line"/>
			<point x="446" y="473"/>
			<point x="525" y="348"/>
			<point x="525" y="267" type="curve" smooth="yes"/>
			<point x="525" y="220"/>
			<point x="496" y="169"/>
			<point x="438" y="169" type="curve" smooth="yes"/>
			<point x="385" y="169"/>
			<point x="370" y="216"/>
			<point x="345" y="216" type="curve" smooth="yes"/>
			<point x="321" y="216"/>
			<point x="299" y="163"/>
			<point x="249" y="163" type="curve" smooth="yes"/>
			<point x="198" y="163"/>
			<point x="169" y="190"/>
			<point x="169" y="253" type="curve" smooth="yes"/>
			<point x="169" y="368"/>
			<point x="240" y="490"/>
			<point x="361" y="634" type="curve"/>
			<point x="333" y="710" type="line"/>
			<point x="170" y="530"/>
			<point x="50" y="356"/>
			<point x="50" y="176" type="curve" smooth="yes"/>
			<point x="50" y="68"/>
			<point x="96" y="-8"/>
		</contour>
	</outline>
</glyph>
<glyph name="uni06F6" format="2">
	<advance width="533"/>
	<unicode hex="06F6"/>
	<outline>
		<contour>
			<point x="45" y="7" type="curve"/>
			<point x="221" y="-10" type="line"/>
			<point x="221" y="236"/>
			<point x="305" y="307"/>
			<point x="436" y="307" type="curve"/>
			<point x="410" y="375" type="line"/>
			<point x="158" y="375"/>
			<point x="63" y="175"/>
		</contour>
		<contour>
			<point x="436" y="307" type="curve"/>
			<point x="422" y="419" type="line"/>
			<point x="384" y="409"/>
			<point x="353" y="405"/>
			<point x="320" y="405" type="curve" smooth="yes"/>
			<point x="265" y="405"/>
			<point x="211" y="428"/>
			<point x="211" y="482" type="curve" smooth="yes"/>
			<point x="211" y="532"/>
			<point x="258" y="551"/>
			<point x="307" y="551" type="curve" smooth="yes"/>
			<point x="351" y="551"/>
			<point x="398" y="539"/>
			<point x="434" y="519" type="curve"/>
			<point x="493" y="654" type="line"/>
			<point x="417" y="678"/>
			<point x="366" y="689"/>
			<point x="296" y="689" type="curve" smooth="yes"/>
			<point x="180" y="689"/>
			<point x="105" y="630"/>
			<point x="105" y="516" type="curve" smooth="yes"/>
			<point x="105" y="368"/>
			<point x="277" y="307"/>
		</contour>
	</outline>
</glyph>
<glyph name="endash" format="2">
	<advance width="496"/>
	<unicode hex="2013"/>
	<outline>
		<contour>
			<point x="39" y="376" type="curve"/>
			<point x="36" y="232" type="line"/>
			<point x="177" y="230"/>
			<point x="319" y="235"/>
			<point x="460" y="249" type="curve"/>
			<point x="459" y="361" type="line"/>
			<point x="319" y="358"/>
			<point x="178" y="363"/>
		</contour>
	</outline>
</glyph>
<glyph name="emdash" format="2">
	<advance width="810"/>
	<unicode hex="2014"/>
	<outline>
		<contour>
			<point x="39" y="378" type="curve"/>
			<point x="36" y="232" type="line"/>
			<point x="282" y="243"/>
			<point x="528" y="246"/>
			<point x="774" y="242" type="curve"/>
			<point x="772" y="362" type="line"/>
			<point x="528" y="375"/>
			<point x="283" y="380"/>
		</contour>
	</outline>
</glyph>
<glyph name="quotesinglbase" format="2">
	<advance width="267.5"/>
	<unicode hex="201A"/>
	<outline>
		<contour>
			<point x="57" y="-141" type="curve"/>
			<point x="142" y="-133" type="line"/>
			<point x="185" y="-35"/>
			<point x="209" y="66"/>
			<point x="210" y="164" type="curve"/>
			<point x="74" y="147" type="line"/>
			<point x="86" y="51"/>
			<point x="68" y="-45"/>
		</contour>
	</outline>
</glyph>
<glyph name="dagger" format="2">
	<advance width="534"/>
	<unicode hex="2020"/>
	<outline>
		<contour>
			<point x="191" y="-210" type="curve"/>
			<point x="296" y="-203" type="line"/>
			<point x="311" y="143"/>
			<point x="310" y="468"/>
			<point x="296" y="774" type="curve"/>
			<point x="168" y="757" type="line"/>
			<point x="190" y="455"/>
			<point x="199" y="132"/>
		</contour>
		<contour>
			<point x="498" y="345" type="curve"/>
			<point x="495" y="486" type="line"/>
			<point x="374" y="489"/>
			<point x="158" y="484"/>
			<point x="37" y="471" type="curve"/>
			<point x="36" y="363" type="line"/>
			<point x="159" y="365"/>
			<point x="375" y="359"/>
		</contour>
	</outline>
</glyph>
<glyph name="daggerdbl" format="2">
	<advance width="522"/>
	<unicode hex="2021"/>
	<outline>
		<contour>
			<point x="195" y="-210" type="curve"/>
			<point x="300" y="-203" type="line"/>
			<point x="315" y="143"/>
			<point x="314" y="468"/>
			<point x="300" y="774" type="curve"/>
			<point x="172" y="757" type="line"/>
			<point x="194" y="455"/>
			<point x="203" y="132"/>
		</contour>
		<contour>
			<point x="36" y="147" type="curve"/>
			<point x="39" y="6" type="line"/>
			<point x="156" y="3"/>
			<point x="368" y="8"/>
			<point x="485" y="21" type="curve"/>
			<point x="486" y="129" type="line"/>
			<point x="367" y="127"/>
			<point x="155" y="133"/>
		</contour>
		<contour>
			<point x="486" y="385" type="curve"/>
			<point x="483" y="526" type="line"/>
			<point x="366" y="529"/>
			<point x="154" y="524"/>
			<point x="37" y="511" type="curve"/>
			<point x="36" y="403" type="line"/>
			<point x="155" y="405"/>
			<point x="367" y="399"/>
		</contour>
	</outline>
</glyph>
<glyph name="bullet" format="2">
	<advance width="352"/>
	<unicode hex="2022"/>
	<outline>
		<contour>
			<point x="181" y="200" type="curve" smooth="yes"/>
			<point x="255" y="200"/>
			<point x="313" y="259"/>
			<point x="313" y="333" type="curve" smooth="yes"/>
			<point x="313" y="407"/>
			<point x="255" y="466"/>
			<point x="181" y="466" type="curve" smooth="yes"/>
			<point x="107" y="466"/>
			<point x="49" y="407"/>
			<point x="49" y="333" type="curve" smooth="yes"/>
			<point x="49" y="259"/>
			<point x="107" y="200"/>
		</contour>
	</outline>
</glyph>
<glyph name="perthousand" format="2">
	<advance width="1205"/>
	<unicode hex="2030"/>
	<outline>
		<component base="percent"/>
		<contour>
			<point x="1017" y="-6" type="curve" smooth="yes"/>
			<point x="1091" y="-6"/>
			<point x="1169" y="58"/>
			<point x="1169" y="186" type="curve" smooth="yes"/>
			<point x="1169" y="314"/>
			<point x="1091" y="379"/>
			<point x="1019" y="379" type="curve" smooth="yes"/>
			<point x="946" y="379"/>
			<point x="869" y="315"/>
			<point x="869" y="184" type="curve" smooth="yes"/>
			<point x="869" y="57"/>
			<point x="945" y="-6"/>
		</contour>
		<contour>
			<point x="1017" y="80" type="curve" smooth="yes"/>
			<point x="984" y="80"/>
			<point x="963" y="117"/>
			<point x="963" y="196" type="curve" smooth="yes"/>
			<point x="963" y="271"/>
			<point x="982" y="309"/>
			<point x="1018" y="309" type="curve" smooth="yes"/>
			<point x="1055" y="309"/>
			<point x="1076" y="270"/>
			<point x="1076" y="197" type="curve" smooth="yes"/>
			<point x="1076" y="121"/>
			<point x="1052" y="80"/>
		</contour>
	</outline>
</glyph>
<glyph name="guilsinglleft" format="2">
	<advance width="348.5"/>
	<unicode hex="2039"/>
	<outline>
		<contour>
			<point x="104" y="339" type="line"/>
			<point x="304" y="538" type="line"/>
			<point x="264" y="644" type="line"/>
			<point x="36" y="365" type="line"/>
		</contour>
		<contour>
			<point x="263" y="120" type="line"/>
			<point x="313" y="218" type="line"/>
			<point x="91" y="412" type="line"/>
			<point x="36" y="365" type="line"/>
		</contour>
	</outline>
</glyph>
<glyph name="fraction" format="2">
	<advance width="528"/>
	<unicode hex="2044"/>
	<outline>
		<contour>
			<point x="90" y="-27" type="line"/>
			<point x="503" y="804" type="line"/>
			<point x="427" y="858" type="line"/>
			<point x="19" y="32" type="line"/>
		</contour>
	</outline>
</glyph>
